{
.appVersion = "1271";
copyright = "Copyright © 2014 by Robert E. Leuschke. All rights reserved.";
customParameters = (
{
name = description;
value = "©2003-2014 by Robert E. Leuschke. All rights reserved.";
},
{
name = trademark;
value = "Ruthie-ROB is a trademark of Robert E. Leuschke.";
},
{
name = licenseURL;
value = "http://www.typesetit.com/license.html";
},
{
name = license;

glyphs = (
{
glyphname = Scaron;
layers = (
{
hints = (
{
horizontal = 1;
place = "{-98, 37}";
type = Stem;
},
{
horizontal = 1;
place = "{281, 11}";
type = Stem;
},
{
horizontal = 1;
place = "{495, 11}";
type = Stem;
},
{
horizontal = 1;
place = "{630, 13}";
type = Stem;
},
{
place = "{29, 27}";
type = Stem;
},
{
place = "{257, 14}";
type = Stem;
},
{
place = "{311, 45}";
type = Stem;
},
{
place = "{514, 19}";
type = Stem;
},
{
place = "{587, 43}";
type = Stem;
},
{
place = "{691, 25}";
type = Stem;
}
);
layerId = "89156F97-8AE0-4F29-8E8C-D321EE696556";
paths = (
{
closed = 1;
nodes = (
"616 796 LINE",
"612 802 LINE",
"601 801 OFFCURVE",
"579 791 OFFCURVE",
"548 772 CURVE SMOOTH",
"517 753 OFFCURVE",
"497 738 OFFCURVE",
"487 727 CURVE",
"429 775 OFFCURVE",
"396 799 OFFCURVE",
"389 799 CURVE SMOOTH",
"385 799 OFFCURVE",
"383 796 OFFCURVE",
"383 790 CURVE SMOOTH",
"383 785 OFFCURVE",
"400 767 OFFCURVE",
"435 738 CURVE SMOOTH",
"470 709 OFFCURVE",
"491 694 OFFCURVE",
"499 693 CURVE",
"504 695 LINE",
"527 720 OFFCURVE",
"563 751 OFFCURVE",
"612 788 CURVE"
);
},
{
closed = 1;
nodes = (
"716 569 OFFCURVE",
"712 581 OFFCURVE",
"703 592 CURVE SMOOTH",
"676 626 OFFCURVE",
"625 643 OFFCURVE",
"551 643 CURVE SMOOTH",
"467 643 OFFCURVE",
"401 619 OFFCURVE",
"352 572 CURVE",
"351 572 OFFCURVE",
"350 572 OFFCURVE",
"350 572 CURVE",
"323 572 OFFCURVE",
"301 560 OFFCURVE",
"283 541 CURVE SMOOTH",
"266 522 OFFCURVE",
"257 500 OFFCURVE",
"257 473 CURVE SMOOTH",
"257 423 OFFCURVE",
"278 378 OFFCURVE",
"324 344 CURVE SMOOTH",
"364 314 OFFCURVE",
"407 288 OFFCURVE",
"447 258 CURVE SMOOTH",
"493 224 OFFCURVE",
"514 180 OFFCURVE",
"514 131 CURVE SMOOTH",
"514 94 OFFCURVE",
"498 57 OFFCURVE",
"466 21 CURVE SMOOTH",
"437 -12 OFFCURVE",
"403 -35 OFFCURVE",
"366 -49 CURVE SMOOTH",
"353 -54 OFFCURVE",
"334 -58 OFFCURVE",
"311 -61 CURVE SMOOTH",
"306 -61 OFFCURVE",
"303 -63 OFFCURVE",
"303 -67 CURVE SMOOTH",
"303 -69 OFFCURVE",
"305 -70 OFFCURVE",
"308 -70 CURVE SMOOTH",
"358 -70 OFFCURVE",
"408 -50 OFFCURVE",
"457 -8 CURVE SMOOTH",
"508 36 OFFCURVE",
"533 82 OFFCURVE",
"533 131 CURVE SMOOTH",
"533 181 OFFCURVE",
"510 225 OFFCURVE",
"465 262 CURVE",
"423 291 OFFCURVE",
"380 318 OFFCURVE",
"339 349 CURVE SMOOTH",
"293 384 OFFCURVE",
"271 427 OFFCURVE",
"271 474 CURVE SMOOTH",
"271 496 OFFCURVE",
"278 516 OFFCURVE",
"292 535 CURVE SMOOTH",
"306 553 OFFCURVE",
"324 563 OFFCURVE",
"345 565 CURVE",
"322 540 OFFCURVE",
"311 512 OFFCURVE",
"311 481 CURVE SMOOTH",
"311 437 OFFCURVE",
"334 396 OFFCURVE",
"382 363 CURVE SMOOTH",
"426 333 OFFCURVE",
"472 308 OFFCURVE",
"515 277 CURVE SMOOTH",
"564 242 OFFCURVE",
"587 195 OFFCURVE",
"587 144 CURVE SMOOTH",
"587 55 OFFCURVE",
"535 -11 OFFCURVE",
"430 -53 CURVE SMOOTH",
"368 -78 OFFCURVE",
"311 -90 OFFCURVE",
"260 -90 CURVE SMOOTH",
"203 -90 OFFCURVE",
"155 -74 OFFCURVE",
"117 -43 CURVE SMOOTH",
"76 -10 OFFCURVE",
"56 35 OFFCURVE",
"56 90 CURVE SMOOTH",
"56 149 OFFCURVE",
"78 196 OFFCURVE",
"122 231 CURVE SMOOTH",
"163 264 OFFCURVE",
"214 282 OFFCURVE",
"273 281 CURVE SMOOTH",
"294 281 OFFCURVE",
"304 280 OFFCURVE",
"304 283 CURVE SMOOTH",
"304 289 OFFCURVE",
"288 292 OFFCURVE",
"255 292 CURVE SMOOTH",
"194 292 OFFCURVE",
"142 272 OFFCURVE",
"98 234 CURVE SMOOTH",
"52 194 OFFCURVE",
"29 144 OFFCURVE",
"29 84 CURVE SMOOTH",
"29 22 OFFCURVE",
"57 -25 OFFCURVE",
"114 -58 CURVE SMOOTH",
"160 -85 OFFCURVE",
"216 -98 OFFCURVE",
"283 -98 CURVE SMOOTH",
"367 -98 OFFCURVE",
"443 -78 OFFCURVE",
"510 -39 CURVE SMOOTH",
"590 8 OFFCURVE",
"630 70 OFFCURVE",
"630 148 CURVE SMOOTH",
"630 205 OFFCURVE",
"606 254 OFFCURVE",
"559 293 CURVE",
"515 321 OFFCURVE",
"470 348 OFFCURVE",
"427 377 CURVE SMOOTH",
"379 409 OFFCURVE",
"356 447 OFFCURVE",
"356 489 CURVE SMOOTH",
"356 508 OFFCURVE",
"361 527 OFFCURVE",
"371 544 CURVE SMOOTH",
"403 601 OFFCURVE",
"463 630 OFFCURVE",
"551 630 CURVE SMOOTH",
"581 630 OFFCURVE",
"609 625 OFFCURVE",
"636 616 CURVE SMOOTH",
"673 603 OFFCURVE",
"691 584 OFFCURVE",
"691 559 CURVE SMOOTH",
"691 540 OFFCURVE",
"679 527 OFFCURVE",
"656 517 CURVE SMOOTH",
"639 510 OFFCURVE",
"619 506 OFFCURVE",
"596 506 CURVE SMOOTH",
"526 506 OFFCURVE",
"472 519 OFFCURVE",
"433 544 CURVE SMOOTH",
"432 545 OFFCURVE",
"430 545 OFFCURVE",
"429 545 CURVE SMOOTH",
"427 545 OFFCURVE",
"426 544 OFFCURVE",
"426 542 CURVE SMOOTH",
"426 541 OFFCURVE",
"427 540 OFFCURVE",
"428 539 CURVE SMOOTH",
"446 526 OFFCURVE",
"473 514 OFFCURVE",
"510 506 CURVE SMOOTH",
"543 498 OFFCURVE",
"572 495 OFFCURVE",
"599 495 CURVE SMOOTH",
"627 495 OFFCURVE",
"651 499 OFFCURVE",
"672 507 CURVE SMOOTH",
"701 518 OFFCURVE",
"716 535 OFFCURVE",
"716 558 CURVE SMOOTH"
);
}
);
width = 667;
}
);
note = Scaron;
unicode = 0160;
},
{
glyphname = scaron;
layers = (
{
hints = (
{
horizontal = 1;
place = "{-12, 33}";
type = Stem;
},
{
horizontal = 1;
place = "{312, 30}";
type = Stem;
}
);
layerId = "89156F97-8AE0-4F29-8E8C-D321EE696556";
paths = (
{
closed = 1;
nodes = (
"316 510 LINE",
"312 516 LINE",
"301 516 OFFCURVE",
"279 506 OFFCURVE",
"248 486 CURVE SMOOTH",
"217 467 OFFCURVE",
"197 452 OFFCURVE",
"187 441 CURVE",
"129 489 OFFCURVE",
"96 513 OFFCURVE",
"89 513 CURVE SMOOTH",
"84 513 OFFCURVE",
"82 510 OFFCURVE",
"82 505 CURVE SMOOTH",
"82 499 OFFCURVE",
"100 481 OFFCURVE",
"135 452 CURVE SMOOTH",
"170 423 OFFCURVE",
"191 408 OFFCURVE",
"199 407 CURVE",
"204 409 LINE",
"226 434 OFFCURVE",
"262 465 OFFCURVE",
"311 502 CURVE"
);
},
{
closed = 1;
nodes = (
"279 148 OFFCURVE",
"278 149 OFFCURVE",
"276 149 CURVE SMOOTH",
"274 149 OFFCURVE",
"272 148 OFFCURVE",
"270 145 CURVE SMOOTH",
"257 126 OFFCURVE",
"246 112 OFFCURVE",
"238 105 CURVE SMOOTH",
"226 95 OFFCURVE",
"211 88 OFFCURVE",
"192 85 CURVE",
"192 108 OFFCURVE",
"187 135 OFFCURVE",
"178 167 CURVE SMOOTH",
"170 194 OFFCURVE",
"162 220 OFFCURVE",
"154 247 CURVE SMOOTH",
"152 253 OFFCURVE",
"151 259 OFFCURVE",
"151 264 CURVE SMOOTH",
"151 279 OFFCURVE",
"157 290 OFFCURVE",
"168 299 CURVE SMOOTH",
"179 308 OFFCURVE",
"192 312 OFFCURVE",
"207 312 CURVE SMOOTH",
"209 312 OFFCURVE",
"212 312 OFFCURVE",
"215 312 CURVE SMOOTH",
"219 311 OFFCURVE",
"222 311 OFFCURVE",
"223 311 CURVE SMOOTH",
"232 311 OFFCURVE",
"236 313 OFFCURVE",
"236 318 CURVE SMOOTH",
"236 325 OFFCURVE",
"231 330 OFFCURVE",
"222 335 CURVE SMOOTH",
"213 340 OFFCURVE",
"206 342 OFFCURVE",
"199 342 CURVE SMOOTH",
"167 342 OFFCURVE",
"140 324 OFFCURVE",
"117 288 CURVE SMOOTH",
"80 229 OFFCURVE",
"52 177 OFFCURVE",
"32 130 CURVE",
"25 140 OFFCURVE",
"18 145 OFFCURVE",
"12 145 CURVE SMOOTH",
"1 145 OFFCURVE",
"-4 135 OFFCURVE",
"-4 114 CURVE SMOOTH",
"-4 83 OFFCURVE",
"8 54 OFFCURVE",
"33 27 CURVE SMOOTH",
"58 1 OFFCURVE",
"86 -12 OFFCURVE",
"118 -12 CURVE SMOOTH",
"141 -12 OFFCURVE",
"159 -4 OFFCURVE",
"172 13 CURVE SMOOTH",
"184 28 OFFCURVE",
"191 47 OFFCURVE",
"193 71 CURVE",
"227 78 OFFCURVE",
"255 101 OFFCURVE",
"277 138 CURVE SMOOTH",
"279 141 OFFCURVE",
"279 143 OFFCURVE",
"279 145 CURVE SMOOTH"
);
},
{
closed = 1;
nodes = (
"152 81 OFFCURVE",
"152 77 OFFCURVE",
"151 72 CURVE",
"134 73 OFFCURVE",
"114 78 OFFCURVE",
"93 88 CURVE SMOOTH",
"82 93 OFFCURVE",
"64 103 OFFCURVE",
"39 117 CURVE",
"78 194 OFFCURVE",
"106 242 OFFCURVE",
"124 261 CURVE",
"121 246 OFFCURVE",
"125 218 OFFCURVE",
"135 177 CURVE SMOOTH",
"146 133 OFFCURVE",
"152 103 OFFCURVE",
"152 86 CURVE SMOOTH"
);
},
{
closed = 1;
nodes = (
"141 34 OFFCURVE",
"124 21 OFFCURVE",
"97 21 CURVE SMOOTH",
"82 21 OFFCURVE",
"67 29 OFFCURVE",
"52 46 CURVE SMOOTH",
"37 62 OFFCURVE",
"29 78 OFFCURVE",
"28 93 CURVE",
"56 71 OFFCURVE",
"97 60 OFFCURVE",
"150 60 CURVE"
);
}
);
width = 254;
}
);
note = scaron;
unicode = 0161;
},
{
glyphname = Yacute;
layers = (
{
hints = (
{
horizontal = 1;
place = "{-455, 42}";
type = Stem;
},
{
horizontal = 1;
place = "{-47, 20}";
type = Stem;
},
{
horizontal = 1;
place = "{603, 25}";
type = Stem;
},
{
place = "{-15, 23}";
type = Stem;
},
{
place = "{114, 135}";
type = Stem;
}
);
layerId = "89156F97-8AE0-4F29-8E8C-D321EE696556";
paths = (
{
closed = 1;
nodes = (
"717 713 OFFCURVE",
"714 718 OFFCURVE",
"707 723 CURVE SMOOTH",
"700 728 OFFCURVE",
"694 730 OFFCURVE",
"687 730 CURVE SMOOTH",
"672 730 OFFCURVE",
"663 725 OFFCURVE",
"660 715 CURVE SMOOTH",
"654 698 OFFCURVE",
"642 681 OFFCURVE",
"623 664 CURVE SMOOTH",
"620 661 OFFCURVE",
"604 648 OFFCURVE",
"573 625 CURVE SMOOTH",
"563 618 OFFCURVE",
"558 611 OFFCURVE",
"558 606 CURVE SMOOTH",
"558 605 OFFCURVE",
"559 605 OFFCURVE",
"561 604 CURVE",
"566 604 OFFCURVE",
"584 613 OFFCURVE",
"614 632 CURVE SMOOTH",
"633 644 OFFCURVE",
"651 656 OFFCURVE",
"670 668 CURVE SMOOTH",
"679 674 OFFCURVE",
"689 678 OFFCURVE",
"698 684 CURVE SMOOTH",
"711 692 OFFCURVE",
"717 699 OFFCURVE",
"717 706 CURVE SMOOTH"
);
},
{
closed = 1;
nodes = (
"775 507 OFFCURVE",
"768 509 OFFCURVE",
"753 509 CURVE SMOOTH",
"732 509 OFFCURVE",
"713 505 OFFCURVE",
"696 497 CURVE SMOOTH",
"667 483 OFFCURVE",
"643 449 OFFCURVE",
"627 393 CURVE SMOOTH",
"623 380 OFFCURVE",
"621 371 OFFCURVE",
"620 365 CURVE",
"603 337 OFFCURVE",
"589 315 OFFCURVE",
"579 299 CURVE SMOOTH",
"536 233 OFFCURVE",
"492 171 OFFCURVE",
"445 113 CURVE SMOOTH",
"370 20 OFFCURVE",
"315 -27 OFFCURVE",
"282 -27 CURVE SMOOTH",
"260 -27 OFFCURVE",
"249 -5 OFFCURVE",
"249 38 CURVE SMOOTH",
"249 143 OFFCURVE",
"300 290 OFFCURVE",
"401 479 CURVE SMOOTH",
"413 502 OFFCURVE",
"424 522 OFFCURVE",
"435 541 CURVE SMOOTH",
"441 551 OFFCURVE",
"446 559 OFFCURVE",
"449 564 CURVE",
"450 567 LINE",
"450 580 OFFCURVE",
"422 594 OFFCURVE",
"367 609 CURVE",
"379 624 OFFCURVE",
"396 641 OFFCURVE",
"418 662 CURVE",
"420 663 OFFCURVE",
"421 665 OFFCURVE",
"422 667 CURVE",
"422 669 OFFCURVE",
"421 670 OFFCURVE",
"418 670 CURVE SMOOTH",
"410 670 OFFCURVE",
"390 651 OFFCURVE",
"358 612 CURVE",
"315 623 OFFCURVE",
"272 628 OFFCURVE",
"229 628 CURVE SMOOTH",
"133 628 OFFCURVE",
"60 603 OFFCURVE",
"10 552 CURVE SMOOTH",
"-7 535 OFFCURVE",
"-15 519 OFFCURVE",
"-15 503 CURVE SMOOTH",
"-15 470 OFFCURVE",
"13 441 OFFCURVE",
"69 416 CURVE SMOOTH",
"83 410 OFFCURVE",
"93 407 OFFCURVE",
"98 407 CURVE SMOOTH",
"99 407 OFFCURVE",
"100 407 OFFCURVE",
"100 408 CURVE SMOOTH",
"100 410 OFFCURVE",
"92 415 OFFCURVE",
"76 422 CURVE SMOOTH",
"56 431 OFFCURVE",
"41 440 OFFCURVE",
"32 448 CURVE SMOOTH",
"16 461 OFFCURVE",
"8 476 OFFCURVE",
"8 493 CURVE SMOOTH",
"8 506 OFFCURVE",
"15 519 OFFCURVE",
"28 532 CURVE SMOOTH",
"78 579 OFFCURVE",
"140 603 OFFCURVE",
"215 603 CURVE SMOOTH",
"254 603 OFFCURVE",
"294 596 OFFCURVE",
"335 582 CURVE",
"277 504 OFFCURVE",
"226 407 OFFCURVE",
"183 292 CURVE SMOOTH",
"137 169 OFFCURVE",
"114 63 OFFCURVE",
"114 -27 CURVE SMOOTH",
"114 -48 OFFCURVE",
"115 -58 OFFCURVE",
"118 -58 CURVE SMOOTH",
"121 -58 OFFCURVE",
"123 -55 OFFCURVE",
"123 -48 CURVE SMOOTH",
"123 43 OFFCURVE",
"146 152 OFFCURVE",
"192 279 CURVE SMOOTH",
"236 400 OFFCURVE",
"287 500 OFFCURVE",
"344 579 CURVE",
"358 574 OFFCURVE",
"372 568 OFFCURVE",
"386 562 CURVE",
"342 486 OFFCURVE",
"301 402 OFFCURVE",
"264 309 CURVE SMOOTH",
"218 194 OFFCURVE",
"195 107 OFFCURVE",
"195 46 CURVE SMOOTH",
"195 -16 OFFCURVE",
"217 -47 OFFCURVE",
"262 -47 CURVE SMOOTH",
"312 -47 OFFCURVE",
"378 4 OFFCURVE",
"459 106 CURVE SMOOTH",
"510 169 OFFCURVE",
"560 243 OFFCURVE",
"610 327 CURVE",
"601 294 LINE SMOOTH",
"574 194 OFFCURVE",
"562 118 OFFCURVE",
"552 67 CURVE SMOOTH",
"529 -46 OFFCURVE",
"504 -131 OFFCURVE",
"479 -187 CURVE SMOOTH",
"439 -274 OFFCURVE",
"382 -339 OFFCURVE",
"307 -381 CURVE SMOOTH",
"269 -402 OFFCURVE",
"228 -413 OFFCURVE",
"183 -413 CURVE SMOOTH",
"112 -413 OFFCURVE",
"59 -386 OFFCURVE",
"24 -333 CURVE SMOOTH",
"17 -323 OFFCURVE",
"10 -308 OFFCURVE",
"3 -289 CURVE",
"0 -284 OFFCURVE",
"-2 -281 OFFCURVE",
"-4 -281 CURVE SMOOTH",
"-6 -281 OFFCURVE",
"-7 -283 OFFCURVE",
"-7 -286 CURVE SMOOTH",
"-7 -288 OFFCURVE",
"-7 -290 OFFCURVE",
"-6 -292 CURVE SMOOTH",
"11 -341 OFFCURVE",
"38 -379 OFFCURVE",
"73 -408 CURVE SMOOTH",
"112 -439 OFFCURVE",
"156 -455 OFFCURVE",
"205 -455 CURVE SMOOTH",
"242 -455 OFFCURVE",
"276 -446 OFFCURVE",
"308 -428 CURVE SMOOTH",
"378 -389 OFFCURVE",
"438 -326 OFFCURVE",
"486 -239 CURVE SMOOTH",
"524 -171 OFFCURVE",
"557 -84 OFFCURVE",
"586 23 CURVE SMOOTH",
"589 35 OFFCURVE",
"610 122 OFFCURVE",
"648 283 CURVE SMOOTH",
"675 396 OFFCURVE",
"707 464 OFFCURVE",
"745 488 CURVE",
"756 492 OFFCURVE",
"763 495 OFFCURVE",
"768 495 CURVE",
"773 497 OFFCURVE",
"775 499 OFFCURVE",
"775 502 CURVE SMOOTH"
);
}
);
width = 707;
}
);
note = Yacute;
unicode = 00DD;
},
{
glyphname = yacute;
layers = (
{
hints = (
{
horizontal = 1;
place = "{-408, 35}";
type = Stem;
},
{
horizontal = 1;
place = "{311, 28}";
type = Stem;
},
{
place = "{113, 31}";
type = Stem;
}
);
layerId = "89156F97-8AE0-4F29-8E8C-D321EE696556";
paths = (
{
closed = 1;
nodes = (
"341 550 OFFCURVE",
"338 556 OFFCURVE",
"331 561 CURVE SMOOTH",
"324 565 OFFCURVE",
"318 568 OFFCURVE",
"312 568 CURVE SMOOTH",
"297 568 OFFCURVE",
"288 563 OFFCURVE",
"284 552 CURVE SMOOTH",
"278 535 OFFCURVE",
"267 518 OFFCURVE",
"248 501 CURVE SMOOTH",
"245 498 OFFCURVE",
"228 486 OFFCURVE",
"197 462 CURVE SMOOTH",
"188 455 OFFCURVE",
"183 449 OFFCURVE",
"183 444 CURVE SMOOTH",
"183 443 OFFCURVE",
"184 442 OFFCURVE",
"186 442 CURVE SMOOTH",
"191 442 OFFCURVE",
"209 451 OFFCURVE",
"239 470 CURVE SMOOTH",
"257 481 OFFCURVE",
"275 493 OFFCURVE",
"294 505 CURVE SMOOTH",
"303 511 OFFCURVE",
"313 515 OFFCURVE",
"322 521 CURVE SMOOTH",
"335 529 OFFCURVE",
"341 537 OFFCURVE",
"341 544 CURVE SMOOTH"
);
},
{
closed = 1;
nodes = (
"384 400 OFFCURVE",
"378 402 OFFCURVE",
"366 402 CURVE SMOOTH",
"334 402 OFFCURVE",
"309 392 OFFCURVE",
"292 371 CURVE SMOOTH",
"279 356 OFFCURVE",
"268 331 OFFCURVE",
"258 295 CURVE",
"219 275 OFFCURVE",
"172 214 OFFCURVE",
"117 112 CURVE",
"135 165 OFFCURVE",
"144 213 OFFCURVE",
"144 258 CURVE SMOOTH",
"144 312 OFFCURVE",
"130 339 OFFCURVE",
"102 339 CURVE SMOOTH",
"87 339 OFFCURVE",
"69 331 OFFCURVE",
"47 315 CURVE SMOOTH",
"26 300 OFFCURVE",
"11 285 OFFCURVE",
"2 271 CURVE",
"1 268 OFFCURVE",
"0 266 OFFCURVE",
"0 264 CURVE SMOOTH",
"0 261 OFFCURVE",
"1 260 OFFCURVE",
"3 260 CURVE SMOOTH",
"4 260 OFFCURVE",
"13 269 OFFCURVE",
"31 286 CURVE SMOOTH",
"49 302 OFFCURVE",
"65 311 OFFCURVE",
"78 311 CURVE SMOOTH",
"101 311 OFFCURVE",
"113 284 OFFCURVE",
"113 229 CURVE SMOOTH",
"113 158 OFFCURVE",
"107 103 OFFCURVE",
"94 65 CURVE",
"94 64 OFFCURVE",
"91 57 OFFCURVE",
"85 44 CURVE SMOOTH",
"80 31 OFFCURVE",
"77 24 OFFCURVE",
"77 23 CURVE SMOOTH",
"77 18 OFFCURVE",
"80 13 OFFCURVE",
"85 8 CURVE SMOOTH",
"90 3 OFFCURVE",
"95 1 OFFCURVE",
"100 1 CURVE SMOOTH",
"103 1 OFFCURVE",
"104 2 OFFCURVE",
"104 3 CURVE",
"163 158 OFFCURVE",
"214 252 OFFCURVE",
"255 284 CURVE",
"238 222 LINE SMOOTH",
"215 138 OFFCURVE",
"205 74 OFFCURVE",
"197 31 CURVE SMOOTH",
"178 -65 OFFCURVE",
"157 -136 OFFCURVE",
"136 -183 CURVE SMOOTH",
"102 -256 OFFCURVE",
"54 -311 OFFCURVE",
"-9 -346 CURVE SMOOTH",
"-41 -364 OFFCURVE",
"-76 -373 OFFCURVE",
"-113 -373 CURVE SMOOTH",
"-186 -373 OFFCURVE",
"-237 -338 OFFCURVE",
"-265 -268 CURVE SMOOTH",
"-267 -264 OFFCURVE",
"-268 -262 OFFCURVE",
"-270 -262 CURVE SMOOTH",
"-272 -262 OFFCURVE",
"-273 -263 OFFCURVE",
"-273 -266 CURVE SMOOTH",
"-273 -299 OFFCURVE",
"-253 -331 OFFCURVE",
"-212 -362 CURVE SMOOTH",
"-171 -393 OFFCURVE",
"-132 -408 OFFCURVE",
"-95 -408 CURVE SMOOTH",
"-64 -408 OFFCURVE",
"-35 -400 OFFCURVE",
"-8 -385 CURVE SMOOTH",
"51 -352 OFFCURVE",
"100 -299 OFFCURVE",
"141 -226 CURVE SMOOTH",
"173 -169 OFFCURVE",
"201 -96 OFFCURVE",
"226 -6 CURVE SMOOTH",
"229 4 OFFCURVE",
"246 77 OFFCURVE",
"278 212 CURVE SMOOTH",
"300 304 OFFCURVE",
"325 361 OFFCURVE",
"356 383 CURVE",
"362 386 OFFCURVE",
"370 389 OFFCURVE",
"379 391 CURVE SMOOTH",
"382 392 OFFCURVE",
"384 393 OFFCURVE",
"384 396 CURVE SMOOTH"
);
}
);
width = 341;
}
);
note = yacute;
unicode = 00FD;
},
{
glyphname = Thorn;
layers = (
{
hints = (
{
horizontal = 1;
place = "{-281, 12}";
type = Stem;
},
{
horizontal = 1;
place = "{200, 22}";
type = Stem;
},
{
place = "{-57, 59}";
type = Stem;
},
{
place = "{389, 44}";
type = Stem;
}
);
layerId = "89156F97-8AE0-4F29-8E8C-D321EE696556";
paths = (
{
closed = 1;
nodes = (
"433 376 OFFCURVE",
"380 465 OFFCURVE",
"274 580 CURVE",
"307 650 OFFCURVE",
"332 697 OFFCURVE",
"347 721 CURVE SMOOTH",
"354 732 OFFCURVE",
"360 739 OFFCURVE",
"367 743 CURVE SMOOTH",
"374 747 OFFCURVE",
"379 753 OFFCURVE",
"384 761 CURVE SMOOTH",
"385 762 OFFCURVE",
"385 764 OFFCURVE",
"385 766 CURVE SMOOTH",
"385 772 OFFCURVE",
"379 775 OFFCURVE",
"366 775 CURVE SMOOTH",
"347 775 OFFCURVE",
"334 769 OFFCURVE",
"326 757 CURVE SMOOTH",
"319 745 OFFCURVE",
"313 733 OFFCURVE",
"307 722 CURVE SMOOTH",
"209 530 OFFCURVE",
"114 317 OFFCURVE",
"21 84 CURVE SMOOTH",
"5 45 OFFCURVE",
"-12 6 OFFCURVE",
"-27 -33 CURVE SMOOTH",
"-48 -87 OFFCURVE",
"-57 -128 OFFCURVE",
"-57 -153 CURVE SMOOTH",
"-57 -156 LINE SMOOTH",
"-57 -189 OFFCURVE",
"-46 -218 OFFCURVE",
"-21 -243 CURVE SMOOTH",
"4 -268 OFFCURVE",
"33 -281 OFFCURVE",
"66 -281 CURVE SMOOTH",
"80 -281 OFFCURVE",
"96 -276 OFFCURVE",
"115 -267 CURVE SMOOTH",
"133 -258 OFFCURVE",
"145 -247 OFFCURVE",
"152 -236 CURVE",
"116 -258 OFFCURVE",
"85 -269 OFFCURVE",
"60 -269 CURVE SMOOTH",
"21 -269 OFFCURVE",
"2 -239 OFFCURVE",
"2 -180 CURVE SMOOTH",
"2 -115 OFFCURVE",
"20 -33 OFFCURVE",
"56 68 CURVE SMOOTH",
"73 114 OFFCURVE",
"106 194 OFFCURVE",
"155 307 CURVE SMOOTH",
"207 426 OFFCURVE",
"242 510 OFFCURVE",
"261 558 CURVE",
"346 463 OFFCURVE",
"389 381 OFFCURVE",
"389 312 CURVE SMOOTH",
"389 284 OFFCURVE",
"377 262 OFFCURVE",
"352 245 CURVE SMOOTH",
"330 230 OFFCURVE",
"304 222 OFFCURVE",
"274 222 CURVE SMOOTH",
"233 222 OFFCURVE",
"192 237 OFFCURVE",
"150 267 CURVE SMOOTH",
"147 269 OFFCURVE",
"146 270 OFFCURVE",
"145 270 CURVE SMOOTH",
"143 270 OFFCURVE",
"142 269 OFFCURVE",
"142 266 CURVE SMOOTH",
"142 257 OFFCURVE",
"147 248 OFFCURVE",
"157 240 CURVE SMOOTH",
"190 213 OFFCURVE",
"230 200 OFFCURVE",
"279 200 CURVE SMOOTH",
"316 200 OFFCURVE",
"350 209 OFFCURVE",
"380 228 CURVE SMOOTH",
"415 250 OFFCURVE",
"433 278 OFFCURVE",
"433 313 CURVE SMOOTH"
);
}
);
width = 439;
}
);
note = Thorn;
unicode = 00DE;
},
{
glyphname = thorn;
layers = (
{
hints = (
{
horizontal = 1;
place = "{-504, 12}";
type = Stem;
},
{
horizontal = 1;
place = "{-3, 16}";
type = Stem;
},
{
place = "{-170, 59}";
type = Stem;
},
{
place = "{193, 45}";
type = Stem;
}
);
layerId = "89156F97-8AE0-4F29-8E8C-D321EE696556";
paths = (
{
closed = 1;
nodes = (
"330 676 OFFCURVE",
"324 679 OFFCURVE",
"312 679 CURVE SMOOTH",
"292 679 OFFCURVE",
"278 673 OFFCURVE",
"271 662 CURVE SMOOTH",
"269 659 OFFCURVE",
"262 647 OFFCURVE",
"251 624 CURVE SMOOTH",
"144 413 OFFCURVE",
"34 169 OFFCURVE",
"-78 -107 CURVE SMOOTH",
"-96 -152 OFFCURVE",
"-115 -196 OFFCURVE",
"-133 -241 CURVE SMOOTH",
"-158 -303 OFFCURVE",
"-170 -349 OFFCURVE",
"-170 -376 CURVE SMOOTH",
"-170 -378 LINE SMOOTH",
"-170 -411 OFFCURVE",
"-158 -441 OFFCURVE",
"-133 -466 CURVE SMOOTH",
"-108 -491 OFFCURVE",
"-80 -504 OFFCURVE",
"-47 -504 CURVE SMOOTH",
"-33 -504 OFFCURVE",
"-17 -499 OFFCURVE",
"2 -490 CURVE SMOOTH",
"21 -481 OFFCURVE",
"33 -470 OFFCURVE",
"39 -459 CURVE",
"3 -481 OFFCURVE",
"-28 -492 OFFCURVE",
"-53 -492 CURVE SMOOTH",
"-92 -492 OFFCURVE",
"-111 -462 OFFCURVE",
"-111 -403 CURVE SMOOTH",
"-111 -322 OFFCURVE",
"-85 -214 OFFCURVE",
"-30 -80 CURVE SMOOTH",
"13 25 OFFCURVE",
"59 130 OFFCURVE",
"104 235 CURVE",
"163 170 OFFCURVE",
"193 115 OFFCURVE",
"193 70 CURVE SMOOTH",
"193 53 OFFCURVE",
"185 39 OFFCURVE",
"170 28 CURVE SMOOTH",
"155 18 OFFCURVE",
"139 13 OFFCURVE",
"121 13 CURVE SMOOTH",
"103 13 OFFCURVE",
"83 19 OFFCURVE",
"61 30 CURVE SMOOTH",
"40 40 OFFCURVE",
"31 46 OFFCURVE",
"34 46 CURVE SMOOTH",
"33 46 OFFCURVE",
"32 45 OFFCURVE",
"32 43 CURVE SMOOTH",
"32 30 OFFCURVE",
"45 19 OFFCURVE",
"72 9 CURVE SMOOTH",
"93 1 OFFCURVE",
"112 -3 OFFCURVE",
"129 -3 CURVE SMOOTH",
"156 -3 OFFCURVE",
"180 4 OFFCURVE",
"201 17 CURVE SMOOTH",
"226 32 OFFCURVE",
"238 52 OFFCURVE",
"238 77 CURVE SMOOTH",
"238 121 OFFCURVE",
"200 184 OFFCURVE",
"125 267 CURVE",
"214 444 OFFCURVE",
"282 577 OFFCURVE",
"329 665 CURVE SMOOTH",
"330 667 OFFCURVE",
"330 669 OFFCURVE",
"330 670 CURVE SMOOTH"
);
}
);
width = 233;
}
);
note = thorn;
unicode = 00FE;
},
{
glyphname = Lslash;
layers = (
{
hints = (
{
horizontal = 1;
place = "{-121, 63}";
type = Stem;
},
{
horizontal = 1;
place = "{-48, 21}";
type = Stem;
},
{
horizontal = 1;
place = "{657, 29}";
type = Stem;
},
{
place = "{650, 14}";
type = Stem;
},
{
place = "{702, 10}";
type = Stem;
}
);
layerId = "89156F97-8AE0-4F29-8E8C-D321EE696556";
paths = (
{
closed = 1;
nodes = (
"712 50 OFFCURVE",
"700 75 OFFCURVE",
"675 98 CURVE SMOOTH",
"668 105 OFFCURVE",
"663 108 OFFCURVE",
"661 108 CURVE SMOOTH",
"660 108 OFFCURVE",
"659 107 OFFCURVE",
"659 106 CURVE SMOOTH",
"659 103 OFFCURVE",
"666 91 OFFCURVE",
"681 70 CURVE SMOOTH",
"695 49 OFFCURVE",
"702 32 OFFCURVE",
"702 17 CURVE SMOOTH",
"702 -12 OFFCURVE",
"679 -32 OFFCURVE",
"634 -45 CURVE SMOOTH",
"605 -53 OFFCURVE",
"570 -58 OFFCURVE",
"529 -58 CURVE SMOOTH",
"467 -58 OFFCURVE",
"391 -49 OFFCURVE",
"300 -31 CURVE SMOOTH",
"224 -16 OFFCURVE",
"148 0 OFFCURVE",
"72 15 CURVE",
"93 35 OFFCURVE",
"113 60 OFFCURVE",
"135 90 CURVE SMOOTH",
"146 105 OFFCURVE",
"165 133 OFFCURVE",
"190 172 CURVE SMOOTH",
"272 300 LINE",
"327 323 OFFCURVE",
"376 341 OFFCURVE",
"420 353 CURVE SMOOTH",
"453 362 OFFCURVE",
"479 367 OFFCURVE",
"496 371 CURVE SMOOTH",
"500 372 OFFCURVE",
"502 374 OFFCURVE",
"502 378 CURVE SMOOTH",
"502 383 OFFCURVE",
"499 385 OFFCURVE",
"494 385 CURVE SMOOTH",
"492 385 OFFCURVE",
"482 384 OFFCURVE",
"463 382 CURVE SMOOTH",
"406 375 OFFCURVE",
"352 364 OFFCURVE",
"303 348 CURVE",
"359 435 OFFCURVE",
"406 505 OFFCURVE",
"443 559 CURVE SMOOTH",
"488 624 OFFCURVE",
"529 657 OFFCURVE",
"568 657 CURVE SMOOTH",
"595 657 OFFCURVE",
"616 641 OFFCURVE",
"631 611 CURVE SMOOTH",
"643 586 OFFCURVE",
"650 559 OFFCURVE",
"650 528 CURVE SMOOTH",
"650 497 OFFCURVE",
"643 466 OFFCURVE",
"629 435 CURVE SMOOTH",
"628 432 OFFCURVE",
"627 430 OFFCURVE",
"627 429 CURVE SMOOTH",
"627 425 OFFCURVE",
"629 423 OFFCURVE",
"634 423 CURVE SMOOTH",
"637 423 OFFCURVE",
"640 424 OFFCURVE",
"641 426 CURVE SMOOTH",
"656 462 OFFCURVE",
"664 501 OFFCURVE",
"664 544 CURVE SMOOTH",
"664 581 OFFCURVE",
"657 613 OFFCURVE",
"641 639 CURVE SMOOTH",
"622 671 OFFCURVE",
"595 686 OFFCURVE",
"561 686 CURVE SMOOTH",
"512 686 OFFCURVE",
"462 655 OFFCURVE",
"414 589 CURVE SMOOTH",
"382 545 OFFCURVE",
"361 510 OFFCURVE",
"346 487 CURVE SMOOTH",
"295 408 OFFCURVE",
"260 354 OFFCURVE",
"241 325 CURVE",
"178 298 OFFCURVE",
"131 278 OFFCURVE",
"100 264 CURVE SMOOTH",
"67 250 OFFCURVE",
"41 239 OFFCURVE",
"24 232 CURVE SMOOTH",
"21 231 OFFCURVE",
"20 228 OFFCURVE",
"20 223 CURVE SMOOTH",
"20 206 OFFCURVE",
"24 198 OFFCURVE",
"33 198 CURVE SMOOTH",
"37 198 OFFCURVE",
"94 222 OFFCURVE",
"203 271 CURVE",
"68 72 OFFCURVE",
"-25 -27 OFFCURVE",
"-74 -27 CURVE SMOOTH",
"-89 -27 OFFCURVE",
"-97 -30 OFFCURVE",
"-97 -35 CURVE SMOOTH",
"-97 -44 OFFCURVE",
"-86 -48 OFFCURVE",
"-64 -48 CURVE SMOOTH",
"-47 -48 OFFCURVE",
"-27 -43 OFFCURVE",
"-6 -31 CURVE SMOOTH",
"12 -21 OFFCURVE",
"30 -10 OFFCURVE",
"47 0 CURVE",
"72 -5 OFFCURVE",
"147 -30 OFFCURVE",
"274 -73 CURVE SMOOTH",
"370 -105 OFFCURVE",
"446 -121 OFFCURVE",
"503 -121 CURVE SMOOTH",
"520 -121 OFFCURVE",
"537 -119 OFFCURVE",
"554 -116 CURVE SMOOTH",
"589 -109 OFFCURVE",
"623 -92 OFFCURVE",
"655 -68 CURVE SMOOTH",
"693 -39 OFFCURVE",
"712 -9 OFFCURVE",
"712 23 CURVE SMOOTH"
);
}
);
width = 734;
}
);
note = Lslash;
unicode = 0141;
},
{
glyphname = Zcaron;
layers = (
{
hints = (
{
horizontal = 1;
place = "{-121, 42}";
type = Stem;
},
{
horizontal = 1;
place = "{-75, 22}";
type = Stem;
},
{
horizontal = 1;
place = "{-24, 120}";
type = Stem;
},
{
horizontal = 1;
place = "{573, 31}";
type = Stem;
},
{
horizontal = 1;
place = "{619, 42}";
type = Stem;
},
{
place = "{-9, 17}";
type = Stem;
},
{
place = "{272, 14}";
type = Stem;
},
{
place = "{848, 10}";
type = Stem;
},
{
place = "{986, 38}";
type = Stem;
}
);
layerId = "89156F97-8AE0-4F29-8E8C-D321EE696556";
paths = (
{
closed = 1;
nodes = (
"859 804 LINE",
"855 811 LINE",
"844 810 OFFCURVE",
"822 800 OFFCURVE",
"791 780 CURVE SMOOTH",
"760 761 OFFCURVE",
"740 746 OFFCURVE",
"730 735 CURVE",
"672 783 OFFCURVE",
"639 807 OFFCURVE",
"632 807 CURVE SMOOTH",
"628 807 OFFCURVE",
"626 804 OFFCURVE",
"626 799 CURVE SMOOTH",
"626 793 OFFCURVE",
"643 775 OFFCURVE",
"678 746 CURVE SMOOTH",
"713 717 OFFCURVE",
"734 702 OFFCURVE",
"742 701 CURVE",
"747 704 LINE",
"770 729 OFFCURVE",
"806 759 OFFCURVE",
"855 796 CURVE"
);
},
{
closed = 1;
nodes = (
"1024 610 OFFCURVE",
"1012 615 OFFCURVE",
"987 615 CURVE SMOOTH",
"957 615 OFFCURVE",
"923 606 OFFCURVE",
"886 588 CURVE",
"862 591 OFFCURVE",
"834 595 OFFCURVE",
"801 602 CURVE",
"834 622 OFFCURVE",
"867 640 OFFCURVE",
"899 653 CURVE SMOOTH",
"921 662 OFFCURVE",
"939 668 OFFCURVE",
"951 672 CURVE SMOOTH",
"958 675 OFFCURVE",
"961 679 OFFCURVE",
"961 684 CURVE SMOOTH",
"961 685 OFFCURVE",
"960 686 OFFCURVE",
"959 686 CURVE SMOOTH",
"948 686 OFFCURVE",
"919 674 OFFCURVE",
"873 651 CURVE SMOOTH",
"836 633 OFFCURVE",
"808 617 OFFCURVE",
"788 604 CURVE",
"733 617 OFFCURVE",
"679 629 OFFCURVE",
"624 641 CURVE SMOOTH",
"559 655 OFFCURVE",
"504 661 OFFCURVE",
"457 661 CURVE SMOOTH",
"434 661 OFFCURVE",
"413 659 OFFCURVE",
"394 656 CURVE SMOOTH",
"364 651 OFFCURVE",
"337 639 OFFCURVE",
"313 619 CURVE SMOOTH",
"286 597 OFFCURVE",
"272 572 OFFCURVE",
"272 545 CURVE SMOOTH",
"272 525 OFFCURVE",
"280 505 OFFCURVE",
"295 485 CURVE",
"298 484 LINE",
"303 485 OFFCURVE",
"305 487 OFFCURVE",
"305 492 CURVE SMOOTH",
"305 491 OFFCURVE",
"302 497 OFFCURVE",
"295 508 CURVE SMOOTH",
"289 519 OFFCURVE",
"286 529 OFFCURVE",
"286 538 CURVE SMOOTH",
"286 566 OFFCURVE",
"308 588 OFFCURVE",
"351 603 CURVE SMOOTH",
"382 614 OFFCURVE",
"415 619 OFFCURVE",
"450 619 CURVE SMOOTH",
"489 619 OFFCURVE",
"540 614 OFFCURVE",
"602 605 CURVE SMOOTH",
"653 598 OFFCURVE",
"703 590 OFFCURVE",
"754 582 CURVE",
"661 519 OFFCURVE",
"555 424 OFFCURVE",
"435 297 CURVE",
"336 293 OFFCURVE",
"286 274 OFFCURVE",
"286 241 CURVE SMOOTH",
"286 232 OFFCURVE",
"289 225 OFFCURVE",
"295 218 CURVE SMOOTH",
"303 208 OFFCURVE",
"310 203 OFFCURVE",
"317 203 CURVE",
"318 204 OFFCURVE",
"318 204 OFFCURVE",
"318 205 CURVE",
"318 204 OFFCURVE",
"317 206 OFFCURVE",
"315 210 CURVE SMOOTH",
"313 213 OFFCURVE",
"312 217 OFFCURVE",
"312 220 CURVE SMOOTH",
"312 239 OFFCURVE",
"342 253 OFFCURVE",
"403 264 CURVE",
"301 155 OFFCURVE",
"244 94 OFFCURVE",
"233 82 CURVE",
"194 91 OFFCURVE",
"159 96 OFFCURVE",
"127 96 CURVE SMOOTH",
"94 96 OFFCURVE",
"64 90 OFFCURVE",
"39 77 CURVE SMOOTH",
"7 61 OFFCURVE",
"-9 38 OFFCURVE",
"-9 7 CURVE SMOOTH",
"-9 -16 OFFCURVE",
"3 -35 OFFCURVE",
"28 -52 CURVE SMOOTH",
"50 -67 OFFCURVE",
"73 -75 OFFCURVE",
"96 -75 CURVE SMOOTH",
"140 -75 OFFCURVE",
"180 -64 OFFCURVE",
"216 -41 CURVE SMOOTH",
"243 -24 OFFCURVE",
"275 4 OFFCURVE",
"311 43 CURVE",
"376 10 OFFCURVE",
"441 -24 OFFCURVE",
"506 -57 CURVE SMOOTH",
"591 -100 OFFCURVE",
"658 -121 OFFCURVE",
"707 -121 CURVE SMOOTH",
"740 -121 OFFCURVE",
"771 -113 OFFCURVE",
"802 -97 CURVE SMOOTH",
"839 -78 OFFCURVE",
"858 -54 OFFCURVE",
"858 -25 CURVE SMOOTH",
"858 -14 OFFCURVE",
"854 -1 OFFCURVE",
"845 14 CURVE SMOOTH",
"836 29 OFFCURVE",
"827 38 OFFCURVE",
"818 42 CURVE",
"838 13 OFFCURVE",
"848 -12 OFFCURVE",
"848 -32 CURVE SMOOTH",
"848 -63 OFFCURVE",
"820 -79 OFFCURVE",
"764 -79 CURVE SMOOTH",
"705 -79 OFFCURVE",
"630 -64 OFFCURVE",
"540 -30 CURVE SMOOTH",
"466 -2 OFFCURVE",
"394 27 OFFCURVE",
"321 55 CURVE",
"419 154 OFFCURVE",
"492 228 OFFCURVE",
"540 278 CURVE",
"571 279 OFFCURVE",
"601 280 OFFCURVE",
"631 280 CURVE SMOOTH",
"641 280 OFFCURVE",
"656 279 OFFCURVE",
"676 278 CURVE SMOOTH",
"696 277 OFFCURVE",
"711 276 OFFCURVE",
"721 276 CURVE SMOOTH",
"725 276 OFFCURVE",
"727 277 OFFCURVE",
"727 278 CURVE SMOOTH",
"727 279 OFFCURVE",
"725 281 OFFCURVE",
"720 282 CURVE SMOOTH",
"681 290 OFFCURVE",
"628 295 OFFCURVE",
"560 297 CURVE",
"690 426 OFFCURVE",
"797 518 OFFCURVE",
"880 572 CURVE",
"976 571 OFFCURVE",
"1024 580 OFFCURVE",
"1024 600 CURVE SMOOTH"
);
},
{
closed = 1;
nodes = (
"986 590 OFFCURVE",
"970 586 OFFCURVE",
"939 586 CURVE SMOOTH",
"928 586 LINE SMOOTH",
"924 586 OFFCURVE",
"918 586 OFFCURVE",
"910 587 CURVE",
"934 597 OFFCURVE",
"955 602 OFFCURVE",
"972 602 CURVE SMOOTH",
"981 602 OFFCURVE",
"986 601 OFFCURVE",
"986 598 CURVE SMOOTH"
);
},
{
closed = 1;
nodes = (
"748 513 OFFCURVE",
"634 421 OFFCURVE",
"517 298 CURVE",
"498 299 OFFCURVE",
"479 299 OFFCURVE",
"460 298 CURVE",
"586 431 OFFCURVE",
"689 525 OFFCURVE",
"769 580 CURVE",
"800 577 OFFCURVE",
"830 574 OFFCURVE",
"857 573 CURVE"
);
},
{
closed = 1;
nodes = (
"410 180 OFFCURVE",
"348 109 OFFCURVE",
"307 60 CURVE",
"286 67 OFFCURVE",
"267 73 OFFCURVE",
"249 78 CURVE",
"331 162 OFFCURVE",
"392 225 OFFCURVE",
"432 268 CURVE",
"451 271 OFFCURVE",
"472 273 OFFCURVE",
"494 275 CURVE"
);
},
{
closed = 1;
nodes = (
"280 24 OFFCURVE",
"251 1 OFFCURVE",
"209 -21 CURVE SMOOTH",
"168 -42 OFFCURVE",
"133 -53 OFFCURVE",
"104 -53 CURVE SMOOTH",
"81 -53 OFFCURVE",
"60 -47 OFFCURVE",
"41 -35 CURVE SMOOTH",
"19 -21 OFFCURVE",
"8 -3 OFFCURVE",
"8 19 CURVE SMOOTH",
"8 43 OFFCURVE",
"23 62 OFFCURVE",
"52 75 CURVE SMOOTH",
"75 85 OFFCURVE",
"100 90 OFFCURVE",
"128 90 CURVE SMOOTH",
"151 90 OFFCURVE",
"183 85 OFFCURVE",
"224 74 CURVE",
"163 14 OFFCURVE",
"115 -16 OFFCURVE",
"82 -16 CURVE SMOOTH",
"79 -16 OFFCURVE",
"78 -16 OFFCURVE",
"77 -16 CURVE",
"81 -21 OFFCURVE",
"88 -24 OFFCURVE",
"99 -24 CURVE SMOOTH",
"130 -24 OFFCURVE",
"178 7 OFFCURVE",
"241 69 CURVE",
"267 62 OFFCURVE",
"286 54 OFFCURVE",
"297 47 CURVE"
);
}
);
width = 819;
}
);
note = Zcaron;
unicode = 017D;
},
{
glyphname = zcaron;
layers = (
{
hints = (
{
horizontal = 1;
place = "{-385, 28}";
type = Stem;
},
{
horizontal = 1;
place = "{160, 32}";
type = Stem;
},
{
horizontal = 1;
place = "{327, -20}";
target = down;
type = TopGhost;
},
{
place = "{-305, 20}";
type = Stem;
},
{
place = "{190, 33}";
type = Stem;
},
{
place = "{224, 34}";
type = Stem;
},
{
place = "{328, 13}";
type = Stem;
}
);
layerId = "89156F97-8AE0-4F29-8E8C-D321EE696556";
paths = (
{
closed = 1;
nodes = (
"346 502 LINE",
"342 508 LINE",
"330 507 OFFCURVE",
"309 497 OFFCURVE",
"278 478 CURVE SMOOTH",
"247 459 OFFCURVE",
"227 444 OFFCURVE",
"217 433 CURVE",
"158 481 OFFCURVE",
"125 505 OFFCURVE",
"118 505 CURVE SMOOTH",
"114 505 OFFCURVE",
"112 502 OFFCURVE",
"112 496 CURVE SMOOTH",
"112 491 OFFCURVE",
"130 473 OFFCURVE",
"165 444 CURVE SMOOTH",
"200 415 OFFCURVE",
"221 400 OFFCURVE",
"228 399 CURVE",
"234 401 LINE",
"256 426 OFFCURVE",
"292 457 OFFCURVE",
"341 494 CURVE"
);
},
{
closed = 1;
nodes = (
"341 -30 OFFCURVE",
"328 -19 OFFCURVE",
"303 -10 CURVE SMOOTH",
"283 -3 OFFCURVE",
"264 0 OFFCURVE",
"247 1 CURVE",
"254 28 OFFCURVE",
"258 57 OFFCURVE",
"258 90 CURVE SMOOTH",
"258 158 OFFCURVE",
"239 192 OFFCURVE",
"200 192 CURVE SMOOTH",
"187 192 OFFCURVE",
"171 186 OFFCURVE",
"153 175 CURVE",
"200 226 OFFCURVE",
"223 267 OFFCURVE",
"223 297 CURVE SMOOTH",
"223 317 OFFCURVE",
"208 327 OFFCURVE",
"178 327 CURVE SMOOTH",
"141 327 OFFCURVE",
"100 288 OFFCURVE",
"54 210 CURVE SMOOTH",
"38 183 OFFCURVE",
"25 161 OFFCURVE",
"14 142 CURVE SMOOTH",
"12 139 OFFCURVE",
"11 136 OFFCURVE",
"11 134 CURVE SMOOTH",
"11 131 OFFCURVE",
"12 129 OFFCURVE",
"15 129 CURVE SMOOTH",
"17 129 OFFCURVE",
"20 131 OFFCURVE",
"22 135 CURVE SMOOTH",
"92 250 OFFCURVE",
"143 307 OFFCURVE",
"176 307 CURVE SMOOTH",
"185 307 OFFCURVE",
"190 302 OFFCURVE",
"190 292 CURVE SMOOTH",
"190 276 OFFCURVE",
"177 251 OFFCURVE",
"152 217 CURVE SMOOTH",
"132 190 OFFCURVE",
"113 167 OFFCURVE",
"94 150 CURVE SMOOTH",
"91 147 OFFCURVE",
"89 144 OFFCURVE",
"89 141 CURVE SMOOTH",
"89 135 OFFCURVE",
"92 132 OFFCURVE",
"99 132 CURVE",
"99 132 OFFCURVE",
"109 137 OFFCURVE",
"128 146 CURVE SMOOTH",
"147 155 OFFCURVE",
"162 160 OFFCURVE",
"175 160 CURVE SMOOTH",
"208 160 OFFCURVE",
"224 136 OFFCURVE",
"224 87 CURVE SMOOTH",
"224 61 OFFCURVE",
"219 32 OFFCURVE",
"210 1 CURVE",
"84 -2 OFFCURVE",
"-26 -31 OFFCURVE",
"-120 -86 CURVE SMOOTH",
"-166 -113 OFFCURVE",
"-206 -144 OFFCURVE",
"-240 -180 CURVE SMOOTH",
"-284 -227 OFFCURVE",
"-305 -272 OFFCURVE",
"-305 -313 CURVE SMOOTH",
"-305 -361 OFFCURVE",
"-276 -385 OFFCURVE",
"-219 -385 CURVE SMOOTH",
"-178 -385 OFFCURVE",
"-129 -371 OFFCURVE",
"-70 -344 CURVE SMOOTH",
"4 -309 OFFCURVE",
"68 -265 OFFCURVE",
"123 -211 CURVE SMOOTH",
"186 -150 OFFCURVE",
"226 -84 OFFCURVE",
"244 -14 CURVE",
"257 -14 OFFCURVE",
"273 -17 OFFCURVE",
"292 -24 CURVE SMOOTH",
"316 -32 OFFCURVE",
"328 -41 OFFCURVE",
"328 -50 CURVE SMOOTH",
"328 -51 OFFCURVE",
"328 -53 OFFCURVE",
"327 -55 CURVE SMOOTH",
"326 -56 OFFCURVE",
"326 -58 OFFCURVE",
"326 -59 CURVE SMOOTH",
"326 -62 OFFCURVE",
"327 -63 OFFCURVE",
"329 -63 CURVE SMOOTH",
"337 -63 OFFCURVE",
"341 -56 OFFCURVE",
"341 -43 CURVE SMOOTH"
);
},
{
closed = 1;
nodes = (
"181 -102 OFFCURVE",
"128 -179 OFFCURVE",
"48 -248 CURVE SMOOTH",
"-37 -321 OFFCURVE",
"-122 -357 OFFCURVE",
"-209 -357 CURVE SMOOTH",
"-260 -357 OFFCURVE",
"-285 -340 OFFCURVE",
"-285 -307 CURVE SMOOTH",
"-285 -275 OFFCURVE",
"-265 -239 OFFCURVE",
"-225 -197 CURVE SMOOTH",
"-194 -165 OFFCURVE",
"-161 -137 OFFCURVE",
"-124 -115 CURVE SMOOTH",
"-79 -87 OFFCURVE",
"-26 -64 OFFCURVE",
"35 -45 CURVE SMOOTH",
"96 -27 OFFCURVE",
"153 -17 OFFCURVE",
"207 -15 CURVE"
);
}
);
width = 279;
}
);
note = zcaron;
unicode = 017E;
},
{
glyphname = onehalf;
layers = (
{
hints = (
{
horizontal = 1;
place = "{-47, 31}";
type = Stem;
},
{
horizontal = 1;
place = "{37, 18}";
type = Stem;
},
{
horizontal = 1;
place = "{281, 32}";
type = Stem;
},
{
horizontal = 1;
place = "{337, 10}";
type = Stem;
},
{
place = "{179, 14}";
type = Stem;
},
{
place = "{335, 12}";
type = Stem;
},
{
place = "{560, 35}";
type = Stem;
}
);
layerId = "89156F97-8AE0-4F29-8E8C-D321EE696556";
paths = (
{
closed = 1;
nodes = (
"735 713 OFFCURVE",
"731 715 OFFCURVE",
"722 715 CURVE SMOOTH",
"705 715 OFFCURVE",
"688 709 OFFCURVE",
"669 696 CURVE",
"614 651 OFFCURVE",
"573 615 OFFCURVE",
"543 587 CURVE SMOOTH",
"438 489 OFFCURVE",
"338 388 OFFCURVE",
"245 283 CURVE SMOOTH",
"118 140 OFFCURVE",
"38 28 OFFCURVE",
"4 -55 CURVE SMOOTH",
"-5 -77 OFFCURVE",
"-9 -91 OFFCURVE",
"-9 -97 CURVE SMOOTH",
"-9 -100 OFFCURVE",
"-6 -105 OFFCURVE",
"-1 -110 CURVE SMOOTH",
"4 -115 OFFCURVE",
"7 -117 OFFCURVE",
"10 -117 CURVE SMOOTH",
"11 -117 OFFCURVE",
"11 -117 OFFCURVE",
"12 -116 CURVE",
"20 -85 OFFCURVE",
"29 -59 OFFCURVE",
"39 -37 CURVE SMOOTH",
"89 72 OFFCURVE",
"192 204 OFFCURVE",
"347 361 CURVE SMOOTH",
"460 476 OFFCURVE",
"588 590 OFFCURVE",
"730 704 CURVE SMOOTH",
"733 707 OFFCURVE",
"735 709 OFFCURVE",
"735 710 CURVE SMOOTH"
);
},
{
closed = 1;
nodes = (
"316 664 OFFCURVE",
"311 670 OFFCURVE",
"302 670 CURVE SMOOTH",
"295 670 OFFCURVE",
"279 658 OFFCURVE",
"253 635 CURVE SMOOTH",
"195 583 OFFCURVE",
"157 550 OFFCURVE",
"141 534 CURVE",
"137 531 OFFCURVE",
"135 528 OFFCURVE",
"135 525 CURVE SMOOTH",
"135 523 OFFCURVE",
"137 522 OFFCURVE",
"141 522 CURVE SMOOTH",
"145 522 OFFCURVE",
"163 535 OFFCURVE",
"194 562 CURVE SMOOTH",
"214 579 OFFCURVE",
"232 591 OFFCURVE",
"247 598 CURVE",
"246 596 OFFCURVE",
"245 593 OFFCURVE",
"242 590 CURVE",
"204 528 LINE SMOOTH",
"163 461 OFFCURVE",
"141 427 OFFCURVE",
"140 425 CURVE SMOOTH",
"113 382 OFFCURVE",
"101 343 OFFCURVE",
"98 313 CURVE",
"51 311 OFFCURVE",
"21 310 OFFCURVE",
"8 310 CURVE SMOOTH",
"5 310 OFFCURVE",
"4 307 OFFCURVE",
"4 300 CURVE SMOOTH",
"4 287 OFFCURVE",
"6 281 OFFCURVE",
"11 281 CURVE SMOOTH",
"28 281 OFFCURVE",
"58 284 OFFCURVE",
"100 291 CURVE",
"103 283 OFFCURVE",
"111 279 OFFCURVE",
"124 279 CURVE SMOOTH",
"127 279 OFFCURVE",
"128 282 OFFCURVE",
"128 288 CURVE SMOOTH",
"128 289 OFFCURVE",
"128 292 OFFCURVE",
"128 295 CURVE",
"155 299 OFFCURVE",
"177 301 OFFCURVE",
"194 301 CURVE SMOOTH",
"197 301 OFFCURVE",
"200 301 OFFCURVE",
"205 301 CURVE SMOOTH",
"210 300 OFFCURVE",
"213 300 OFFCURVE",
"215 300 CURVE SMOOTH",
"219 300 OFFCURVE",
"221 302 OFFCURVE",
"221 306 CURVE SMOOTH",
"221 309 OFFCURVE",
"219 310 OFFCURVE",
"216 311 CURVE SMOOTH",
"205 313 OFFCURVE",
"182 314 OFFCURVE",
"149 314 CURVE SMOOTH",
"128 314 LINE",
"128 315 LINE SMOOTH",
"145 404 OFFCURVE",
"190 494 OFFCURVE",
"265 586 CURVE SMOOTH",
"284 609 OFFCURVE",
"300 625 OFFCURVE",
"310 636 CURVE SMOOTH",
"314 640 OFFCURVE",
"316 646 OFFCURVE",
"316 653 CURVE SMOOTH"
);
},
{
closed = 1;
nodes = (
"612 35 OFFCURVE",
"603 52 OFFCURVE",
"585 68 CURVE SMOOTH",
"568 84 OFFCURVE",
"550 92 OFFCURVE",
"531 92 CURVE",
"528 91 OFFCURVE",
"526 90 OFFCURVE",
"526 89 CURVE SMOOTH",
"526 88 OFFCURVE",
"527 88 OFFCURVE",
"530 87 CURVE SMOOTH",
"547 82 OFFCURVE",
"562 74 OFFCURVE",
"577 63 CURVE SMOOTH",
"595 50 OFFCURVE",
"604 36 OFFCURVE",
"604 21 CURVE SMOOTH",
"604 8 OFFCURVE",
"595 -2 OFFCURVE",
"577 -9 CURVE SMOOTH",
"564 -14 OFFCURVE",
"549 -16 OFFCURVE",
"533 -16 CURVE SMOOTH",
"514 -16 OFFCURVE",
"483 -11 OFFCURVE",
"442 -1 CURVE SMOOTH",
"383 13 OFFCURVE",
"340 24 OFFCURVE",
"311 32 CURVE",
"376 61 OFFCURVE",
"434 94 OFFCURVE",
"484 131 CURVE SMOOTH",
"558 185 OFFCURVE",
"595 235 OFFCURVE",
"595 279 CURVE SMOOTH",
"595 302 OFFCURVE",
"585 320 OFFCURVE",
"566 332 CURVE SMOOTH",
"549 342 OFFCURVE",
"529 347 OFFCURVE",
"505 347 CURVE SMOOTH",
"470 347 OFFCURVE",
"435 338 OFFCURVE",
"399 320 CURVE SMOOTH",
"356 298 OFFCURVE",
"335 272 OFFCURVE",
"335 241 CURVE SMOOTH",
"335 236 OFFCURVE",
"337 229 OFFCURVE",
"339 221 CURVE SMOOTH",
"342 211 OFFCURVE",
"345 206 OFFCURVE",
"349 206 CURVE SMOOTH",
"350 206 OFFCURVE",
"350 207 OFFCURVE",
"350 210 CURVE SMOOTH",
"350 213 OFFCURVE",
"349 216 OFFCURVE",
"349 221 CURVE",
"347 225 OFFCURVE",
"347 228 OFFCURVE",
"347 231 CURVE SMOOTH",
"347 262 OFFCURVE",
"366 287 OFFCURVE",
"404 309 CURVE SMOOTH",
"436 327 OFFCURVE",
"469 337 OFFCURVE",
"503 337 CURVE SMOOTH",
"541 337 OFFCURVE",
"560 322 OFFCURVE",
"560 292 CURVE SMOOTH",
"560 250 OFFCURVE",
"529 203 OFFCURVE",
"465 153 CURVE SMOOTH",
"442 135 OFFCURVE",
"424 123 OFFCURVE",
"411 115 CURVE SMOOTH",
"364 85 OFFCURVE",
"323 60 OFFCURVE",
"288 42 CURVE",
"261 51 OFFCURVE",
"239 55 OFFCURVE",
"222 55 CURVE SMOOTH",
"193 55 OFFCURVE",
"179 45 OFFCURVE",
"179 25 CURVE SMOOTH",
"179 9 OFFCURVE",
"190 1 OFFCURVE",
"211 1 CURVE SMOOTH",
"230 1 OFFCURVE",
"256 8 OFFCURVE",
"290 22 CURVE",
"325 7 OFFCURVE",
"361 -7 OFFCURVE",
"397 -22 CURVE SMOOTH",
"438 -39 OFFCURVE",
"475 -47 OFFCURVE",
"510 -47 CURVE SMOOTH",
"536 -47 OFFCURVE",
"558 -43 OFFCURVE",
"576 -34 CURVE SMOOTH",
"600 -23 OFFCURVE",
"612 -6 OFFCURVE",
"612 17 CURVE SMOOTH"
);
},
{
closed = 1;
nodes = (
"254 26 OFFCURVE",
"246 22 OFFCURVE",
"238 17 CURVE SMOOTH",
"228 12 OFFCURVE",
"219 10 OFFCURVE",
"210 10 CURVE SMOOTH",
"199 10 OFFCURVE",
"193 14 OFFCURVE",
"193 21 CURVE SMOOTH",
"193 32 OFFCURVE",
"203 37 OFFCURVE",
"222 37 CURVE SMOOTH",
"228 37 OFFCURVE",
"242 35 OFFCURVE",
"263 30 CURVE"
);
}
);
width = 665;
}
);
note = onehalf;
unicode = 00BD;
},
{
glyphname = onequarter;
layers = (
{
hints = (
{
horizontal = 1;
place = "{-32, 31}";
type = Stem;
},
{
horizontal = 1;
place = "{84, 33}";
type = Stem;
},
{
horizontal = 1;
place = "{127, 12}";
type = Stem;
},
{
horizontal = 1;
place = "{294, 32}";
type = Stem;
},
{
place = "{179, 10}";
type = Stem;
}
);
layerId = "89156F97-8AE0-4F29-8E8C-D321EE696556";
paths = (
{
closed = 1;
nodes = (
"735 713 OFFCURVE",
"731 715 OFFCURVE",
"722 715 CURVE SMOOTH",
"705 715 OFFCURVE",
"688 709 OFFCURVE",
"669 696 CURVE",
"614 651 OFFCURVE",
"573 615 OFFCURVE",
"543 587 CURVE SMOOTH",
"438 489 OFFCURVE",
"338 388 OFFCURVE",
"245 283 CURVE SMOOTH",
"118 140 OFFCURVE",
"38 28 OFFCURVE",
"4 -55 CURVE SMOOTH",
"-5 -77 OFFCURVE",
"-9 -91 OFFCURVE",
"-9 -97 CURVE SMOOTH",
"-9 -100 OFFCURVE",
"-6 -105 OFFCURVE",
"-1 -110 CURVE SMOOTH",
"4 -115 OFFCURVE",
"7 -117 OFFCURVE",
"10 -117 CURVE SMOOTH",
"11 -117 OFFCURVE",
"11 -117 OFFCURVE",
"12 -116 CURVE",
"20 -85 OFFCURVE",
"29 -59 OFFCURVE",
"39 -37 CURVE SMOOTH",
"89 72 OFFCURVE",
"192 204 OFFCURVE",
"347 361 CURVE SMOOTH",
"460 476 OFFCURVE",
"588 590 OFFCURVE",
"730 704 CURVE SMOOTH",
"733 707 OFFCURVE",
"735 709 OFFCURVE",
"735 710 CURVE SMOOTH"
);
},
{
closed = 1;
nodes = (
"326 677 OFFCURVE",
"321 683 OFFCURVE",
"312 683 CURVE SMOOTH",
"305 683 OFFCURVE",
"289 671 OFFCURVE",
"263 648 CURVE SMOOTH",
"205 596 OFFCURVE",
"167 563 OFFCURVE",
"151 548 CURVE SMOOTH",
"147 544 OFFCURVE",
"145 541 OFFCURVE",
"145 538 CURVE SMOOTH",
"145 536 OFFCURVE",
"147 535 OFFCURVE",
"151 535 CURVE SMOOTH",
"155 535 OFFCURVE",
"173 548 OFFCURVE",
"204 575 CURVE SMOOTH",
"224 593 OFFCURVE",
"242 605 OFFCURVE",
"257 611 CURVE",
"256 609 OFFCURVE",
"254 606 OFFCURVE",
"252 603 CURVE SMOOTH",
"214 541 LINE SMOOTH",
"173 474 OFFCURVE",
"150 440 OFFCURVE",
"149 438 CURVE SMOOTH",
"125 394 OFFCURVE",
"111 357 OFFCURVE",
"108 326 CURVE",
"61 325 OFFCURVE",
"31 324 OFFCURVE",
"18 324 CURVE SMOOTH",
"15 324 OFFCURVE",
"14 320 OFFCURVE",
"14 313 CURVE SMOOTH",
"14 300 OFFCURVE",
"16 294 OFFCURVE",
"21 294 CURVE SMOOTH",
"38 294 OFFCURVE",
"68 297 OFFCURVE",
"110 304 CURVE",
"113 296 OFFCURVE",
"121 292 OFFCURVE",
"133 292 CURVE SMOOTH",
"136 292 OFFCURVE",
"138 295 OFFCURVE",
"138 301 CURVE SMOOTH",
"138 303 OFFCURVE",
"138 306 OFFCURVE",
"138 309 CURVE",
"165 313 OFFCURVE",
"187 315 OFFCURVE",
"204 315 CURVE SMOOTH",
"207 315 OFFCURVE",
"210 315 OFFCURVE",
"215 314 CURVE SMOOTH",
"220 314 OFFCURVE",
"223 314 OFFCURVE",
"225 314 CURVE SMOOTH",
"229 314 OFFCURVE",
"231 316 OFFCURVE",
"231 319 CURVE SMOOTH",
"231 322 OFFCURVE",
"229 323 OFFCURVE",
"226 324 CURVE SMOOTH",
"215 326 OFFCURVE",
"192 327 OFFCURVE",
"159 327 CURVE SMOOTH",
"138 327 LINE",
"138 328 LINE SMOOTH",
"155 417 OFFCURVE",
"199 508 OFFCURVE",
"274 599 CURVE SMOOTH",
"293 622 OFFCURVE",
"309 639 OFFCURVE",
"320 650 CURVE SMOOTH",
"324 654 OFFCURVE",
"326 659 OFFCURVE",
"326 666 CURVE SMOOTH"
);
},
{
closed = 1;
nodes = (
"643 175 OFFCURVE",
"634 192 OFFCURVE",
"615 205 CURVE SMOOTH",
"596 218 OFFCURVE",
"577 225 OFFCURVE",
"556 225 CURVE SMOOTH",
"551 225 OFFCURVE",
"549 224 OFFCURVE",
"549 222 CURVE SMOOTH",
"549 221 OFFCURVE",
"550 221 OFFCURVE",
"553 220 CURVE",
"562 219 OFFCURVE",
"570 217 OFFCURVE",
"576 215 CURVE SMOOTH",
"615 202 OFFCURVE",
"634 183 OFFCURVE",
"634 160 CURVE SMOOTH",
"634 142 OFFCURVE",
"616 129 OFFCURVE",
"579 120 CURVE SMOOTH",
"571 118 OFFCURVE",
"559 117 OFFCURVE",
"543 117 CURVE SMOOTH",
"520 117 OFFCURVE",
"490 119 OFFCURVE",
"453 124 CURVE",
"476 167 OFFCURVE",
"494 199 OFFCURVE",
"505 220 CURVE SMOOTH",
"514 237 OFFCURVE",
"522 252 OFFCURVE",
"528 263 CURVE",
"533 268 OFFCURVE",
"537 272 OFFCURVE",
"539 274 CURVE",
"541 275 OFFCURVE",
"551 296 OFFCURVE",
"569 335 CURVE SMOOTH",
"586 374 OFFCURVE",
"595 394 OFFCURVE",
"595 395 CURVE SMOOTH",
"595 399 OFFCURVE",
"591 401 OFFCURVE",
"582 401 CURVE SMOOTH",
"570 401 OFFCURVE",
"560 397 OFFCURVE",
"553 389 CURVE SMOOTH",
"534 368 OFFCURVE",
"519 352 OFFCURVE",
"510 342 CURVE SMOOTH",
"416 239 OFFCURVE",
"339 176 OFFCURVE",
"279 155 CURVE",
"254 160 OFFCURVE",
"234 163 OFFCURVE",
"219 163 CURVE SMOOTH",
"192 163 OFFCURVE",
"179 157 OFFCURVE",
"179 146 CURVE SMOOTH",
"179 133 OFFCURVE",
"189 127 OFFCURVE",
"208 127 CURVE SMOOTH",
"220 127 OFFCURVE",
"240 130 OFFCURVE",
"267 137 CURVE",
"327 120 OFFCURVE",
"376 108 OFFCURVE",
"414 99 CURVE",
"399 58 OFFCURVE",
"389 24 OFFCURVE",
"385 -1 CURVE",
"348 -2 OFFCURVE",
"322 -3 OFFCURVE",
"307 -3 CURVE SMOOTH",
"304 -3 OFFCURVE",
"303 -6 OFFCURVE",
"303 -13 CURVE SMOOTH",
"303 -26 OFFCURVE",
"305 -32 OFFCURVE",
"310 -32 CURVE SMOOTH",
"331 -32 OFFCURVE",
"361 -29 OFFCURVE",
"402 -22 CURVE SMOOTH",
"442 -15 OFFCURVE",
"472 -12 OFFCURVE",
"493 -12 CURVE SMOOTH",
"496 -12 OFFCURVE",
"499 -12 OFFCURVE",
"503 -12 CURVE SMOOTH",
"508 -13 OFFCURVE",
"511 -13 OFFCURVE",
"514 -13 CURVE SMOOTH",
"518 -13 OFFCURVE",
"520 -11 OFFCURVE",
"520 -8 CURVE SMOOTH",
"520 -5 OFFCURVE",
"518 -3 OFFCURVE",
"515 -2 CURVE SMOOTH",
"504 0 OFFCURVE",
"482 1 OFFCURVE",
"448 1 CURVE SMOOTH",
"436 1 OFFCURVE",
"422 1 OFFCURVE",
"405 0 CURVE",
"409 24 OFFCURVE",
"420 55 OFFCURVE",
"439 94 CURVE",
"476 87 OFFCURVE",
"507 84 OFFCURVE",
"530 84 CURVE SMOOTH",
"557 84 OFFCURVE",
"581 89 OFFCURVE",
"602 99 CURVE SMOOTH",
"629 112 OFFCURVE",
"643 131 OFFCURVE",
"643 155 CURVE SMOOTH"
);
},
{
closed = 1;
nodes = (
"469 227 OFFCURVE",
"445 174 OFFCURVE",
"426 127 CURVE",
"375 134 OFFCURVE",
"331 142 OFFCURVE",
"296 150 CURVE",
"357 175 OFFCURVE",
"425 221 OFFCURVE",
"500 288 CURVE"
);
},
{
closed = 1;
nodes = (
"237 141 OFFCURVE",
"226 139 OFFCURVE",
"218 139 CURVE SMOOTH",
"199 139 OFFCURVE",
"189 141 OFFCURVE",
"189 145 CURVE SMOOTH",
"189 152 OFFCURVE",
"197 155 OFFCURVE",
"212 155 CURVE SMOOTH",
"223 155 OFFCURVE",
"236 152 OFFCURVE",
"251 145 CURVE"
);
}
);
width = 731;
}
);
note = onequarter;
unicode = 00BC;
},
{
glyphname = onesuperior;
layers = (
{
hints = (
{
horizontal = 1;
place = "{281, 32}";
type = Stem;
}
);
layerId = "89156F97-8AE0-4F29-8E8C-D321EE696556";
paths = (
{
closed = 1;
nodes = (
"323 664 OFFCURVE",
"318 670 OFFCURVE",
"309 670 CURVE SMOOTH",
"302 670 OFFCURVE",
"286 658 OFFCURVE",
"260 635 CURVE SMOOTH",
"201 583 OFFCURVE",
"163 550 OFFCURVE",
"147 534 CURVE SMOOTH",
"144 531 OFFCURVE",
"142 528 OFFCURVE",
"142 525 CURVE SMOOTH",
"142 523 OFFCURVE",
"144 522 OFFCURVE",
"148 522 CURVE SMOOTH",
"151 522 OFFCURVE",
"169 535 OFFCURVE",
"201 562 CURVE SMOOTH",
"221 579 OFFCURVE",
"239 591 OFFCURVE",
"254 598 CURVE",
"253 596 OFFCURVE",
"251 593 OFFCURVE",
"249 590 CURVE SMOOTH",
"211 528 LINE SMOOTH",
"170 461 OFFCURVE",
"147 427 OFFCURVE",
"146 425 CURVE SMOOTH",
"121 380 OFFCURVE",
"108 343 OFFCURVE",
"105 313 CURVE",
"58 311 OFFCURVE",
"28 310 OFFCURVE",
"15 310 CURVE SMOOTH",
"12 310 OFFCURVE",
"11 307 OFFCURVE",
"11 300 CURVE SMOOTH",
"11 287 OFFCURVE",
"13 281 OFFCURVE",
"18 281 CURVE SMOOTH",
"35 281 OFFCURVE",
"65 284 OFFCURVE",
"106 291 CURVE",
"110 283 OFFCURVE",
"118 279 OFFCURVE",
"130 279 CURVE SMOOTH",
"133 279 OFFCURVE",
"135 282 OFFCURVE",
"135 288 CURVE SMOOTH",
"135 289 OFFCURVE",
"135 292 OFFCURVE",
"134 295 CURVE",
"161 299 OFFCURVE",
"184 301 OFFCURVE",
"201 301 CURVE SMOOTH",
"203 301 OFFCURVE",
"206 301 OFFCURVE",
"211 301 CURVE SMOOTH",
"216 300 OFFCURVE",
"219 300 OFFCURVE",
"222 300 CURVE SMOOTH",
"225 300 OFFCURVE",
"227 302 OFFCURVE",
"227 306 CURVE SMOOTH",
"227 309 OFFCURVE",
"226 311 OFFCURVE",
"223 311 CURVE SMOOTH",
"211 313 OFFCURVE",
"189 314 OFFCURVE",
"156 314 CURVE SMOOTH",
"135 314 LINE",
"135 315 LINE SMOOTH",
"152 404 OFFCURVE",
"196 495 OFFCURVE",
"271 586 CURVE SMOOTH",
"290 609 OFFCURVE",
"306 625 OFFCURVE",
"316 636 CURVE SMOOTH",
"321 641 OFFCURVE",
"323 646 OFFCURVE",
"323 653 CURVE SMOOTH"
);
}
);
width = 321;
}
);
note = onesuperior;
unicode = 00B9;
},
{
glyphname = threequarters;
layers = (
{
hints = (
{
horizontal = 1;
place = "{-32, 31}";
type = Stem;
},
{
horizontal = 1;
place = "{84, 33}";
type = Stem;
},
{
horizontal = 1;
place = "{127, 12}";
type = Stem;
},
{
horizontal = 1;
place = "{487, 12}";
type = Stem;
},
{
horizontal = 1;
place = "{696, 13}";
type = Stem;
},
{
place = "{12, 22}";
type = Stem;
},
{
place = "{166, 19}";
type = Stem;
},
{
place = "{228, 10}";
type = Stem;
},
{
place = "{376, 16}";
type = Stem;
}
);
layerId = "89156F97-8AE0-4F29-8E8C-D321EE696556";
paths = (
{
closed = 1;
nodes = (
"786 727 OFFCURVE",
"782 729 OFFCURVE",
"774 729 CURVE SMOOTH",
"757 729 OFFCURVE",
"738 723 OFFCURVE",
"720 709 CURVE SMOOTH",
"665 665 OFFCURVE",
"624 628 OFFCURVE",
"594 600 CURVE SMOOTH",
"489 503 OFFCURVE",
"390 402 OFFCURVE",
"296 296 CURVE SMOOTH",
"170 154 OFFCURVE",
"90 41 OFFCURVE",
"56 -42 CURVE SMOOTH",
"47 -64 OFFCURVE",
"42 -78 OFFCURVE",
"42 -84 CURVE SMOOTH",
"42 -87 OFFCURVE",
"45 -91 OFFCURVE",
"50 -96 CURVE SMOOTH",
"55 -101 OFFCURVE",
"59 -104 OFFCURVE",
"62 -104 CURVE SMOOTH",
"63 -104 OFFCURVE",
"63 -104 OFFCURVE",
"63 -103 CURVE",
"72 -72 OFFCURVE",
"81 -46 OFFCURVE",
"91 -23 CURVE SMOOTH",
"141 86 OFFCURVE",
"243 218 OFFCURVE",
"398 374 CURVE SMOOTH",
"511 489 OFFCURVE",
"639 603 OFFCURVE",
"781 717 CURVE SMOOTH",
"784 720 OFFCURVE",
"786 722 OFFCURVE",
"786 724 CURVE SMOOTH"
);
},
{
closed = 1;
nodes = (
"392 674 OFFCURVE",
"378 688 OFFCURVE",
"350 698 CURVE SMOOTH",
"329 705 OFFCURVE",
"307 709 OFFCURVE",
"284 709 CURVE SMOOTH",
"261 709 OFFCURVE",
"238 705 OFFCURVE",
"214 698 CURVE SMOOTH",
"182 688 OFFCURVE",
"166 674 OFFCURVE",
"166 657 CURVE SMOOTH",
"166 646 OFFCURVE",
"170 640 OFFCURVE",
"177 640 CURVE SMOOTH",
"182 640 OFFCURVE",
"185 643 OFFCURVE",
"185 650 CURVE SMOOTH",
"185 666 OFFCURVE",
"198 679 OFFCURVE",
"223 687 CURVE SMOOTH",
"242 693 OFFCURVE",
"261 696 OFFCURVE",
"282 696 CURVE SMOOTH",
"301 696 OFFCURVE",
"320 694 OFFCURVE",
"337 690 CURVE SMOOTH",
"363 684 OFFCURVE",
"376 675 OFFCURVE",
"376 663 CURVE SMOOTH",
"376 646 OFFCURVE",
"360 630 OFFCURVE",
"328 615 CURVE SMOOTH",
"305 604 OFFCURVE",
"281 596 OFFCURVE",
"257 592 CURVE SMOOTH",
"239 589 OFFCURVE",
"226 587 OFFCURVE",
"217 585 CURVE SMOOTH",
"209 584 OFFCURVE",
"205 580 OFFCURVE",
"205 574 CURVE SMOOTH",
"205 569 OFFCURVE",
"208 566 OFFCURVE",
"213 566 CURVE SMOOTH",
"305 566 OFFCURVE",
"351 544 OFFCURVE",
"351 499 CURVE SMOOTH",
"351 460 OFFCURVE",
"325 429 OFFCURVE",
"271 405 CURVE SMOOTH",
"228 386 OFFCURVE",
"184 377 OFFCURVE",
"139 377 CURVE SMOOTH",
"112 377 OFFCURVE",
"89 383 OFFCURVE",
"70 393 CURVE SMOOTH",
"46 406 OFFCURVE",
"34 424 OFFCURVE",
"34 448 CURVE SMOOTH",
"34 474 OFFCURVE",
"56 487 OFFCURVE",
"100 487 CURVE SMOOTH",
"106 487 OFFCURVE",
"109 488 OFFCURVE",
"109 491 CURVE SMOOTH",
"109 496 OFFCURVE",
"100 499 OFFCURVE",
"83 499 CURVE SMOOTH",
"66 499 OFFCURVE",
"50 494 OFFCURVE",
"36 485 CURVE SMOOTH",
"20 475 OFFCURVE",
"12 462 OFFCURVE",
"12 445 CURVE SMOOTH",
"12 417 OFFCURVE",
"30 397 OFFCURVE",
"65 384 CURVE SMOOTH",
"90 375 OFFCURVE",
"119 370 OFFCURVE",
"153 370 CURVE SMOOTH",
"204 370 OFFCURVE",
"252 379 OFFCURVE",
"297 398 CURVE SMOOTH",
"355 422 OFFCURVE",
"384 456 OFFCURVE",
"384 499 CURVE SMOOTH",
"384 540 OFFCURVE",
"351 566 OFFCURVE",
"284 579 CURVE",
"356 592 OFFCURVE",
"392 618 OFFCURVE",
"392 655 CURVE SMOOTH"
);
},
{
closed = 1;
nodes = (
"692 175 OFFCURVE",
"683 192 OFFCURVE",
"664 205 CURVE SMOOTH",
"645 218 OFFCURVE",
"626 225 OFFCURVE",
"605 225 CURVE SMOOTH",
"600 225 OFFCURVE",
"598 224 OFFCURVE",
"598 222 CURVE SMOOTH",
"598 221 OFFCURVE",
"599 221 OFFCURVE",
"601 220 CURVE",
"611 219 OFFCURVE",
"619 217 OFFCURVE",
"625 215 CURVE SMOOTH",
"664 202 OFFCURVE",
"683 183 OFFCURVE",
"683 160 CURVE SMOOTH",
"683 142 OFFCURVE",
"665 129 OFFCURVE",
"628 120 CURVE SMOOTH",
"620 118 OFFCURVE",
"608 117 OFFCURVE",
"592 117 CURVE SMOOTH",
"569 117 OFFCURVE",
"539 119 OFFCURVE",
"502 124 CURVE",
"525 167 OFFCURVE",
"542 199 OFFCURVE",
"554 220 CURVE SMOOTH",
"564 237 OFFCURVE",
"571 252 OFFCURVE",
"577 263 CURVE",
"582 268 OFFCURVE",
"586 272 OFFCURVE",
"588 274 CURVE",
"590 275 OFFCURVE",
"600 296 OFFCURVE",
"618 335 CURVE SMOOTH",
"635 374 OFFCURVE",
"644 394 OFFCURVE",
"644 395 CURVE SMOOTH",
"644 399 OFFCURVE",
"639 401 OFFCURVE",
"630 401 CURVE SMOOTH",
"619 401 OFFCURVE",
"609 397 OFFCURVE",
"602 389 CURVE SMOOTH",
"583 368 OFFCURVE",
"568 352 OFFCURVE",
"558 342 CURVE SMOOTH",
"464 239 OFFCURVE",
"388 176 OFFCURVE",
"328 155 CURVE",
"303 160 OFFCURVE",
"283 163 OFFCURVE",
"268 163 CURVE SMOOTH",
"241 163 OFFCURVE",
"228 157 OFFCURVE",
"228 146 CURVE SMOOTH",
"228 133 OFFCURVE",
"238 127 OFFCURVE",
"257 127 CURVE SMOOTH",
"269 127 OFFCURVE",
"289 130 OFFCURVE",
"316 137 CURVE",
"376 120 OFFCURVE",
"425 108 OFFCURVE",
"463 99 CURVE",
"448 58 OFFCURVE",
"438 24 OFFCURVE",
"434 -1 CURVE",
"397 -2 OFFCURVE",
"371 -3 OFFCURVE",
"356 -3 CURVE SMOOTH",
"353 -3 OFFCURVE",
"352 -6 OFFCURVE",
"352 -13 CURVE SMOOTH",
"352 -26 OFFCURVE",
"354 -32 OFFCURVE",
"359 -32 CURVE SMOOTH",
"379 -32 OFFCURVE",
"409 -29 OFFCURVE",
"450 -22 CURVE SMOOTH",
"491 -15 OFFCURVE",
"521 -12 OFFCURVE",
"542 -12 CURVE SMOOTH",
"544 -12 OFFCURVE",
"547 -12 OFFCURVE",
"552 -12 CURVE SMOOTH",
"557 -13 OFFCURVE",
"560 -13 OFFCURVE",
"563 -13 CURVE SMOOTH",
"566 -13 OFFCURVE",
"568 -11 OFFCURVE",
"568 -8 CURVE SMOOTH",
"568 -5 OFFCURVE",
"567 -3 OFFCURVE",
"564 -2 CURVE SMOOTH",
"553 0 OFFCURVE",
"531 1 OFFCURVE",
"497 1 CURVE SMOOTH",
"485 1 OFFCURVE",
"471 1 OFFCURVE",
"454 0 CURVE",
"458 24 OFFCURVE",
"469 55 OFFCURVE",
"488 94 CURVE",
"525 87 OFFCURVE",
"556 84 OFFCURVE",
"579 84 CURVE SMOOTH",
"606 84 OFFCURVE",
"630 89 OFFCURVE",
"651 99 CURVE SMOOTH",
"678 112 OFFCURVE",
"692 131 OFFCURVE",
"692 155 CURVE SMOOTH"
);
},
{
closed = 1;
nodes = (
"518 227 OFFCURVE",
"493 174 OFFCURVE",
"474 127 CURVE",
"423 134 OFFCURVE",
"380 142 OFFCURVE",
"345 150 CURVE",
"406 175 OFFCURVE",
"474 221 OFFCURVE",
"549 288 CURVE"
);
},
{
closed = 1;
nodes = (
"286 141 OFFCURVE",
"275 139 OFFCURVE",
"267 139 CURVE SMOOTH",
"248 139 OFFCURVE",
"238 141 OFFCURVE",
"238 145 CURVE SMOOTH",
"238 152 OFFCURVE",
"246 155 OFFCURVE",
"261 155 CURVE SMOOTH",
"272 155 OFFCURVE",
"285 152 OFFCURVE",
"300 145 CURVE"
);
}
);
width = 750;
}
);
note = threequarters;
unicode = 00BE;
},
{
glyphname = threesuperior;
layers = (
{
hints = (
{
horizontal = 1;
place = "{487, 12}";
type = Stem;
},
{
horizontal = 1;
place = "{696, 13}";
type = Stem;
},
{
place = "{12, 22}";
type = Stem;
},
{
place = "{166, 19}";
type = Stem;
},
{
place = "{376, 16}";
type = Stem;
}
);
layerId = "89156F97-8AE0-4F29-8E8C-D321EE696556";
paths = (
{
closed = 1;
nodes = (
"392 674 OFFCURVE",
"378 688 OFFCURVE",
"350 698 CURVE SMOOTH",
"329 705 OFFCURVE",
"307 709 OFFCURVE",
"284 709 CURVE SMOOTH",
"261 709 OFFCURVE",
"238 705 OFFCURVE",
"214 698 CURVE SMOOTH",
"182 688 OFFCURVE",
"166 674 OFFCURVE",
"166 657 CURVE SMOOTH",
"166 646 OFFCURVE",
"170 640 OFFCURVE",
"177 640 CURVE SMOOTH",
"182 640 OFFCURVE",
"185 643 OFFCURVE",
"185 650 CURVE SMOOTH",
"185 666 OFFCURVE",
"198 679 OFFCURVE",
"223 687 CURVE SMOOTH",
"242 693 OFFCURVE",
"261 696 OFFCURVE",
"282 696 CURVE SMOOTH",
"301 696 OFFCURVE",
"320 694 OFFCURVE",
"337 690 CURVE SMOOTH",
"363 684 OFFCURVE",
"376 675 OFFCURVE",
"376 663 CURVE SMOOTH",
"376 646 OFFCURVE",
"360 630 OFFCURVE",
"328 615 CURVE SMOOTH",
"305 604 OFFCURVE",
"281 596 OFFCURVE",
"257 592 CURVE SMOOTH",
"239 589 OFFCURVE",
"226 587 OFFCURVE",
"217 585 CURVE SMOOTH",
"209 584 OFFCURVE",
"205 580 OFFCURVE",
"205 574 CURVE SMOOTH",
"205 569 OFFCURVE",
"208 566 OFFCURVE",
"213 566 CURVE SMOOTH",
"305 566 OFFCURVE",
"351 544 OFFCURVE",
"351 499 CURVE SMOOTH",
"351 460 OFFCURVE",
"325 429 OFFCURVE",
"271 405 CURVE SMOOTH",
"228 386 OFFCURVE",
"184 377 OFFCURVE",
"139 377 CURVE SMOOTH",
"112 377 OFFCURVE",
"89 383 OFFCURVE",
"70 393 CURVE SMOOTH",
"46 406 OFFCURVE",
"34 424 OFFCURVE",
"34 448 CURVE SMOOTH",
"34 474 OFFCURVE",
"56 487 OFFCURVE",
"100 487 CURVE SMOOTH",
"106 487 OFFCURVE",
"109 488 OFFCURVE",
"109 491 CURVE SMOOTH",
"109 496 OFFCURVE",
"100 499 OFFCURVE",
"83 499 CURVE SMOOTH",
"66 499 OFFCURVE",
"50 494 OFFCURVE",
"36 485 CURVE SMOOTH",
"20 475 OFFCURVE",
"12 462 OFFCURVE",
"12 445 CURVE SMOOTH",
"12 417 OFFCURVE",
"30 397 OFFCURVE",
"65 384 CURVE SMOOTH",
"90 375 OFFCURVE",
"119 370 OFFCURVE",
"153 370 CURVE SMOOTH",
"204 370 OFFCURVE",
"252 379 OFFCURVE",
"297 398 CURVE SMOOTH",
"355 422 OFFCURVE",
"384 456 OFFCURVE",
"384 499 CURVE SMOOTH",
"384 540 OFFCURVE",
"351 566 OFFCURVE",
"284 579 CURVE",
"356 592 OFFCURVE",
"392 618 OFFCURVE",
"392 655 CURVE SMOOTH"
);
}
);
width = 422;
}
);
note = threesuperior;
unicode = 00B3;
},
{
glyphname = twosuperior;
layers = (
{
hints = (
{
horizontal = 1;
place = "{381, 25}";
type = Stem;
},
{
horizontal = 1;
place = "{450, 15}";
type = Stem;
},
{
place = "{35, 11}";
type = Stem;
},
{
place = "{163, 10}";
type = Stem;
},
{
place = "{347, 29}";
type = Stem;
}
);
layerId = "89156F97-8AE0-4F29-8E8C-D321EE696556";
paths = (
{
closed = 1;
nodes = (
"390 449 OFFCURVE",
"383 463 OFFCURVE",
"368 476 CURVE SMOOTH",
"353 489 OFFCURVE",
"339 495 OFFCURVE",
"324 495 CURVE SMOOTH",
"321 495 OFFCURVE",
"320 494 OFFCURVE",
"320 493 CURVE",
"321 492 OFFCURVE",
"322 491 OFFCURVE",
"323 491 CURVE",
"336 487 OFFCURVE",
"349 481 OFFCURVE",
"361 472 CURVE SMOOTH",
"376 461 OFFCURVE",
"383 449 OFFCURVE",
"383 437 CURVE SMOOTH",
"383 416 OFFCURVE",
"364 406 OFFCURVE",
"326 406 CURVE SMOOTH",
"309 406 OFFCURVE",
"284 410 OFFCURVE",
"251 418 CURVE SMOOTH",
"203 430 OFFCURVE",
"167 439 OFFCURVE",
"143 445 CURVE",
"196 470 OFFCURVE",
"244 497 OFFCURVE",
"285 527 CURVE SMOOTH",
"346 571 OFFCURVE",
"376 612 OFFCURVE",
"376 649 CURVE SMOOTH",
"376 668 OFFCURVE",
"368 682 OFFCURVE",
"352 692 CURVE SMOOTH",
"339 701 OFFCURVE",
"322 705 OFFCURVE",
"302 705 CURVE SMOOTH",
"274 705 OFFCURVE",
"245 697 OFFCURVE",
"215 682 CURVE SMOOTH",
"180 664 OFFCURVE",
"163 642 OFFCURVE",
"163 617 CURVE SMOOTH",
"163 598 OFFCURVE",
"167 589 OFFCURVE",
"174 589 CURVE SMOOTH",
"175 589 OFFCURVE",
"175 590 OFFCURVE",
"175 592 CURVE SMOOTH",
"175 594 OFFCURVE",
"175 597 OFFCURVE",
"174 601 CURVE SMOOTH",
"173 604 OFFCURVE",
"173 607 OFFCURVE",
"173 609 CURVE SMOOTH",
"173 634 OFFCURVE",
"188 656 OFFCURVE",
"219 673 CURVE SMOOTH",
"246 688 OFFCURVE",
"273 696 OFFCURVE",
"300 696 CURVE SMOOTH",
"331 696 OFFCURVE",
"347 684 OFFCURVE",
"347 659 CURVE SMOOTH",
"347 625 OFFCURVE",
"322 586 OFFCURVE",
"269 545 CURVE SMOOTH",
"250 530 OFFCURVE",
"235 521 OFFCURVE",
"225 514 CURVE SMOOTH",
"187 489 OFFCURVE",
"153 469 OFFCURVE",
"124 454 CURVE",
"101 461 OFFCURVE",
"83 465 OFFCURVE",
"70 465 CURVE SMOOTH",
"47 465 OFFCURVE",
"35 457 OFFCURVE",
"35 440 CURVE SMOOTH",
"35 427 OFFCURVE",
"44 420 OFFCURVE",
"61 420 CURVE SMOOTH",
"76 420 OFFCURVE",
"98 426 OFFCURVE",
"126 438 CURVE",
"155 426 OFFCURVE",
"184 413 OFFCURVE",
"213 401 CURVE SMOOTH",
"247 387 OFFCURVE",
"278 381 OFFCURVE",
"306 381 CURVE SMOOTH",
"362 381 OFFCURVE",
"390 399 OFFCURVE",
"390 434 CURVE SMOOTH"
);
},
{
closed = 1;
nodes = (
"78 433 OFFCURVE",
"64 427 OFFCURVE",
"60 427 CURVE SMOOTH",
"51 427 OFFCURVE",
"46 430 OFFCURVE",
"46 437 CURVE SMOOTH",
"46 446 OFFCURVE",
"54 450 OFFCURVE",
"70 450 CURVE SMOOTH",
"75 450 OFFCURVE",
"86 448 OFFCURVE",
"103 444 CURVE"
);
}
);
width = 422;
}
);
note = twosuperior;
unicode = 00B2;
},
{
glyphname = brokenbar;
layers = (
{
hints = (
{
horizontal = 1;
place = "{237, 246}";
type = Stem;
},
{
place = "{94, 29}";
type = Stem;
}
);
layerId = "89156F97-8AE0-4F29-8E8C-D321EE696556";
paths = (
{
closed = 1;
nodes = (
"123 462 OFFCURVE",
"113 483 OFFCURVE",
"94 483 CURVE SMOOTH",
"86 483 OFFCURVE",
"82 480 OFFCURVE",
"82 475 CURVE SMOOTH",
"82 471 OFFCURVE",
"83 465 OFFCURVE",
"86 456 CURVE SMOOTH",
"88 447 OFFCURVE",
"89 442 OFFCURVE",
"89 439 CURVE",
"93 417 OFFCURVE",
"94 387 OFFCURVE",
"94 348 CURVE SMOOTH",
"94 336 OFFCURVE",
"93 318 OFFCURVE",
"92 295 CURVE SMOOTH",
"91 272 OFFCURVE",
"90 254 OFFCURVE",
"90 243 CURVE SMOOTH",
"90 239 OFFCURVE",
"93 237 OFFCURVE",
"99 237 CURVE SMOOTH",
"105 237 OFFCURVE",
"110 239 OFFCURVE",
"112 243 CURVE SMOOTH",
"120 256 OFFCURVE",
"123 315 OFFCURVE",
"123 419 CURVE SMOOTH"
);
},
{
closed = 1;
nodes = (
"105 196 OFFCURVE",
"102 197 OFFCURVE",
"96 197 CURVE SMOOTH",
"91 197 OFFCURVE",
"87 196 OFFCURVE",
"86 193 CURVE",
"83 174 OFFCURVE",
"82 157 OFFCURVE",
"81 142 CURVE SMOOTH",
"78 109 OFFCURVE",
"72 77 OFFCURVE",
"66 45 CURVE SMOOTH",
"58 5 OFFCURVE",
"50 -25 OFFCURVE",
"45 -46 CURVE",
"47 -47 LINE",
"53 -46 OFFCURVE",
"59 -41 OFFCURVE",
"64 -34 CURVE SMOOTH",
"67 -29 OFFCURVE",
"75 7 OFFCURVE",
"87 74 CURVE SMOOTH",
"99 141 OFFCURVE",
"105 181 OFFCURVE",
"105 193 CURVE SMOOTH"
);
}
);
width = 166;
}
);
note = brokenbar;
unicode = 00A6;
},
{
glyphname = minus;
layers = (
{
hints = (
{
horizontal = 1;
place = "{101, 38}";
type = Stem;
},
{
place = "{19, 199}";
type = Stem;
}
);
layerId = "89156F97-8AE0-4F29-8E8C-D321EE696556";
paths = (
{
closed = 1;
nodes = (
"218 125 OFFCURVE",
"209 129 OFFCURVE",
"192 131 CURVE SMOOTH",
"153 137 OFFCURVE",
"122 139 OFFCURVE",
"99 139 CURVE SMOOTH",
"80 139 OFFCURVE",
"65 137 OFFCURVE",
"54 133 CURVE SMOOTH",
"31 125 OFFCURVE",
"19 117 OFFCURVE",
"19 108 CURVE SMOOTH",
"19 103 OFFCURVE",
"26 101 OFFCURVE",
"39 101 CURVE SMOOTH",
"44 101 LINE SMOOTH",
"87 101 OFFCURVE",
"118 108 OFFCURVE",
"138 110 CURVE SMOOTH",
"162 112 OFFCURVE",
"180 112 OFFCURVE",
"192 113 CURVE SMOOTH",
"209 114 OFFCURVE",
"218 116 OFFCURVE",
"218 121 CURVE SMOOTH"
);
}
);
width = 228;
}
);
note = minus;
unicode = 2212;
},
{
glyphname = multiply;
layers = (
{
hints = (
{
horizontal = 1;
place = "{57, 23}";
type = Stem;
}
);
layerId = "89156F97-8AE0-4F29-8E8C-D321EE696556";
paths = (
{
closed = 1;
nodes = (
"248 87 LINE",
"245 87 OFFCURVE",
"242 86 OFFCURVE",
"237 83 CURVE SMOOTH",
"232 81 OFFCURVE",
"228 80 OFFCURVE",
"225 80 CURVE SMOOTH",
"210 80 OFFCURVE",
"195 90 OFFCURVE",
"178 109 CURVE SMOOTH",
"163 126 OFFCURVE",
"154 143 OFFCURVE",
"149 159 CURVE",
"202 212 OFFCURVE",
"230 242 OFFCURVE",
"231 248 CURVE",
"229 250 LINE",
"222 250 OFFCURVE",
"207 239 OFFCURVE",
"185 217 CURVE SMOOTH",
"171 203 OFFCURVE",
"158 187 OFFCURVE",
"144 172 CURVE",
"135 203 OFFCURVE",
"126 226 OFFCURVE",
"119 239 CURVE SMOOTH",
"117 243 OFFCURVE",
"114 245 OFFCURVE",
"110 245 CURVE SMOOTH",
"99 245 OFFCURVE",
"94 242 OFFCURVE",
"94 236 CURVE SMOOTH",
"94 225 OFFCURVE",
"105 198 OFFCURVE",
"127 156 CURVE",
"72 99 OFFCURVE",
"45 65 OFFCURVE",
"45 53 CURVE SMOOTH",
"45 48 OFFCURVE",
"48 46 OFFCURVE",
"53 46 CURVE SMOOTH",
"56 46 OFFCURVE",
"59 48 OFFCURVE",
"62 51 CURVE SMOOTH",
"94 90 OFFCURVE",
"117 121 OFFCURVE",
"132 142 CURVE",
"138 123 OFFCURVE",
"148 106 OFFCURVE",
"161 89 CURVE SMOOTH",
"178 68 OFFCURVE",
"194 57 OFFCURVE",
"210 57 CURVE SMOOTH",
"217 57 OFFCURVE",
"226 60 OFFCURVE",
"236 66 CURVE SMOOTH",
"246 72 OFFCURVE",
"251 78 OFFCURVE",
"251 84 CURVE"
);
}
);
width = 278;
}
);
note = multiply;
unicode = 00D7;
},
{
glyphname = lslash;
layers = (
{
hints = (
{
horizontal = 1;
place = "{0, 17}";
type = Stem;
},
{
place = "{36, 26}";
type = Stem;
}
);
layerId = "89156F97-8AE0-4F29-8E8C-D321EE696556";
paths = (
{
closed = 1;
nodes = (
"341 685 OFFCURVE",
"335 688 OFFCURVE",
"323 688 CURVE SMOOTH",
"302 688 OFFCURVE",
"288 683 OFFCURVE",
"282 671 CURVE SMOOTH",
"259 629 OFFCURVE",
"243 597 OFFCURVE",
"232 575 CURVE SMOOTH",
"199 507 OFFCURVE",
"167 440 OFFCURVE",
"139 373 CURVE SMOOTH",
"123 335 OFFCURVE",
"111 306 OFFCURVE",
"104 287 CURVE SMOOTH",
"102 283 OFFCURVE",
"92 270 OFFCURVE",
"75 248 CURVE SMOOTH",
"58 226 OFFCURVE",
"49 214 OFFCURVE",
"49 213 CURVE SMOOTH",
"49 211 OFFCURVE",
"50 210 OFFCURVE",
"52 210 CURVE SMOOTH",
"58 210 OFFCURVE",
"70 221 OFFCURVE",
"87 244 CURVE",
"53 152 OFFCURVE",
"36 88 OFFCURVE",
"36 51 CURVE SMOOTH",
"36 17 OFFCURVE",
"53 0 OFFCURVE",
"86 0 CURVE SMOOTH",
"117 0 OFFCURVE",
"147 21 OFFCURVE",
"176 62 CURVE SMOOTH",
"178 65 OFFCURVE",
"180 68 OFFCURVE",
"180 70 CURVE SMOOTH",
"180 73 OFFCURVE",
"179 74 OFFCURVE",
"176 74 CURVE SMOOTH",
"177 74 OFFCURVE",
"166 64 OFFCURVE",
"143 45 CURVE SMOOTH",
"120 26 OFFCURVE",
"100 17 OFFCURVE",
"84 17 CURVE SMOOTH",
"69 17 OFFCURVE",
"62 28 OFFCURVE",
"62 50 CURVE SMOOTH",
"62 105 OFFCURVE",
"109 225 OFFCURVE",
"203 408 CURVE SMOOTH",
"231 463 OFFCURVE",
"246 491 OFFCURVE",
"246 491 CURVE",
"253 498 OFFCURVE",
"259 503 OFFCURVE",
"264 506 CURVE",
"274 527 OFFCURVE",
"281 543 OFFCURVE",
"286 554 CURVE SMOOTH",
"310 607 OFFCURVE",
"328 647 OFFCURVE",
"340 674 CURVE SMOOTH",
"341 676 OFFCURVE",
"341 678 OFFCURVE",
"341 679 CURVE SMOOTH"
);
},
{
closed = 1;
nodes = (
"440 424 OFFCURVE",
"437 426 OFFCURVE",
"432 426 CURVE SMOOTH",
"420 426 OFFCURVE",
"394 423 OFFCURVE",
"355 416 CURVE SMOOTH",
"306 408 OFFCURVE",
"254 394 OFFCURVE",
"200 374 CURVE SMOOTH",
"171 363 OFFCURVE",
"123 342 OFFCURVE",
"54 312 CURVE SMOOTH",
"13 294 OFFCURVE",
"-18 282 OFFCURVE",
"-39 273 CURVE SMOOTH",
"-42 272 OFFCURVE",
"-43 269 OFFCURVE",
"-43 263 CURVE SMOOTH",
"-43 247 OFFCURVE",
"-39 239 OFFCURVE",
"-30 239 CURVE SMOOTH",
"-28 239 OFFCURVE",
"-6 247 OFFCURVE",
"35 265 CURVE SMOOTH",
"92 289 OFFCURVE",
"149 315 OFFCURVE",
"207 340 CURVE SMOOTH",
"274 369 OFFCURVE",
"334 389 OFFCURVE",
"385 401 CURVE SMOOTH",
"406 406 OFFCURVE",
"422 409 OFFCURVE",
"433 411 CURVE SMOOTH",
"438 412 OFFCURVE",
"440 415 OFFCURVE",
"440 419 CURVE SMOOTH"
);
}
);
width = 163;
}
);
note = lslash;
unicode = 0142;
},
{
glyphname = exclam;
layers = (
{
hints = (
{
horizontal = 1;
place = "{-15, 21}";
target = up;
type = BottomGhost;
},
{
place = "{42, 274}";
type = Stem;
}
);
layerId = "89156F97-8AE0-4F29-8E8C-D321EE696556";
paths = (
{
closed = 1;
nodes = (
"316 634 OFFCURVE",
"310 639 OFFCURVE",
"297 639 CURVE SMOOTH",
"284 639 OFFCURVE",
"273 632 OFFCURVE",
"264 620 CURVE SMOOTH",
"240 588 OFFCURVE",
"207 513 OFFCURVE",
"166 395 CURVE SMOOTH",
"125 277 OFFCURVE",
"104 199 OFFCURVE",
"104 161 CURVE SMOOTH",
"104 156 OFFCURVE",
"107 153 OFFCURVE",
"112 153 CURVE SMOOTH",
"116 153 OFFCURVE",
"118 155 OFFCURVE",
"119 160 CURVE SMOOTH",
"121 173 OFFCURVE",
"123 183 OFFCURVE",
"124 190 CURVE SMOOTH",
"137 244 OFFCURVE",
"163 315 OFFCURVE",
"204 403 CURVE SMOOTH",
"240 482 OFFCURVE",
"275 550 OFFCURVE",
"310 608 CURVE SMOOTH",
"314 614 OFFCURVE",
"316 619 OFFCURVE",
"316 624 CURVE SMOOTH"
);
},
{
closed = 1;
nodes = (
"121 71 LINE",
"121 71 LINE",
"120 72 OFFCURVE",
"119 72 OFFCURVE",
"118 72 CURVE SMOOTH",
"105 72 OFFCURVE",
"90 66 OFFCURVE",
"72 54 CURVE SMOOTH",
"52 41 OFFCURVE",
"42 29 OFFCURVE",
"42 17 CURVE SMOOTH",
"42 12 OFFCURVE",
"44 5 OFFCURVE",
"49 -3 CURVE SMOOTH",
"53 -11 OFFCURVE",
"58 -15 OFFCURVE",
"63 -15 CURVE SMOOTH",
"70 -15 OFFCURVE",
"77 -11 OFFCURVE",
"85 -2 CURVE SMOOTH",
"93 6 OFFCURVE",
"98 13 OFFCURVE",
"100 20 CURVE SMOOTH",
"101 23 OFFCURVE",
"105 31 OFFCURVE",
"112 45 CURVE SMOOTH",
"118 57 OFFCURVE",
"121 65 OFFCURVE",
"121 69 CURVE SMOOTH"
);
}
);
width = 219;
}
);
note = exclam;
unicode = 0021;
},
{
glyphname = quotedbl;
layers = (
{
hints = (
{
horizontal = 1;
place = "{300, 203}";
type = Stem;
},
{
place = "{85, 56}";
type = Stem;
},
{
place = "{187, 56}";
type = Stem;
}
);
layerId = "89156F97-8AE0-4F29-8E8C-D321EE696556";
paths = (
{
closed = 1;
nodes = (
"145 496 OFFCURVE",
"139 503 OFFCURVE",
"124 503 CURVE SMOOTH",
"123 503 OFFCURVE",
"120 503 OFFCURVE",
"117 503 CURVE SMOOTH",
"110 502 OFFCURVE",
"102 498 OFFCURVE",
"92 489 CURVE SMOOTH",
"82 481 OFFCURVE",
"77 474 OFFCURVE",
"75 467 CURVE SMOOTH",
"74 465 OFFCURVE",
"74 463 OFFCURVE",
"75 462 CURVE SMOOTH",
"88 444 OFFCURVE",
"88 408 OFFCURVE",
"76 355 CURVE SMOOTH",
"68 319 OFFCURVE",
"64 301 OFFCURVE",
"66 300 CURVE",
"66 300 OFFCURVE",
"66 300 OFFCURVE",
"67 300 CURVE SMOOTH",
"69 300 OFFCURVE",
"75 311 OFFCURVE",
"84 332 CURVE SMOOTH",
"104 383 OFFCURVE",
"119 422 OFFCURVE",
"128 447 CURVE SMOOTH",
"136 472 OFFCURVE",
"141 484 OFFCURVE",
"141 482 CURVE"
);
},
{
closed = 1;
nodes = (
"247 496 OFFCURVE",
"241 503 OFFCURVE",
"226 503 CURVE SMOOTH",
"225 503 OFFCURVE",
"222 503 OFFCURVE",
"219 503 CURVE SMOOTH",
"212 502 OFFCURVE",
"204 498 OFFCURVE",
"194 489 CURVE SMOOTH",
"184 481 OFFCURVE",
"179 474 OFFCURVE",
"177 467 CURVE SMOOTH",
"176 465 OFFCURVE",
"176 463 OFFCURVE",
"177 462 CURVE SMOOTH",
"190 444 OFFCURVE",
"190 408 OFFCURVE",
"178 355 CURVE SMOOTH",
"170 319 OFFCURVE",
"166 301 OFFCURVE",
"168 300 CURVE",
"168 300 OFFCURVE",
"168 300 OFFCURVE",
"169 300 CURVE SMOOTH",
"171 300 OFFCURVE",
"177 311 OFFCURVE",
"186 332 CURVE SMOOTH",
"206 383 OFFCURVE",
"221 422 OFFCURVE",
"230 447 CURVE SMOOTH",
"238 472 OFFCURVE",
"243 484 OFFCURVE",
"243 482 CURVE"
);
}
);
width = 263;
}
);
note = quotedbl;
unicode = 0022;
},
{
glyphname = numbersign;
layers = (
{
hints = (
{
horizontal = 1;
place = "{178, 27}";
type = Stem;
},
{
horizontal = 1;
place = "{374, 22}";
type = Stem;
}
);
layerId = "89156F97-8AE0-4F29-8E8C-D321EE696556";
paths = (
{
closed = 1;
nodes = (
"444 382 OFFCURVE",
"442 384 OFFCURVE",
"438 385 CURVE SMOOTH",
"395 390 OFFCURVE",
"363 393 OFFCURVE",
"341 394 CURVE",
"366 465 OFFCURVE",
"378 514 OFFCURVE",
"378 541 CURVE SMOOTH",
"378 556 OFFCURVE",
"376 563 OFFCURVE",
"372 563 CURVE SMOOTH",
"369 563 OFFCURVE",
"366 557 OFFCURVE",
"365 544 CURVE SMOOTH",
"362 523 OFFCURVE",
"356 497 OFFCURVE",
"346 468 CURVE SMOOTH",
"342 456 OFFCURVE",
"332 432 OFFCURVE",
"317 395 CURVE",
"290 396 OFFCURVE",
"266 396 OFFCURVE",
"244 396 CURVE SMOOTH",
"216 396 LINE",
"240 461 OFFCURVE",
"252 506 OFFCURVE",
"252 529 CURVE SMOOTH",
"252 540 OFFCURVE",
"250 545 OFFCURVE",
"247 545 CURVE SMOOTH",
"243 545 OFFCURVE",
"240 539 OFFCURVE",
"239 526 CURVE SMOOTH",
"236 495 OFFCURVE",
"221 451 OFFCURVE",
"196 395 CURVE",
"129 394 OFFCURVE",
"85 392 OFFCURVE",
"65 389 CURVE SMOOTH",
"64 389 OFFCURVE",
"63 389 OFFCURVE",
"62 388 CURVE",
"63 384 OFFCURVE",
"68 379 OFFCURVE",
"79 373 CURVE SMOOTH",
"89 367 OFFCURVE",
"96 364 OFFCURVE",
"100 364 CURVE SMOOTH",
"91 364 OFFCURVE",
"119 366 OFFCURVE",
"184 369 CURVE",
"171 341 OFFCURVE",
"153 305 OFFCURVE",
"130 261 CURVE SMOOTH",
"120 241 OFFCURVE",
"112 226 OFFCURVE",
"107 216 CURVE",
"102 211 OFFCURVE",
"97 207 OFFCURVE",
"94 205 CURVE",
"43 203 OFFCURVE",
"12 201 OFFCURVE",
"1 200 CURVE SMOOTH",
"0 200 OFFCURVE",
"-1 200 OFFCURVE",
"-1 199 CURVE SMOOTH",
"-1 195 OFFCURVE",
"4 190 OFFCURVE",
"15 184 CURVE SMOOTH",
"25 178 OFFCURVE",
"32 175 OFFCURVE",
"36 175 CURVE SMOOTH",
"34 175 OFFCURVE",
"49 176 OFFCURVE",
"81 178 CURVE",
"53 115 OFFCURVE",
"39 83 OFFCURVE",
"39 81 CURVE SMOOTH",
"39 76 OFFCURVE",
"43 74 OFFCURVE",
"52 74 CURVE SMOOTH",
"66 74 OFFCURVE",
"76 78 OFFCURVE",
"81 86 CURVE SMOOTH",
"101 125 OFFCURVE",
"116 156 OFFCURVE",
"126 180 CURVE",
"158 181 OFFCURVE",
"190 183 OFFCURVE",
"222 184 CURVE",
"199 139 OFFCURVE",
"179 97 OFFCURVE",
"160 59 CURVE",
"160 54 OFFCURVE",
"164 52 OFFCURVE",
"173 52 CURVE SMOOTH",
"187 52 OFFCURVE",
"197 56 OFFCURVE",
"202 65 CURVE SMOOTH",
"210 80 OFFCURVE",
"215 91 OFFCURVE",
"219 99 CURVE SMOOTH",
"231 124 OFFCURVE",
"244 152 OFFCURVE",
"258 185 CURVE",
"301 186 OFFCURVE",
"338 187 OFFCURVE",
"368 187 CURVE SMOOTH",
"376 187 OFFCURVE",
"380 189 OFFCURVE",
"380 192 CURVE SMOOTH",
"380 193 OFFCURVE",
"378 194 OFFCURVE",
"374 195 CURVE SMOOTH",
"327 201 OFFCURVE",
"291 204 OFFCURVE",
"266 205 CURVE",
"293 267 OFFCURVE",
"315 323 OFFCURVE",
"334 374 CURVE",
"373 375 OFFCURVE",
"405 376 OFFCURVE",
"432 376 CURVE SMOOTH",
"440 376 OFFCURVE",
"444 378 OFFCURVE",
"444 381 CURVE SMOOTH"
);
},
{
closed = 1;
nodes = (
"287 323 OFFCURVE",
"262 267 OFFCURVE",
"233 206 CURVE",
"202 207 OFFCURVE",
"171 207 OFFCURVE",
"138 206 CURVE",
"165 266 OFFCURVE",
"188 321 OFFCURVE",
"207 370 CURVE",
"241 371 OFFCURVE",
"275 373 OFFCURVE",
"308 374 CURVE"
);
}
);
width = 449;
}
);
note = numbersign;
unicode = 0023;
},
{
glyphname = dollar;
layers = (
{
hints = (
{
place = "{-28, 23}";
type = Stem;
},
{
place = "{39, 29}";
type = Stem;
},
{
place = "{113, 41}";
type = Stem;
},
{
place = "{235, 45}";
type = Stem;
},
{
place = "{294, 21}";
type = Stem;
}
);
layerId = "89156F97-8AE0-4F29-8E8C-D321EE696556";
paths = (
{
closed = 1;
nodes = (
"338 688 OFFCURVE",
"337 689 OFFCURVE",
"334 689 CURVE SMOOTH",
"315 689 OFFCURVE",
"285 655 OFFCURVE",
"246 588 CURVE",
"216 590 OFFCURVE",
"188 585 OFFCURVE",
"161 572 CURVE SMOOTH",
"129 557 OFFCURVE",
"113 535 OFFCURVE",
"113 507 CURVE SMOOTH",
"113 482 OFFCURVE",
"130 458 OFFCURVE",
"163 435 CURVE",
"126 360 OFFCURVE",
"97 292 OFFCURVE",
"75 229 CURVE",
"52 234 OFFCURVE",
"33 245 OFFCURVE",
"18 263 CURVE SMOOTH",
"3 280 OFFCURVE",
"-5 301 OFFCURVE",
"-5 324 CURVE SMOOTH",
"-5 351 OFFCURVE",
"5 372 OFFCURVE",
"25 387 CURVE SMOOTH",
"43 401 OFFCURVE",
"66 408 OFFCURVE",
"94 408 CURVE SMOOTH",
"104 408 OFFCURVE",
"109 408 OFFCURVE",
"110 409 CURVE",
"109 412 OFFCURVE",
"101 413 OFFCURVE",
"85 413 CURVE SMOOTH",
"54 413 OFFCURVE",
"29 403 OFFCURVE",
"7 384 CURVE SMOOTH",
"-16 364 OFFCURVE",
"-28 340 OFFCURVE",
"-28 310 CURVE SMOOTH",
"-28 259 OFFCURVE",
"6 230 OFFCURVE",
"73 221 CURVE",
"50 156 OFFCURVE",
"39 107 OFFCURVE",
"39 74 CURVE SMOOTH",
"39 70 OFFCURVE",
"46 68 OFFCURVE",
"60 68 CURVE SMOOTH",
"65 68 OFFCURVE",
"68 69 OFFCURVE",
"68 71 CURVE SMOOTH",
"70 90 OFFCURVE",
"71 106 OFFCURVE",
"72 118 CURVE SMOOTH",
"77 149 OFFCURVE",
"85 182 OFFCURVE",
"96 219 CURVE",
"139 218 OFFCURVE",
"179 227 OFFCURVE",
"215 246 CURVE SMOOTH",
"258 269 OFFCURVE",
"280 301 OFFCURVE",
"280 341 CURVE SMOOTH",
"280 368 OFFCURVE",
"271 390 OFFCURVE",
"254 407 CURVE SMOOTH",
"247 414 OFFCURVE",
"228 428 OFFCURVE",
"195 449 CURVE",
"218 492 OFFCURVE",
"242 534 OFFCURVE",
"268 577 CURVE",
"285 571 OFFCURVE",
"294 562 OFFCURVE",
"294 549 CURVE SMOOTH",
"294 530 OFFCURVE",
"282 520 OFFCURVE",
"257 520 CURVE SMOOTH",
"250 520 OFFCURVE",
"247 519 OFFCURVE",
"247 517 CURVE SMOOTH",
"247 516 OFFCURVE",
"250 515 OFFCURVE",
"257 515 CURVE SMOOTH",
"296 515 OFFCURVE",
"315 525 OFFCURVE",
"315 546 CURVE SMOOTH",
"315 563 OFFCURVE",
"301 576 OFFCURVE",
"272 584 CURVE",
"296 621 OFFCURVE",
"318 655 OFFCURVE",
"338 686 CURVE"
);
},
{
closed = 1;
nodes = (
"242 582 LINE",
"221 545 OFFCURVE",
"199 506 OFFCURVE",
"177 463 CURVE",
"162 477 OFFCURVE",
"154 493 OFFCURVE",
"154 512 CURVE SMOOTH",
"154 560 OFFCURVE",
"180 582 OFFCURVE",
"233 582 CURVE SMOOTH"
);
},
{
closed = 1;
nodes = (
"235 291 OFFCURVE",
"214 258 OFFCURVE",
"172 241 CURVE SMOOTH",
"147 231 OFFCURVE",
"123 226 OFFCURVE",
"102 226 CURVE SMOOTH",
"98 226 LINE",
"117 285 OFFCURVE",
"145 351 OFFCURVE",
"181 423 CURVE",
"217 398 OFFCURVE",
"235 370 OFFCURVE",
"235 339 CURVE SMOOTH"
);
}
);
width = 280;
}
);
note = dollar;
unicode = 0024;
},
{
glyphname = percent;
layers = (
{
hints = (
{
horizontal = 1;
place = "{-46, 31}";
type = Stem;
},
{
horizontal = 1;
place = "{329, 19}";
type = Stem;
},
{
horizontal = 1;
place = "{378, 15}";
type = Stem;
},
{
horizontal = 1;
place = "{745, 18}";
type = Stem;
},
{
place = "{134, 21}";
type = Stem;
},
{
place = "{378, 21}";
type = Stem;
},
{
place = "{405, 27}";
type = Stem;
},
{
place = "{698, 35}";
type = Stem;
}
);
layerId = "89156F97-8AE0-4F29-8E8C-D321EE696556";
paths = (
{
closed = 1;
nodes = (
"733 709 OFFCURVE",
"727 714 OFFCURVE",
"714 714 CURVE SMOOTH",
"712 714 OFFCURVE",
"710 714 OFFCURVE",
"708 714 CURVE",
"701 730 OFFCURVE",
"679 743 OFFCURVE",
"642 752 CURVE SMOOTH",
"613 759 OFFCURVE",
"585 763 OFFCURVE",
"560 763 CURVE SMOOTH",
"527 763 OFFCURVE",
"488 760 OFFCURVE",
"443 754 CURVE SMOOTH",
"404 749 OFFCURVE",
"366 743 OFFCURVE",
"327 737 CURVE SMOOTH",
"329 737 OFFCURVE",
"319 737 OFFCURVE",
"296 737 CURVE SMOOTH",
"293 737 OFFCURVE",
"291 737 OFFCURVE",
"289 737 CURVE",
"320 726 OFFCURVE",
"335 699 OFFCURVE",
"335 658 CURVE SMOOTH",
"335 621 OFFCURVE",
"323 578 OFFCURVE",
"300 529 CURVE SMOOTH",
"277 481 OFFCURVE",
"250 444 OFFCURVE",
"221 417 CURVE SMOOTH",
"203 401 OFFCURVE",
"188 393 OFFCURVE",
"176 393 CURVE SMOOTH",
"162 393 OFFCURVE",
"155 402 OFFCURVE",
"155 421 CURVE SMOOTH",
"155 449 OFFCURVE",
"175 499 OFFCURVE",
"214 570 CURVE SMOOTH",
"253 641 OFFCURVE",
"273 678 OFFCURVE",
"273 680 CURVE SMOOTH",
"273 689 OFFCURVE",
"266 694 OFFCURVE",
"252 694 CURVE SMOOTH",
"241 694 OFFCURVE",
"226 674 OFFCURVE",
"204 636 CURVE SMOOTH",
"190 610 OFFCURVE",
"177 587 OFFCURVE",
"168 564 CURVE SMOOTH",
"145 510 OFFCURVE",
"134 466 OFFCURVE",
"134 433 CURVE SMOOTH",
"134 396 OFFCURVE",
"148 378 OFFCURVE",
"175 378 CURVE SMOOTH",
"207 378 OFFCURVE",
"243 404 OFFCURVE",
"284 456 CURVE SMOOTH",
"315 496 OFFCURVE",
"340 536 OFFCURVE",
"357 577 CURVE SMOOTH",
"372 612 OFFCURVE",
"379 643 OFFCURVE",
"379 668 CURVE SMOOTH",
"379 693 OFFCURVE",
"371 711 OFFCURVE",
"355 721 CURVE",
"470 737 OFFCURVE",
"541 745 OFFCURVE",
"570 745 CURVE SMOOTH",
"645 745 OFFCURVE",
"687 734 OFFCURVE",
"698 711 CURVE",
"687 708 OFFCURVE",
"677 703 OFFCURVE",
"669 696 CURVE SMOOTH",
"601 639 OFFCURVE",
"551 594 OFFCURVE",
"518 563 CURVE SMOOTH",
"407 458 OFFCURVE",
"305 354 OFFCURVE",
"215 249 CURVE SMOOTH",
"138 159 OFFCURVE",
"81 82 OFFCURVE",
"42 17 CURVE SMOOTH",
"8 -40 OFFCURVE",
"-9 -79 OFFCURVE",
"-9 -101 CURVE SMOOTH",
"-9 -107 OFFCURVE",
"-7 -113 OFFCURVE",
"-2 -119 CURVE SMOOTH",
"2 -124 OFFCURVE",
"7 -127 OFFCURVE",
"13 -127 CURVE SMOOTH",
"18 -127 OFFCURVE",
"20 -124 OFFCURVE",
"22 -118 CURVE SMOOTH",
"31 -84 OFFCURVE",
"40 -58 OFFCURVE",
"49 -39 CURVE SMOOTH",
"119 111 OFFCURVE",
"295 312 OFFCURVE",
"580 561 CURVE SMOOTH",
"645 618 OFFCURVE",
"696 660 OFFCURVE",
"729 688 CURVE SMOOTH",
"732 691 OFFCURVE",
"733 695 OFFCURVE",
"733 698 CURVE SMOOTH"
);
},
{
closed = 1;
nodes = (
"622 240 OFFCURVE",
"608 244 OFFCURVE",
"579 244 CURVE",
"572 313 OFFCURVE",
"547 348 OFFCURVE",
"502 348 CURVE SMOOTH",
"473 348 OFFCURVE",
"449 333 OFFCURVE",
"430 303 CURVE SMOOTH",
"414 277 OFFCURVE",
"405 249 OFFCURVE",
"405 218 CURVE SMOOTH",
"405 189 OFFCURVE",
"412 160 OFFCURVE",
"425 130 CURVE",
"394 87 OFFCURVE",
"378 45 OFFCURVE",
"378 5 CURVE SMOOTH",
"378 -29 OFFCURVE",
"391 -46 OFFCURVE",
"417 -46 CURVE SMOOTH",
"435 -46 OFFCURVE",
"457 -35 OFFCURVE",
"483 -12 CURVE SMOOTH",
"509 10 OFFCURVE",
"521 21 OFFCURVE",
"519 21 CURVE SMOOTH",
"520 21 OFFCURVE",
"522 21 OFFCURVE",
"524 20 CURVE SMOOTH",
"526 19 OFFCURVE",
"528 19 OFFCURVE",
"529 19 CURVE SMOOTH",
"537 19 OFFCURVE",
"545 21 OFFCURVE",
"553 26 CURVE",
"533 26 OFFCURVE",
"522 26 OFFCURVE",
"521 26 CURVE",
"561 82 OFFCURVE",
"581 138 OFFCURVE",
"581 195 CURVE SMOOTH",
"581 201 OFFCURVE",
"581 207 OFFCURVE",
"580 214 CURVE",
"587 214 OFFCURVE",
"595 216 OFFCURVE",
"604 219 CURVE SMOOTH",
"616 224 OFFCURVE",
"622 228 OFFCURVE",
"622 233 CURVE SMOOTH"
);
},
{
closed = 1;
nodes = (
"520 230 OFFCURVE",
"477 196 OFFCURVE",
"436 141 CURVE",
"433 151 OFFCURVE",
"432 163 OFFCURVE",
"432 177 CURVE SMOOTH",
"432 208 OFFCURVE",
"438 238 OFFCURVE",
"450 266 CURVE SMOOTH",
"468 308 OFFCURVE",
"487 329 OFFCURVE",
"509 329 CURVE SMOOTH",
"532 329 OFFCURVE",
"550 300 OFFCURVE",
"563 243 CURVE"
);
},
{
closed = 1;
nodes = (
"564 192 OFFCURVE",
"555 160 OFFCURVE",
"538 117 CURVE SMOOTH",
"521 74 OFFCURVE",
"505 46 OFFCURVE",
"490 32 CURVE",
"470 37 OFFCURVE",
"453 64 OFFCURVE",
"438 115 CURVE",
"445 128 OFFCURVE",
"464 148 OFFCURVE",
"496 173 CURVE SMOOTH",
"527 198 OFFCURVE",
"550 212 OFFCURVE",
"565 215 CURVE"
);
},
{
closed = 1;
nodes = (
"461 -1 OFFCURVE",
"439 -15 OFFCURVE",
"420 -15 CURVE SMOOTH",
"406 -15 OFFCURVE",
"399 -3 OFFCURVE",
"399 20 CURVE SMOOTH",
"399 40 OFFCURVE",
"410 69 OFFCURVE",
"431 106 CURVE",
"446 56 OFFCURVE",
"464 29 OFFCURVE",
"486 26 CURVE"
);
}
);
width = 629;
}
);
note = percent;
unicode = 0025;
},
{
glyphname = ampersand;
layers = (
{
hints = (
{
horizontal = 1;
place = "{-242, 14}";
type = Stem;
},
{
horizontal = 1;
place = "{0, 21}";
type = Stem;
},
{
horizontal = 1;
place = "{218, -20}";
target = down;
type = TopGhost;
},
{
horizontal = 1;
place = "{351, 36}";
type = Stem;
},
{
horizontal = 1;
place = "{620, 27}";
type = Stem;
},
{
place = "{52, 30}";
type = Stem;
},
{
place = "{615, 19}";
type = Stem;
},
{
place = "{684, 38}";
type = Stem;
}
);
layerId = "89156F97-8AE0-4F29-8E8C-D321EE696556";
paths = (
{
closed = 1;
nodes = (
"722 366 OFFCURVE",
"694 387 OFFCURVE",
"639 387 CURVE SMOOTH",
"585 387 OFFCURVE",
"529 368 OFFCURVE",
"472 329 CURVE",
"490 413 OFFCURVE",
"504 469 OFFCURVE",
"515 496 CURVE",
"550 517 OFFCURVE",
"575 533 OFFCURVE",
"590 545 CURVE SMOOTH",
"619 570 OFFCURVE",
"634 594 OFFCURVE",
"634 617 CURVE SMOOTH",
"634 637 OFFCURVE",
"625 647 OFFCURVE",
"608 647 CURVE SMOOTH",
"593 647 OFFCURVE",
"575 636 OFFCURVE",
"555 616 CURVE SMOOTH",
"542 603 OFFCURVE",
"529 584 OFFCURVE",
"517 558 CURVE SMOOTH",
"511 545 OFFCURVE",
"502 523 OFFCURVE",
"491 492 CURVE",
"426 458 OFFCURVE",
"361 424 OFFCURVE",
"296 389 CURVE SMOOTH",
"223 350 OFFCURVE",
"163 308 OFFCURVE",
"114 263 CURVE",
"93 286 OFFCURVE",
"82 312 OFFCURVE",
"82 343 CURVE SMOOTH",
"82 392 OFFCURVE",
"108 434 OFFCURVE",
"160 469 CURVE SMOOTH",
"206 500 OFFCURVE",
"255 516 OFFCURVE",
"307 516 CURVE SMOOTH",
"314 516 OFFCURVE",
"325 514 OFFCURVE",
"339 511 CURVE SMOOTH",
"352 508 OFFCURVE",
"362 507 OFFCURVE",
"369 507 CURVE SMOOTH",
"370 507 OFFCURVE",
"371 508 OFFCURVE",
"372 510 CURVE",
"372 514 OFFCURVE",
"362 518 OFFCURVE",
"341 521 CURVE SMOOTH",
"325 523 OFFCURVE",
"312 524 OFFCURVE",
"303 524 CURVE SMOOTH",
"246 524 OFFCURVE",
"192 507 OFFCURVE",
"140 474 CURVE SMOOTH",
"81 437 OFFCURVE",
"52 391 OFFCURVE",
"52 338 CURVE SMOOTH",
"52 302 OFFCURVE",
"66 271 OFFCURVE",
"94 245 CURVE",
"41 192 OFFCURVE",
"15 146 OFFCURVE",
"15 106 CURVE SMOOTH",
"15 67 OFFCURVE",
"39 38 OFFCURVE",
"88 20 CURVE SMOOTH",
"123 7 OFFCURVE",
"164 0 OFFCURVE",
"211 0 CURVE SMOOTH",
"258 0 OFFCURVE",
"307 6 OFFCURVE",
"358 19 CURVE",
"297 -146 OFFCURVE",
"228 -228 OFFCURVE",
"152 -228 CURVE SMOOTH",
"113 -228 OFFCURVE",
"90 -211 OFFCURVE",
"85 -177 CURVE",
"84 -174 OFFCURVE",
"83 -173 OFFCURVE",
"81 -173 CURVE SMOOTH",
"78 -173 OFFCURVE",
"77 -174 OFFCURVE",
"77 -177 CURVE SMOOTH",
"77 -198 OFFCURVE",
"87 -215 OFFCURVE",
"106 -227 CURVE SMOOTH",
"122 -237 OFFCURVE",
"141 -242 OFFCURVE",
"164 -242 CURVE SMOOTH",
"269 -242 OFFCURVE",
"351 -149 OFFCURVE",
"408 36 CURVE",
"506 67 OFFCURVE",
"587 118 OFFCURVE",
"651 191 CURVE SMOOTH",
"698 245 OFFCURVE",
"722 290 OFFCURVE",
"722 325 CURVE SMOOTH"
);
},
{
closed = 1;
nodes = (
"615 598 OFFCURVE",
"602 579 OFFCURVE",
"576 554 CURVE SMOOTH",
"555 533 OFFCURVE",
"536 518 OFFCURVE",
"521 509 CURVE",
"542 556 OFFCURVE",
"560 587 OFFCURVE",
"577 602 CURVE SMOOTH",
"590 614 OFFCURVE",
"600 620 OFFCURVE",
"607 620 CURVE SMOOTH",
"612 620 OFFCURVE",
"615 616 OFFCURVE",
"615 609 CURVE SMOOTH"
);
},
{
closed = 1;
nodes = (
"684 267 OFFCURVE",
"663 228 OFFCURVE",
"622 181 CURVE SMOOTH",
"570 122 OFFCURVE",
"500 78 OFFCURVE",
"411 51 CURVE",
"439 168 OFFCURVE",
"458 257 OFFCURVE",
"469 317 CURVE",
"513 340 OFFCURVE",
"557 351 OFFCURVE",
"601 351 CURVE SMOOTH",
"656 351 OFFCURVE",
"684 333 OFFCURVE",
"684 296 CURVE SMOOTH"
);
},
{
closed = 1;
nodes = (
"473 437 OFFCURVE",
"457 380 OFFCURVE",
"440 309 CURVE",
"392 279 OFFCURVE",
"358 258 OFFCURVE",
"337 248 CURVE SMOOTH",
"295 228 OFFCURVE",
"257 218 OFFCURVE",
"222 218 CURVE SMOOTH",
"193 218 OFFCURVE",
"166 226 OFFCURVE",
"141 241 CURVE",
"194 300 OFFCURVE",
"261 355 OFFCURVE",
"342 402 CURVE SMOOTH",
"405 438 OFFCURVE",
"454 463 OFFCURVE",
"487 480 CURVE"
);
},
{
closed = 1;
nodes = (
"407 177 OFFCURVE",
"382 89 OFFCURVE",
"362 35 CURVE",
"323 26 OFFCURVE",
"285 21 OFFCURVE",
"248 21 CURVE SMOOTH",
"206 21 OFFCURVE",
"170 27 OFFCURVE",
"140 39 CURVE SMOOTH",
"99 56 OFFCURVE",
"79 83 OFFCURVE",
"79 119 CURVE SMOOTH",
"79 149 OFFCURVE",
"94 183 OFFCURVE",
"125 222 CURVE",
"153 206 OFFCURVE",
"183 198 OFFCURVE",
"215 198 CURVE SMOOTH",
"279 198 OFFCURVE",
"353 232 OFFCURVE",
"437 299 CURVE"
);
}
);
width = 714;
}
);
note = ampersand;
unicode = 0026;
},
{
glyphname = quotesingle;
layers = (
{
hints = (
{
horizontal = 1;
place = "{300, 203}";
type = Stem;
},
{
place = "{85, 56}";
type = Stem;
}
);
layerId = "89156F97-8AE0-4F29-8E8C-D321EE696556";
paths = (
{
closed = 1;
nodes = (
"145 496 OFFCURVE",
"139 503 OFFCURVE",
"124 503 CURVE SMOOTH",
"123 503 OFFCURVE",
"120 503 OFFCURVE",
"117 503 CURVE SMOOTH",
"110 502 OFFCURVE",
"102 498 OFFCURVE",
"92 489 CURVE SMOOTH",
"82 481 OFFCURVE",
"77 474 OFFCURVE",
"75 467 CURVE SMOOTH",
"74 465 OFFCURVE",
"74 463 OFFCURVE",
"75 462 CURVE SMOOTH",
"88 444 OFFCURVE",
"88 408 OFFCURVE",
"76 355 CURVE SMOOTH",
"68 319 OFFCURVE",
"64 301 OFFCURVE",
"66 300 CURVE",
"66 300 OFFCURVE",
"66 300 OFFCURVE",
"67 300 CURVE SMOOTH",
"69 300 OFFCURVE",
"75 311 OFFCURVE",
"84 332 CURVE SMOOTH",
"104 383 OFFCURVE",
"119 422 OFFCURVE",
"128 447 CURVE SMOOTH",
"136 472 OFFCURVE",
"141 484 OFFCURVE",
"141 482 CURVE"
);
}
);
width = 161;
}
);
note = quotesingle;
unicode = 0027;
},
{
glyphname = parenleft;
layers = (
{
hints = (
{
horizontal = 1;
place = "{-62, 21}";
type = Stem;
},
{
horizontal = 1;
place = "{618, 10}";
type = Stem;
},
{
place = "{14, 55}";
type = Stem;
}
);
layerId = "89156F97-8AE0-4F29-8E8C-D321EE696556";
paths = (
{
closed = 1;
nodes = (
"556 626 OFFCURVE",
"554 628 OFFCURVE",
"551 628 CURVE SMOOTH",
"461 628 OFFCURVE",
"372 601 OFFCURVE",
"285 545 CURVE SMOOTH",
"202 492 OFFCURVE",
"136 425 OFFCURVE",
"88 344 CURVE SMOOTH",
"58 294 OFFCURVE",
"37 239 OFFCURVE",
"24 178 CURVE SMOOTH",
"18 149 OFFCURVE",
"14 119 OFFCURVE",
"14 87 CURVE SMOOTH",
"14 -12 OFFCURVE",
"46 -62 OFFCURVE",
"111 -62 CURVE SMOOTH",
"120 -62 OFFCURVE",
"133 -60 OFFCURVE",
"148 -57 CURVE SMOOTH",
"167 -53 OFFCURVE",
"177 -49 OFFCURVE",
"177 -44 CURVE SMOOTH",
"177 -41 OFFCURVE",
"175 -39 OFFCURVE",
"171 -39 CURVE SMOOTH",
"169 -39 OFFCURVE",
"166 -39 OFFCURVE",
"162 -40 CURVE SMOOTH",
"158 -41 OFFCURVE",
"155 -41 OFFCURVE",
"152 -41 CURVE SMOOTH",
"97 -41 OFFCURVE",
"69 7 OFFCURVE",
"69 102 CURVE SMOOTH",
"69 143 OFFCURVE",
"73 178 OFFCURVE",
"81 208 CURVE SMOOTH",
"96 264 OFFCURVE",
"119 315 OFFCURVE",
"150 362 CURVE SMOOTH",
"193 429 OFFCURVE",
"251 487 OFFCURVE",
"323 536 CURVE SMOOTH",
"404 591 OFFCURVE",
"480 618 OFFCURVE",
"551 618 CURVE SMOOTH",
"554 618 OFFCURVE",
"556 620 OFFCURVE",
"556 623 CURVE SMOOTH"
);
}
);
width = 287;
}
);
note = parenleft;
unicode = 0028;
},
{
glyphname = parenright;
layers = (
{
hints = (
{
horizontal = 1;
place = "{-93, 10}";
type = Stem;
},
{
place = "{404, 54}";
type = Stem;
}
);
layerId = "89156F97-8AE0-4F29-8E8C-D321EE696556";
paths = (
{
closed = 1;
nodes = (
"458 491 OFFCURVE",
"442 539 OFFCURVE",
"411 575 CURVE SMOOTH",
"380 611 OFFCURVE",
"335 629 OFFCURVE",
"277 629 CURVE SMOOTH",
"251 629 OFFCURVE",
"238 626 OFFCURVE",
"238 620 CURVE SMOOTH",
"238 618 OFFCURVE",
"240 616 OFFCURVE",
"243 616 CURVE SMOOTH",
"268 612 OFFCURVE",
"287 609 OFFCURVE",
"298 605 CURVE SMOOTH",
"369 581 OFFCURVE",
"404 523 OFFCURVE",
"404 431 CURVE SMOOTH",
"404 348 OFFCURVE",
"378 261 OFFCURVE",
"325 171 CURVE SMOOTH",
"273 81 OFFCURVE",
"211 14 OFFCURVE",
"139 -30 CURVE SMOOTH",
"81 -65 OFFCURVE",
"31 -83 OFFCURVE",
"-11 -83 CURVE SMOOTH",
"-22 -83 OFFCURVE",
"-28 -84 OFFCURVE",
"-28 -87 CURVE SMOOTH",
"-28 -91 OFFCURVE",
"-20 -93 OFFCURVE",
"-5 -93 CURVE SMOOTH",
"43 -93 OFFCURVE",
"92 -79 OFFCURVE",
"142 -50 CURVE SMOOTH",
"222 -5 OFFCURVE",
"294 64 OFFCURVE",
"357 156 CURVE SMOOTH",
"424 253 OFFCURVE",
"458 345 OFFCURVE",
"458 432 CURVE SMOOTH"
);
}
);
width = 458;
}
);
note = parenright;
unicode = 0029;
},
{
glyphname = asterisk;
layers = (
{
hints = (
{
horizontal = 1;
place = "{258, 22}";
type = Stem;
},
{
place = "{306, 21}";
type = Stem;
}
);
layerId = "89156F97-8AE0-4F29-8E8C-D321EE696556";
paths = (
{
closed = 1;
nodes = (
"566 265 LINE",
"565 269 OFFCURVE",
"562 274 OFFCURVE",
"557 280 CURVE SMOOTH",
"552 286 OFFCURVE",
"548 289 OFFCURVE",
"545 289 CURVE SMOOTH",
"538 289 OFFCURVE",
"527 288 OFFCURVE",
"514 287 CURVE SMOOTH",
"499 286 OFFCURVE",
"489 285 OFFCURVE",
"484 285 CURVE SMOOTH",
"449 284 OFFCURVE",
"403 282 OFFCURVE",
"346 281 CURVE",
"444 383 LINE SMOOTH",
"464 403 OFFCURVE",
"479 418 OFFCURVE",
"490 429 CURVE SMOOTH",
"491 430 OFFCURVE",
"492 432 OFFCURVE",
"492 434 CURVE SMOOTH",
"492 437 OFFCURVE",
"491 438 OFFCURVE",
"488 438 CURVE SMOOTH",
"481 438 OFFCURVE",
"427 390 OFFCURVE",
"327 293 CURVE",
"325 399 OFFCURVE",
"324 472 OFFCURVE",
"324 511 CURVE SMOOTH",
"324 516 OFFCURVE",
"322 518 OFFCURVE",
"319 518 CURVE SMOOTH",
"317 518 OFFCURVE",
"316 517 OFFCURVE",
"315 514 CURVE SMOOTH",
"311 503 OFFCURVE",
"308 467 OFFCURVE",
"306 404 CURVE SMOOTH",
"306 391 OFFCURVE",
"305 352 OFFCURVE",
"304 287 CURVE",
"194 395 LINE SMOOTH",
"171 417 OFFCURVE",
"154 434 OFFCURVE",
"143 445 CURVE",
"141 446 OFFCURVE",
"139 447 OFFCURVE",
"138 447 CURVE SMOOTH",
"135 447 OFFCURVE",
"134 446 OFFCURVE",
"134 443 CURVE SMOOTH",
"134 435 OFFCURVE",
"183 381 OFFCURVE",
"280 280 CURVE",
"177 278 OFFCURVE",
"106 277 OFFCURVE",
"68 277 CURVE SMOOTH",
"63 277 OFFCURVE",
"61 275 OFFCURVE",
"61 272 CURVE SMOOTH",
"61 271 OFFCURVE",
"62 269 OFFCURVE",
"65 268 CURVE SMOOTH",
"76 264 OFFCURVE",
"113 262 OFFCURVE",
"174 260 CURVE SMOOTH",
"184 260 OFFCURVE",
"223 259 OFFCURVE",
"290 258 CURVE",
"183 152 OFFCURVE",
"129 95 OFFCURVE",
"129 87 CURVE SMOOTH",
"129 83 OFFCURVE",
"136 81 OFFCURVE",
"150 81 CURVE SMOOTH",
"155 81 OFFCURVE",
"159 82 OFFCURVE",
"160 83 CURVE SMOOTH",
"165 89 OFFCURVE",
"169 94 OFFCURVE",
"172 97 CURVE SMOOTH",
"230 160 OFFCURVE",
"274 207 OFFCURVE",
"304 238 CURVE",
"303 129 OFFCURVE",
"305 54 OFFCURVE",
"310 14 CURVE",
"312 13 LINE",
"315 14 OFFCURVE",
"320 17 OFFCURVE",
"326 22 CURVE SMOOTH",
"332 27 OFFCURVE",
"335 31 OFFCURVE",
"335 34 CURVE SMOOTH",
"335 41 OFFCURVE",
"335 51 OFFCURVE",
"334 64 CURVE SMOOTH",
"333 79 OFFCURVE",
"332 90 OFFCURVE",
"332 95 CURVE SMOOTH",
"331 129 OFFCURVE",
"329 174 OFFCURVE",
"328 231 CURVE",
"425 132 OFFCURVE",
"478 83 OFFCURVE",
"485 83 CURVE SMOOTH",
"489 83 OFFCURVE",
"491 90 OFFCURVE",
"491 105 CURVE SMOOTH",
"491 110 OFFCURVE",
"490 113 OFFCURVE",
"489 115 CURVE",
"483 120 OFFCURVE",
"478 124 OFFCURVE",
"475 127 CURVE SMOOTH",
"412 184 OFFCURVE",
"366 228 OFFCURVE",
"336 257 CURVE",
"448 256 OFFCURVE",
"524 259 OFFCURVE",
"565 264 CURVE"
);
}
);
width = 599;
}
);
note = asterisk;
unicode = 002A;
},
{
glyphname = plus;
layers = (
{
hints = (
{
place = "{178, 34}";
type = Stem;
}
);
layerId = "89156F97-8AE0-4F29-8E8C-D321EE696556";
paths = (
{
closed = 1;
nodes = (
"367 222 OFFCURVE",
"365 223 OFFCURVE",
"362 224 CURVE SMOOTH",
"329 231 OFFCURVE",
"275 234 OFFCURVE",
"200 235 CURVE",
"209 308 OFFCURVE",
"212 362 OFFCURVE",
"212 399 CURVE SMOOTH",
"212 412 LINE",
"210 413 LINE",
"206 413 OFFCURVE",
"200 410 OFFCURVE",
"191 405 CURVE SMOOTH",
"182 400 OFFCURVE",
"178 396 OFFCURVE",
"178 393 CURVE SMOOTH",
"178 330 OFFCURVE",
"176 278 OFFCURVE",
"173 235 CURVE",
"100 235 OFFCURVE",
"48 233 OFFCURVE",
"18 229 CURVE",
"17 228 OFFCURVE",
"16 228 OFFCURVE",
"15 227 CURVE",
"16 223 OFFCURVE",
"20 218 OFFCURVE",
"29 212 CURVE SMOOTH",
"37 206 OFFCURVE",
"43 203 OFFCURVE",
"48 203 CURVE SMOOTH",
"46 203 OFFCURVE",
"59 204 OFFCURVE",
"87 206 CURVE SMOOTH",
"114 207 OFFCURVE",
"142 209 OFFCURVE",
"171 210 CURVE",
"166 151 OFFCURVE",
"161 107 OFFCURVE",
"158 78 CURVE SMOOTH",
"154 39 OFFCURVE",
"152 18 OFFCURVE",
"152 17 CURVE SMOOTH",
"152 13 OFFCURVE",
"153 11 OFFCURVE",
"156 11 CURVE SMOOTH",
"157 11 OFFCURVE",
"159 12 OFFCURVE",
"160 14 CURVE SMOOTH",
"171 39 OFFCURVE",
"183 104 OFFCURVE",
"197 211 CURVE",
"259 214 OFFCURVE",
"312 215 OFFCURVE",
"356 215 CURVE SMOOTH",
"363 215 OFFCURVE",
"367 217 OFFCURVE",
"367 220 CURVE SMOOTH"
);
}
);
width = 385;
}
);
note = plus;
unicode = 002B;
},
{
glyphname = comma;
layers = (
{
hints = (
{
horizontal = 1;
place = "{-121, 197}";
type = Stem;
},
{
place = "{73, 47}";
type = Stem;
}
);
layerId = "89156F97-8AE0-4F29-8E8C-D321EE696556";
paths = (
{
closed = 1;
nodes = (
"120 48 OFFCURVE",
"119 53 OFFCURVE",
"118 58 CURVE SMOOTH",
"118 57 LINE",
"109 70 OFFCURVE",
"100 76 OFFCURVE",
"93 76 CURVE SMOOTH",
"88 76 OFFCURVE",
"83 72 OFFCURVE",
"79 64 CURVE SMOOTH",
"75 57 OFFCURVE",
"73 50 OFFCURVE",
"73 45 CURVE SMOOTH",
"73 42 OFFCURVE",
"74 37 OFFCURVE",
"76 30 CURVE SMOOTH",
"78 24 OFFCURVE",
"79 19 OFFCURVE",
"79 16 CURVE SMOOTH",
"79 -8 OFFCURVE",
"69 -37 OFFCURVE",
"50 -71 CURVE SMOOTH",
"31 -105 OFFCURVE",
"21 -121 OFFCURVE",
"21 -120 CURVE",
"21 -121 OFFCURVE",
"21 -121 OFFCURVE",
"22 -121 CURVE SMOOTH",
"27 -121 OFFCURVE",
"39 -108 OFFCURVE",
"58 -83 CURVE SMOOTH",
"73 -64 OFFCURVE",
"84 -48 OFFCURVE",
"91 -36 CURVE SMOOTH",
"110 -3 OFFCURVE",
"120 23 OFFCURVE",
"120 42 CURVE SMOOTH"
);
}
);
width = 152;
}
);
note = comma;
unicode = 002C;
},
{
glyphname = hyphen;
layers = (
{
hints = (
{
horizontal = 1;
place = "{172, 26}";
type = Stem;
}
);
layerId = "89156F97-8AE0-4F29-8E8C-D321EE696556";
paths = (
{
closed = 1;
nodes = (
"288 185 OFFCURVE",
"287 186 OFFCURVE",
"285 187 CURVE SMOOTH",
"262 194 OFFCURVE",
"227 198 OFFCURVE",
"179 198 CURVE SMOOTH",
"148 198 OFFCURVE",
"116 196 OFFCURVE",
"82 192 CURVE",
"80 190 LINE",
"81 187 OFFCURVE",
"84 182 OFFCURVE",
"89 176 CURVE SMOOTH",
"94 170 OFFCURVE",
"98 167 OFFCURVE",
"101 167 CURVE SMOOTH",
"94 167 OFFCURVE",
"112 168 OFFCURVE",
"157 172 CURVE SMOOTH",
"204 176 OFFCURVE",
"246 178 OFFCURVE",
"282 178 CURVE SMOOTH",
"286 178 OFFCURVE",
"288 180 OFFCURVE",
"288 183 CURVE SMOOTH"
);
}
);
width = 298;
}
);
note = hyphen;
unicode = 002D;
},
{
glyphname = period;
layers = (
{
hints = (
{
horizontal = 1;
place = "{-15, 21}";
target = up;
type = BottomGhost;
},
{
place = "{42, 80}";
type = Stem;
}
);
layerId = "89156F97-8AE0-4F29-8E8C-D321EE696556";
paths = (
{
closed = 1;
nodes = (
"121 71 LINE",
"121 71 LINE",
"120 72 OFFCURVE",
"120 72 OFFCURVE",
"119 72 CURVE SMOOTH",
"114 72 OFFCURVE",
"103 68 OFFCURVE",
"88 60 CURVE SMOOTH",
"73 52 OFFCURVE",
"64 46 OFFCURVE",
"60 41 CURVE",
"48 36 OFFCURVE",
"42 28 OFFCURVE",
"42 16 CURVE SMOOTH",
"42 11 OFFCURVE",
"44 4 OFFCURVE",
"49 -4 CURVE SMOOTH",
"53 -11 OFFCURVE",
"58 -15 OFFCURVE",
"63 -15 CURVE SMOOTH",
"76 -15 OFFCURVE",
"87 -4 OFFCURVE",
"93 18 CURVE SMOOTH",
"97 33 OFFCURVE",
"102 44 OFFCURVE",
"107 52 CURVE",
"107 53 OFFCURVE",
"110 56 OFFCURVE",
"115 61 CURVE SMOOTH",
"119 66 OFFCURVE",
"122 69 OFFCURVE",
"122 70 CURVE"
);
}
);
width = 152;
}
);
note = period;
unicode = 002E;
},
{
glyphname = slash;
layers = (
{
hints = (
{
horizontal = 1;
place = "{-117, 832}";
type = Stem;
},
{
place = "{-9, 744}";
type = Stem;
}
);
layerId = "89156F97-8AE0-4F29-8E8C-D321EE696556";
paths = (
{
closed = 1;
nodes = (
"735 713 OFFCURVE",
"731 715 OFFCURVE",
"722 715 CURVE SMOOTH",
"705 715 OFFCURVE",
"688 709 OFFCURVE",
"669 696 CURVE",
"614 651 OFFCURVE",
"573 615 OFFCURVE",
"543 587 CURVE SMOOTH",
"438 489 OFFCURVE",
"338 388 OFFCURVE",
"245 283 CURVE SMOOTH",
"118 140 OFFCURVE",
"38 28 OFFCURVE",
"4 -55 CURVE SMOOTH",
"-5 -77 OFFCURVE",
"-9 -91 OFFCURVE",
"-9 -97 CURVE SMOOTH",
"-9 -100 OFFCURVE",
"-6 -105 OFFCURVE",
"-1 -110 CURVE SMOOTH",
"4 -115 OFFCURVE",
"7 -117 OFFCURVE",
"10 -117 CURVE SMOOTH",
"11 -117 OFFCURVE",
"11 -117 OFFCURVE",
"12 -116 CURVE",
"20 -85 OFFCURVE",
"29 -59 OFFCURVE",
"39 -37 CURVE SMOOTH",
"89 72 OFFCURVE",
"192 204 OFFCURVE",
"347 361 CURVE SMOOTH",
"460 476 OFFCURVE",
"588 590 OFFCURVE",
"730 704 CURVE SMOOTH",
"733 707 OFFCURVE",
"735 709 OFFCURVE",
"735 710 CURVE SMOOTH"
);
}
);
width = 446;
}
);
note = slash;
unicode = 002F;
},
{
glyphname = zero;
layers = (
{
hints = (
{
horizontal = 1;
place = "{-54, 42}";
type = Stem;
},
{
horizontal = 1;
place = "{480, 12}";
type = Stem;
},
{
horizontal = 1;
place = "{519, 21}";
target = up;
type = BottomGhost;
},
{
place = "{39, 16}";
type = Stem;
},
{
place = "{584, 12}";
type = Stem;
}
);
layerId = "89156F97-8AE0-4F29-8E8C-D321EE696556";
paths = (
{
closed = 1;
nodes = (
"596 347 OFFCURVE",
"595 363 OFFCURVE",
"593 378 CURVE SMOOTH",
"586 427 OFFCURVE",
"562 467 OFFCURVE",
"520 497 CURVE SMOOTH",
"481 525 OFFCURVE",
"436 540 OFFCURVE",
"385 540 CURVE SMOOTH",
"262 540 OFFCURVE",
"165 501 OFFCURVE",
"92 424 CURVE SMOOTH",
"53 383 OFFCURVE",
"34 339 OFFCURVE",
"34 290 CURVE SMOOTH",
"34 259 OFFCURVE",
"40 230 OFFCURVE",
"51 205 CURVE",
"43 177 OFFCURVE",
"39 149 OFFCURVE",
"39 120 CURVE SMOOTH",
"39 65 OFFCURVE",
"55 23 OFFCURVE",
"87 -8 CURVE SMOOTH",
"118 -39 OFFCURVE",
"161 -54 OFFCURVE",
"216 -54 CURVE SMOOTH",
"255 -54 OFFCURVE",
"295 -46 OFFCURVE",
"336 -30 CURVE SMOOTH",
"413 -1 OFFCURVE",
"475 46 OFFCURVE",
"522 110 CURVE SMOOTH",
"571 177 OFFCURVE",
"596 250 OFFCURVE",
"596 330 CURVE SMOOTH"
);
},
{
closed = 1;
nodes = (
"584 275 OFFCURVE",
"558 212 OFFCURVE",
"507 151 CURVE SMOOTH",
"463 98 OFFCURVE",
"407 56 OFFCURVE",
"340 24 CURVE SMOOTH",
"289 0 OFFCURVE",
"241 -12 OFFCURVE",
"196 -12 CURVE SMOOTH",
"153 -12 OFFCURVE",
"118 -1 OFFCURVE",
"93 21 CURVE SMOOTH",
"68 43 OFFCURVE",
"55 75 OFFCURVE",
"55 118 CURVE SMOOTH",
"55 127 OFFCURVE",
"60 146 OFFCURVE",
"70 174 CURVE",
"88 149 OFFCURVE",
"113 128 OFFCURVE",
"146 113 CURVE SMOOTH",
"179 98 OFFCURVE",
"211 90 OFFCURVE",
"243 90 CURVE SMOOTH",
"276 90 OFFCURVE",
"292 93 OFFCURVE",
"292 100 CURVE SMOOTH",
"292 103 OFFCURVE",
"288 104 OFFCURVE",
"281 104 CURVE SMOOTH",
"280 104 OFFCURVE",
"278 104 OFFCURVE",
"275 104 CURVE SMOOTH",
"272 104 OFFCURVE",
"271 104 OFFCURVE",
"270 104 CURVE SMOOTH",
"237 104 OFFCURVE",
"201 113 OFFCURVE",
"163 131 CURVE SMOOTH",
"122 151 OFFCURVE",
"94 174 OFFCURVE",
"80 201 CURVE",
"107 262 OFFCURVE",
"155 323 OFFCURVE",
"225 383 CURVE SMOOTH",
"301 448 OFFCURVE",
"369 480 OFFCURVE",
"429 480 CURVE SMOOTH",
"443 480 OFFCURVE",
"450 482 OFFCURVE",
"450 486 CURVE SMOOTH",
"450 490 OFFCURVE",
"443 492 OFFCURVE",
"430 492 CURVE SMOOTH",
"361 492 OFFCURVE",
"290 468 OFFCURVE",
"219 418 CURVE SMOOTH",
"152 372 OFFCURVE",
"102 315 OFFCURVE",
"67 250 CURVE",
"66 253 OFFCURVE",
"65 259 OFFCURVE",
"65 266 CURVE SMOOTH",
"65 295 OFFCURVE",
"71 323 OFFCURVE",
"84 350 CURVE SMOOTH",
"110 404 OFFCURVE",
"152 446 OFFCURVE",
"210 477 CURVE SMOOTH",
"263 505 OFFCURVE",
"322 519 OFFCURVE",
"385 519 CURVE SMOOTH",
"431 519 OFFCURVE",
"473 506 OFFCURVE",
"511 481 CURVE SMOOTH",
"552 454 OFFCURVE",
"576 419 OFFCURVE",
"582 376 CURVE SMOOTH",
"583 365 OFFCURVE",
"584 354 OFFCURVE",
"584 342 CURVE SMOOTH"
);
}
);
width = 600;
}
);
note = zero;
unicode = 0030;
},
{
glyphname = one;
layers = (
{
hints = (
{
horizontal = 1;
place = "{-14, 32}";
type = Stem;
}
);
layerId = "89156F97-8AE0-4F29-8E8C-D321EE696556";
paths = (
{
closed = 1;
nodes = (
"457 519 OFFCURVE",
"450 527 OFFCURVE",
"437 527 CURVE SMOOTH",
"428 527 OFFCURVE",
"415 521 OFFCURVE",
"400 508 CURVE SMOOTH",
"388 498 OFFCURVE",
"378 488 OFFCURVE",
"367 478 CURVE SMOOTH",
"333 447 OFFCURVE",
"294 413 OFFCURVE",
"253 376 CURVE SMOOTH",
"232 357 OFFCURVE",
"216 344 OFFCURVE",
"206 334 CURVE SMOOTH",
"201 330 OFFCURVE",
"199 325 OFFCURVE",
"199 321 CURVE SMOOTH",
"199 318 OFFCURVE",
"202 316 OFFCURVE",
"207 316 CURVE SMOOTH",
"212 316 OFFCURVE",
"238 335 OFFCURVE",
"283 374 CURVE SMOOTH",
"312 399 OFFCURVE",
"337 416 OFFCURVE",
"358 425 CURVE",
"357 422 OFFCURVE",
"355 419 OFFCURVE",
"352 414 CURVE SMOOTH",
"297 326 LINE SMOOTH",
"237 230 OFFCURVE",
"207 180 OFFCURVE",
"205 177 CURVE SMOOTH",
"170 114 OFFCURVE",
"150 61 OFFCURVE",
"146 18 CURVE",
"79 15 OFFCURVE",
"36 14 OFFCURVE",
"17 14 CURVE SMOOTH",
"13 14 OFFCURVE",
"11 9 OFFCURVE",
"11 -1 CURVE SMOOTH",
"11 -19 OFFCURVE",
"14 -28 OFFCURVE",
"21 -28 CURVE SMOOTH",
"46 -28 OFFCURVE",
"89 -23 OFFCURVE",
"148 -14 CURVE",
"153 -25 OFFCURVE",
"165 -31 OFFCURVE",
"182 -31 CURVE SMOOTH",
"187 -31 OFFCURVE",
"189 -27 OFFCURVE",
"189 -18 CURVE SMOOTH",
"189 -15 OFFCURVE",
"189 -12 OFFCURVE",
"188 -7 CURVE",
"227 -2 OFFCURVE",
"258 1 OFFCURVE",
"283 1 CURVE SMOOTH",
"286 1 OFFCURVE",
"291 1 OFFCURVE",
"298 1 CURVE SMOOTH",
"305 0 OFFCURVE",
"310 0 OFFCURVE",
"313 0 CURVE SMOOTH",
"318 0 OFFCURVE",
"321 3 OFFCURVE",
"321 8 CURVE SMOOTH",
"321 12 OFFCURVE",
"319 14 OFFCURVE",
"314 15 CURVE SMOOTH",
"297 18 OFFCURVE",
"266 19 OFFCURVE",
"219 19 CURVE SMOOTH",
"188 19 LINE",
"189 21 LINE",
"200 83 OFFCURVE",
"225 151 OFFCURVE",
"264 225 CURVE SMOOTH",
"299 292 OFFCURVE",
"337 353 OFFCURVE",
"383 408 CURVE SMOOTH",
"411 441 OFFCURVE",
"433 465 OFFCURVE",
"448 480 CURVE SMOOTH",
"454 487 OFFCURVE",
"457 495 OFFCURVE",
"457 504 CURVE SMOOTH"
);
}
);
width = 354;
}
);
note = one;
unicode = 0031;
},
{
glyphname = two;
layers = (
{
hints = (
{
horizontal = 1;
place = "{-63, 45}";
type = Stem;
},
{
horizontal = 1;
place = "{6, 12}";
type = Stem;
},
{
horizontal = 1;
place = "{58, 26}";
type = Stem;
},
{
horizontal = 1;
place = "{486, 15}";
type = Stem;
},
{
place = "{16, 20}";
type = Stem;
},
{
place = "{239, 17}";
type = Stem;
},
{
place = "{559, 51}";
type = Stem;
},
{
place = "{622, 13}";
type = Stem;
}
);
layerId = "89156F97-8AE0-4F29-8E8C-D321EE696556";
paths = (
{
closed = 1;
nodes = (
"635 55 OFFCURVE",
"622 79 OFFCURVE",
"596 102 CURVE SMOOTH",
"571 125 OFFCURVE",
"545 136 OFFCURVE",
"519 136 CURVE SMOOTH",
"514 136 OFFCURVE",
"512 135 OFFCURVE",
"512 132 CURVE SMOOTH",
"512 131 OFFCURVE",
"514 130 OFFCURVE",
"517 129 CURVE SMOOTH",
"541 123 OFFCURVE",
"563 111 OFFCURVE",
"584 95 CURVE SMOOTH",
"609 76 OFFCURVE",
"622 55 OFFCURVE",
"622 34 CURVE SMOOTH",
"622 15 OFFCURVE",
"609 1 OFFCURVE",
"584 -8 CURVE SMOOTH",
"565 -15 OFFCURVE",
"545 -18 OFFCURVE",
"522 -18 CURVE SMOOTH",
"494 -18 OFFCURVE",
"450 -11 OFFCURVE",
"391 3 CURVE SMOOTH",
"308 23 OFFCURVE",
"245 39 OFFCURVE",
"204 50 CURVE",
"297 93 OFFCURVE",
"379 140 OFFCURVE",
"451 192 CURVE SMOOTH",
"557 270 OFFCURVE",
"610 341 OFFCURVE",
"610 404 CURVE SMOOTH",
"610 437 OFFCURVE",
"596 462 OFFCURVE",
"569 479 CURVE SMOOTH",
"545 494 OFFCURVE",
"516 501 OFFCURVE",
"481 501 CURVE SMOOTH",
"432 501 OFFCURVE",
"382 488 OFFCURVE",
"330 462 CURVE SMOOTH",
"269 431 OFFCURVE",
"239 393 OFFCURVE",
"239 349 CURVE SMOOTH",
"239 342 OFFCURVE",
"241 332 OFFCURVE",
"244 321 CURVE SMOOTH",
"248 307 OFFCURVE",
"253 300 OFFCURVE",
"258 300 CURVE SMOOTH",
"259 300 OFFCURVE",
"260 302 OFFCURVE",
"260 305 CURVE SMOOTH",
"260 308 OFFCURVE",
"259 313 OFFCURVE",
"258 320 CURVE SMOOTH",
"257 326 OFFCURVE",
"256 331 OFFCURVE",
"256 334 CURVE SMOOTH",
"256 379 OFFCURVE",
"283 416 OFFCURVE",
"337 447 CURVE SMOOTH",
"383 473 OFFCURVE",
"430 486 OFFCURVE",
"478 486 CURVE SMOOTH",
"500 486 OFFCURVE",
"518 481 OFFCURVE",
"533 471 CURVE SMOOTH",
"550 459 OFFCURVE",
"559 443 OFFCURVE",
"559 422 CURVE SMOOTH",
"559 362 OFFCURVE",
"515 294 OFFCURVE",
"424 223 CURVE SMOOTH",
"392 198 OFFCURVE",
"365 181 OFFCURVE",
"347 169 CURVE SMOOTH",
"280 125 OFFCURVE",
"222 90 OFFCURVE",
"172 65 CURVE",
"133 78 OFFCURVE",
"101 84 OFFCURVE",
"77 84 CURVE SMOOTH",
"36 84 OFFCURVE",
"16 70 OFFCURVE",
"16 41 CURVE SMOOTH",
"16 18 OFFCURVE",
"31 6 OFFCURVE",
"61 6 CURVE SMOOTH",
"88 6 OFFCURVE",
"126 16 OFFCURVE",
"175 37 CURVE",
"226 16 OFFCURVE",
"276 -6 OFFCURVE",
"326 -27 CURVE SMOOTH",
"385 -51 OFFCURVE",
"439 -63 OFFCURVE",
"488 -63 CURVE SMOOTH",
"525 -63 OFFCURVE",
"557 -56 OFFCURVE",
"583 -44 CURVE SMOOTH",
"618 -28 OFFCURVE",
"635 -4 OFFCURVE",
"635 29 CURVE SMOOTH"
);
},
{
closed = 1;
nodes = (
"123 41 OFFCURVE",
"111 35 OFFCURVE",
"99 29 CURVE SMOOTH",
"85 22 OFFCURVE",
"72 18 OFFCURVE",
"61 18 CURVE SMOOTH",
"44 18 OFFCURVE",
"36 24 OFFCURVE",
"36 35 CURVE SMOOTH",
"36 50 OFFCURVE",
"50 58 OFFCURVE",
"77 58 CURVE SMOOTH",
"85 58 OFFCURVE",
"104 55 OFFCURVE",
"135 48 CURVE"
);
}
);
width = 647;
}
);
note = two;
unicode = 0032;
},
{
glyphname = three;
layers = (
{
hints = (
{
horizontal = 1;
place = "{-57, 13}";
type = Stem;
},
{
horizontal = 1;
place = "{141, 19}";
type = Stem;
},
{
horizontal = 1;
place = "{493, 23}";
type = Stem;
},
{
place = "{2, 38}";
type = Stem;
},
{
place = "{263, 31}";
type = Stem;
},
{
place = "{617, 27}";
type = Stem;
}
);
layerId = "89156F97-8AE0-4F29-8E8C-D321EE696556";
paths = (
{
closed = 1;
nodes = (
"644 456 OFFCURVE",
"620 480 OFFCURVE",
"573 497 CURVE SMOOTH",
"538 509 OFFCURVE",
"501 516 OFFCURVE",
"461 516 CURVE SMOOTH",
"423 516 OFFCURVE",
"384 510 OFFCURVE",
"343 497 CURVE SMOOTH",
"290 480 OFFCURVE",
"263 457 OFFCURVE",
"263 428 CURVE SMOOTH",
"263 409 OFFCURVE",
"269 399 OFFCURVE",
"281 399 CURVE SMOOTH",
"290 399 OFFCURVE",
"294 405 OFFCURVE",
"294 416 CURVE SMOOTH",
"294 443 OFFCURVE",
"316 464 OFFCURVE",
"359 478 CURVE SMOOTH",
"390 488 OFFCURVE",
"423 493 OFFCURVE",
"457 493 CURVE SMOOTH",
"490 493 OFFCURVE",
"521 490 OFFCURVE",
"551 483 CURVE SMOOTH",
"595 473 OFFCURVE",
"617 458 OFFCURVE",
"617 438 CURVE SMOOTH",
"617 410 OFFCURVE",
"590 383 OFFCURVE",
"535 358 CURVE SMOOTH",
"496 340 OFFCURVE",
"456 326 OFFCURVE",
"416 319 CURVE SMOOTH",
"385 314 OFFCURVE",
"362 311 OFFCURVE",
"347 309 CURVE",
"334 305 OFFCURVE",
"328 298 OFFCURVE",
"328 288 CURVE SMOOTH",
"328 279 OFFCURVE",
"333 274 OFFCURVE",
"342 274 CURVE SMOOTH",
"397 274 OFFCURVE",
"445 267 OFFCURVE",
"485 254 CURVE SMOOTH",
"545 235 OFFCURVE",
"575 204 OFFCURVE",
"575 161 CURVE SMOOTH",
"575 96 OFFCURVE",
"530 43 OFFCURVE",
"439 3 CURVE SMOOTH",
"366 -29 OFFCURVE",
"292 -44 OFFCURVE",
"217 -44 CURVE SMOOTH",
"172 -44 OFFCURVE",
"134 -35 OFFCURVE",
"101 -18 CURVE SMOOTH",
"60 3 OFFCURVE",
"40 35 OFFCURVE",
"40 76 CURVE SMOOTH",
"40 99 OFFCURVE",
"53 117 OFFCURVE",
"80 128 CURVE SMOOTH",
"100 137 OFFCURVE",
"123 141 OFFCURVE",
"150 141 CURVE SMOOTH",
"161 141 OFFCURVE",
"166 143 OFFCURVE",
"166 147 CURVE SMOOTH",
"166 156 OFFCURVE",
"152 160 OFFCURVE",
"123 160 CURVE SMOOTH",
"93 160 OFFCURVE",
"66 153 OFFCURVE",
"43 138 CURVE SMOOTH",
"16 121 OFFCURVE",
"2 98 OFFCURVE",
"2 70 CURVE SMOOTH",
"2 23 OFFCURVE",
"32 -11 OFFCURVE",
"92 -33 CURVE SMOOTH",
"134 -49 OFFCURVE",
"184 -57 OFFCURVE",
"241 -57 CURVE SMOOTH",
"326 -57 OFFCURVE",
"407 -41 OFFCURVE",
"483 -9 CURVE SMOOTH",
"581 32 OFFCURVE",
"630 89 OFFCURVE",
"630 162 CURVE SMOOTH",
"630 231 OFFCURVE",
"574 275 OFFCURVE",
"461 296 CURVE",
"583 319 OFFCURVE",
"644 361 OFFCURVE",
"644 424 CURVE SMOOTH"
);
}
);
width = 652;
}
);
note = three;
unicode = 0033;
},
{
glyphname = four;
layers = (
{
hints = (
{
horizontal = 1;
place = "{-24, 17}";
type = Stem;
},
{
horizontal = 1;
place = "{112, 48}";
type = Stem;
},
{
horizontal = 1;
place = "{173, 18}";
type = Stem;
},
{
horizontal = 1;
place = "{214, 12}";
type = Stem;
},
{
place = "{-2, 14}";
type = Stem;
},
{
place = "{648, 13}";
type = Stem;
}
);
layerId = "89156F97-8AE0-4F29-8E8C-D321EE696556";
paths = (
{
closed = 1;
nodes = (
"661 242 OFFCURVE",
"647 267 OFFCURVE",
"619 287 CURVE SMOOTH",
"594 305 OFFCURVE",
"566 314 OFFCURVE",
"536 314 CURVE SMOOTH",
"529 314 OFFCURVE",
"526 313 OFFCURVE",
"526 310 CURVE SMOOTH",
"526 309 OFFCURVE",
"528 308 OFFCURVE",
"531 307 CURVE",
"545 305 OFFCURVE",
"556 303 OFFCURVE",
"565 300 CURVE SMOOTH",
"584 294 OFFCURVE",
"602 284 OFFCURVE",
"618 271 CURVE SMOOTH",
"638 255 OFFCURVE",
"648 239 OFFCURVE",
"648 222 CURVE SMOOTH",
"648 195 OFFCURVE",
"622 176 OFFCURVE",
"570 164 CURVE SMOOTH",
"557 161 OFFCURVE",
"540 160 OFFCURVE",
"518 160 CURVE SMOOTH",
"485 160 OFFCURVE",
"442 163 OFFCURVE",
"390 169 CURVE",
"423 231 OFFCURVE",
"448 277 OFFCURVE",
"464 307 CURVE SMOOTH",
"477 331 OFFCURVE",
"487 352 OFFCURVE",
"496 368 CURVE",
"504 375 OFFCURVE",
"510 380 OFFCURVE",
"514 383 CURVE",
"516 386 OFFCURVE",
"530 415 OFFCURVE",
"555 471 CURVE SMOOTH",
"579 526 OFFCURVE",
"592 555 OFFCURVE",
"592 556 CURVE SMOOTH",
"592 563 OFFCURVE",
"586 566 OFFCURVE",
"573 566 CURVE SMOOTH",
"556 566 OFFCURVE",
"542 560 OFFCURVE",
"532 548 CURVE SMOOTH",
"505 518 OFFCURVE",
"484 496 OFFCURVE",
"470 481 CURVE SMOOTH",
"406 411 OFFCURVE",
"357 360 OFFCURVE",
"320 328 CURVE SMOOTH",
"257 273 OFFCURVE",
"197 235 OFFCURVE",
"140 214 CURVE",
"105 222 OFFCURVE",
"76 226 OFFCURVE",
"54 226 CURVE SMOOTH",
"17 226 OFFCURVE",
"-2 218 OFFCURVE",
"-2 201 CURVE SMOOTH",
"-2 182 OFFCURVE",
"12 173 OFFCURVE",
"39 173 CURVE SMOOTH",
"56 173 OFFCURVE",
"84 178 OFFCURVE",
"123 189 CURVE",
"208 164 OFFCURVE",
"279 146 OFFCURVE",
"334 135 CURVE",
"311 76 OFFCURVE",
"298 28 OFFCURVE",
"293 -9 CURVE",
"240 -10 OFFCURVE",
"203 -11 OFFCURVE",
"181 -11 CURVE SMOOTH",
"177 -11 OFFCURVE",
"175 -16 OFFCURVE",
"175 -26 CURVE SMOOTH",
"175 -45 OFFCURVE",
"178 -54 OFFCURVE",
"185 -54 CURVE SMOOTH",
"214 -54 OFFCURVE",
"258 -49 OFFCURVE",
"316 -39 CURVE SMOOTH",
"373 -29 OFFCURVE",
"417 -24 OFFCURVE",
"447 -24 CURVE SMOOTH",
"450 -24 OFFCURVE",
"454 -24 OFFCURVE",
"461 -25 CURVE SMOOTH",
"468 -26 OFFCURVE",
"473 -26 OFFCURVE",
"476 -26 CURVE SMOOTH",
"481 -26 OFFCURVE",
"484 -23 OFFCURVE",
"484 -18 CURVE SMOOTH",
"484 -14 OFFCURVE",
"482 -12 OFFCURVE",
"477 -11 CURVE SMOOTH",
"462 -8 OFFCURVE",
"431 -7 OFFCURVE",
"382 -7 CURVE SMOOTH",
"365 -7 OFFCURVE",
"344 -7 OFFCURVE",
"321 -8 CURVE",
"327 27 OFFCURVE",
"343 72 OFFCURVE",
"369 127 CURVE",
"422 117 OFFCURVE",
"466 112 OFFCURVE",
"499 112 CURVE SMOOTH",
"537 112 OFFCURVE",
"571 119 OFFCURVE",
"602 134 CURVE SMOOTH",
"641 153 OFFCURVE",
"661 179 OFFCURVE",
"661 214 CURVE SMOOTH"
);
},
{
closed = 1;
nodes = (
"413 318 OFFCURVE",
"377 241 OFFCURVE",
"350 175 CURVE",
"277 185 OFFCURVE",
"215 196 OFFCURVE",
"165 207 CURVE",
"252 242 OFFCURVE",
"350 308 OFFCURVE",
"457 405 CURVE"
);
},
{
closed = 1;
nodes = (
"80 194 OFFCURVE",
"64 191 OFFCURVE",
"53 191 CURVE SMOOTH",
"26 191 OFFCURVE",
"12 194 OFFCURVE",
"12 200 CURVE SMOOTH",
"12 209 OFFCURVE",
"23 214 OFFCURVE",
"44 214 CURVE SMOOTH",
"61 214 OFFCURVE",
"80 209 OFFCURVE",
"101 200 CURVE"
);
}
);
width = 607;
}
);
note = four;
unicode = 0034;
},
{
glyphname = five;
layers = (
{
hints = (
{
horizontal = 1;
place = "{-86, 22}";
type = Stem;
},
{
horizontal = 1;
place = "{104, 12}";
type = Stem;
},
{
horizontal = 1;
place = "{293, 23}";
type = Stem;
},
{
horizontal = 1;
place = "{425, 48}";
type = Stem;
},
{
horizontal = 1;
place = "{501, 22}";
type = Stem;
},
{
place = "{-16, 37}";
type = Stem;
},
{
place = "{243, 19}";
type = Stem;
},
{
place = "{635, 54}";
type = Stem;
},
{
place = "{771, 13}";
type = Stem;
}
);
layerId = "89156F97-8AE0-4F29-8E8C-D321EE696556";
paths = (
{
closed = 1;
nodes = (
"784 552 OFFCURVE",
"771 576 OFFCURVE",
"744 596 CURVE SMOOTH",
"717 616 OFFCURVE",
"690 626 OFFCURVE",
"661 626 CURVE SMOOTH",
"655 626 OFFCURVE",
"652 625 OFFCURVE",
"652 622 CURVE SMOOTH",
"652 621 OFFCURVE",
"654 620 OFFCURVE",
"658 619 CURVE SMOOTH",
"671 616 OFFCURVE",
"683 614 OFFCURVE",
"692 610 CURVE SMOOTH",
"711 603 OFFCURVE",
"728 593 OFFCURVE",
"743 580 CURVE SMOOTH",
"762 564 OFFCURVE",
"771 547 OFFCURVE",
"771 531 CURVE SMOOTH",
"771 512 OFFCURVE",
"757 496 OFFCURVE",
"728 485 CURVE SMOOTH",
"706 477 OFFCURVE",
"683 473 OFFCURVE",
"660 473 CURVE SMOOTH",
"633 473 OFFCURVE",
"591 477 OFFCURVE",
"535 486 CURVE SMOOTH",
"495 493 OFFCURVE",
"455 501 OFFCURVE",
"415 508 CURVE SMOOTH",
"362 518 OFFCURVE",
"322 523 OFFCURVE",
"297 523 CURVE SMOOTH",
"261 523 OFFCURVE",
"243 512 OFFCURVE",
"243 489 CURVE SMOOTH",
"243 481 OFFCURVE",
"247 473 OFFCURVE",
"255 465 CURVE SMOOTH",
"263 457 OFFCURVE",
"271 453 OFFCURVE",
"278 453 CURVE SMOOTH",
"282 453 OFFCURVE",
"284 455 OFFCURVE",
"284 460 CURVE SMOOTH",
"284 462 OFFCURVE",
"280 466 OFFCURVE",
"273 471 CURVE SMOOTH",
"266 476 OFFCURVE",
"262 482 OFFCURVE",
"262 487 CURVE SMOOTH",
"262 496 OFFCURVE",
"272 501 OFFCURVE",
"291 501 CURVE SMOOTH",
"307 501 OFFCURVE",
"342 492 OFFCURVE",
"397 474 CURVE SMOOTH",
"496 441 OFFCURVE",
"570 425 OFFCURVE",
"620 425 CURVE SMOOTH",
"659 425 OFFCURVE",
"694 432 OFFCURVE",
"724 445 CURVE SMOOTH",
"764 462 OFFCURVE",
"784 489 OFFCURVE",
"784 524 CURVE SMOOTH"
);
},
{
closed = 1;
nodes = (
"689 250 OFFCURVE",
"671 277 OFFCURVE",
"635 295 CURVE SMOOTH",
"607 309 OFFCURVE",
"573 316 OFFCURVE",
"532 316 CURVE SMOOTH",
"504 316 OFFCURVE",
"470 309 OFFCURVE",
"430 297 CURVE SMOOTH",
"397 287 OFFCURVE",
"363 277 OFFCURVE",
"330 266 CURVE",
"339 281 OFFCURVE",
"356 312 OFFCURVE",
"383 360 CURVE SMOOTH",
"412 413 OFFCURVE",
"427 441 OFFCURVE",
"427 445 CURVE SMOOTH",
"427 454 OFFCURVE",
"420 458 OFFCURVE",
"405 458 CURVE SMOOTH",
"392 458 OFFCURVE",
"381 452 OFFCURVE",
"372 440 CURVE",
"362 421 OFFCURVE",
"355 404 OFFCURVE",
"349 392 CURVE SMOOTH",
"324 338 OFFCURVE",
"303 302 OFFCURVE",
"290 283 CURVE SMOOTH",
"277 265 OFFCURVE",
"271 254 OFFCURVE",
"271 250 CURVE SMOOTH",
"271 243 OFFCURVE",
"275 240 OFFCURVE",
"284 240 CURVE SMOOTH",
"287 240 OFFCURVE",
"297 242 OFFCURVE",
"314 248 CURVE SMOOTH",
"402 278 OFFCURVE",
"475 293 OFFCURVE",
"532 293 CURVE SMOOTH",
"601 293 OFFCURVE",
"635 271 OFFCURVE",
"635 226 CURVE SMOOTH",
"635 193 OFFCURVE",
"618 158 OFFCURVE",
"583 119 CURVE SMOOTH",
"530 60 OFFCURVE",
"461 14 OFFCURVE",
"375 -19 CURVE SMOOTH",
"296 -49 OFFCURVE",
"214 -64 OFFCURVE",
"129 -64 CURVE SMOOTH",
"106 -64 OFFCURVE",
"84 -61 OFFCURVE",
"65 -56 CURVE SMOOTH",
"36 -48 OFFCURVE",
"21 -37 OFFCURVE",
"21 -20 CURVE SMOOTH",
"21 7 OFFCURVE",
"64 36 OFFCURVE",
"150 65 CURVE SMOOTH",
"225 91 OFFCURVE",
"282 104 OFFCURVE",
"321 104 CURVE SMOOTH",
"334 104 OFFCURVE",
"341 106 OFFCURVE",
"341 109 CURVE SMOOTH",
"341 114 OFFCURVE",
"334 116 OFFCURVE",
"321 116 CURVE SMOOTH",
"263 116 OFFCURVE",
"198 106 OFFCURVE",
"125 86 CURVE SMOOTH",
"31 60 OFFCURVE",
"-16 27 OFFCURVE",
"-16 -13 CURVE SMOOTH",
"-16 -39 OFFCURVE",
"3 -59 OFFCURVE",
"41 -72 CURVE SMOOTH",
"68 -81 OFFCURVE",
"97 -86 OFFCURVE",
"129 -86 CURVE SMOOTH",
"228 -86 OFFCURVE",
"322 -72 OFFCURVE",
"410 -42 CURVE SMOOTH",
"513 -7 OFFCURVE",
"591 45 OFFCURVE",
"645 111 CURVE SMOOTH",
"674 147 OFFCURVE",
"689 181 OFFCURVE",
"689 213 CURVE SMOOTH"
);
}
);
width = 720;
}
);
note = five;
unicode = 0035;
},
{
glyphname = six;
layers = (
{
hints = (
{
horizontal = 1;
place = "{-62, 18}";
type = Stem;
},
{
horizontal = 1;
place = "{201, 28}";
type = Stem;
},
{
place = "{10, 52}";
type = Stem;
},
{
place = "{454, 49}";
type = Stem;
}
);
layerId = "89156F97-8AE0-4F29-8E8C-D321EE696556";
paths = (
{
closed = 1;
nodes = (
"542 512 OFFCURVE",
"539 514 OFFCURVE",
"532 514 CURVE SMOOTH",
"529 514 OFFCURVE",
"525 514 OFFCURVE",
"521 512 CURVE SMOOTH",
"412 468 OFFCURVE",
"307 406 OFFCURVE",
"205 325 CURVE SMOOTH",
"75 222 OFFCURVE",
"10 127 OFFCURVE",
"10 40 CURVE SMOOTH",
"10 5 OFFCURVE",
"24 -21 OFFCURVE",
"53 -38 CURVE",
"49 -51 OFFCURVE",
"47 -64 OFFCURVE",
"47 -76 CURVE SMOOTH",
"47 -95 OFFCURVE",
"50 -104 OFFCURVE",
"57 -104 CURVE SMOOTH",
"64 -104 OFFCURVE",
"70 -97 OFFCURVE",
"73 -82 CURVE SMOOTH",
"74 -71 OFFCURVE",
"76 -61 OFFCURVE",
"77 -50 CURVE",
"99 -58 OFFCURVE",
"124 -62 OFFCURVE",
"153 -62 CURVE SMOOTH",
"190 -62 OFFCURVE",
"230 -56 OFFCURVE",
"273 -44 CURVE SMOOTH",
"328 -29 OFFCURVE",
"377 -6 OFFCURVE",
"419 24 CURVE SMOOTH",
"475 63 OFFCURVE",
"503 105 OFFCURVE",
"503 151 CURVE SMOOTH",
"503 203 OFFCURVE",
"471 229 OFFCURVE",
"408 229 CURVE SMOOTH",
"345 229 OFFCURVE",
"280 205 OFFCURVE",
"212 157 CURVE SMOOTH",
"149 112 OFFCURVE",
"101 61 OFFCURVE",
"69 2 CURVE",
"64 13 OFFCURVE",
"62 26 OFFCURVE",
"62 40 CURVE SMOOTH",
"62 115 OFFCURVE",
"105 193 OFFCURVE",
"190 275 CURVE SMOOTH",
"251 333 OFFCURVE",
"326 388 OFFCURVE",
"417 438 CURVE SMOOTH",
"464 464 OFFCURVE",
"500 481 OFFCURVE",
"525 492 CURVE SMOOTH",
"536 497 OFFCURVE",
"542 502 OFFCURVE",
"542 507 CURVE SMOOTH"
);
},
{
closed = 1;
nodes = (
"454 114 OFFCURVE",
"430 77 OFFCURVE",
"382 40 CURVE SMOOTH",
"345 11 OFFCURVE",
"304 -11 OFFCURVE",
"259 -26 CURVE SMOOTH",
"223 -38 OFFCURVE",
"190 -44 OFFCURVE",
"160 -44 CURVE SMOOTH",
"129 -44 OFFCURVE",
"104 -37 OFFCURVE",
"87 -22 CURVE",
"110 34 OFFCURVE",
"151 85 OFFCURVE",
"209 130 CURVE SMOOTH",
"270 177 OFFCURVE",
"329 201 OFFCURVE",
"387 201 CURVE SMOOTH",
"432 201 OFFCURVE",
"454 184 OFFCURVE",
"454 151 CURVE SMOOTH"
);
}
);
width = 543;
}
);
note = six;
unicode = 0036;
},
{
glyphname = seven;
layers = (
{
hints = (
{
horizontal = 1;
place = "{478, 16}";
type = Stem;
},
{
place = "{12, 14}";
type = Stem;
},
{
place = "{58, 46}";
type = Stem;
}
);
layerId = "89156F97-8AE0-4F29-8E8C-D321EE696556";
paths = (
{
closed = 1;
nodes = (
"542 524 LINE",
"522 504 OFFCURVE",
"494 494 OFFCURVE",
"458 494 CURVE SMOOTH",
"430 494 OFFCURVE",
"386 501 OFFCURVE",
"327 515 CURVE SMOOTH",
"268 528 OFFCURVE",
"222 535 OFFCURVE",
"190 535 CURVE SMOOTH",
"149 535 OFFCURVE",
"112 527 OFFCURVE",
"78 511 CURVE SMOOTH",
"34 490 OFFCURVE",
"12 462 OFFCURVE",
"12 426 CURVE SMOOTH",
"12 395 OFFCURVE",
"27 371 OFFCURVE",
"57 353 CURVE SMOOTH",
"83 337 OFFCURVE",
"111 329 OFFCURVE",
"144 329 CURVE SMOOTH",
"151 329 OFFCURVE",
"154 331 OFFCURVE",
"154 334 CURVE SMOOTH",
"154 335 OFFCURVE",
"152 337 OFFCURVE",
"148 337 CURVE SMOOTH",
"133 339 OFFCURVE",
"120 340 OFFCURVE",
"109 343 CURVE SMOOTH",
"90 349 OFFCURVE",
"72 358 OFFCURVE",
"56 370 CURVE SMOOTH",
"36 385 OFFCURVE",
"26 400 OFFCURVE",
"26 417 CURVE SMOOTH",
"26 442 OFFCURVE",
"51 462 OFFCURVE",
"100 477 CURVE SMOOTH",
"116 482 OFFCURVE",
"143 484 OFFCURVE",
"180 484 CURVE SMOOTH",
"207 484 OFFCURVE",
"247 483 OFFCURVE",
"301 480 CURVE SMOOTH",
"355 477 OFFCURVE",
"395 476 OFFCURVE",
"422 476 CURVE SMOOTH",
"446 476 OFFCURVE",
"467 477 OFFCURVE",
"484 478 CURVE",
"369 397 OFFCURVE",
"281 326 OFFCURVE",
"220 267 CURVE SMOOTH",
"112 162 OFFCURVE",
"58 70 OFFCURVE",
"58 -7 CURVE SMOOTH",
"58 -41 OFFCURVE",
"71 -58 OFFCURVE",
"97 -58 CURVE SMOOTH",
"102 -58 OFFCURVE",
"109 -56 OFFCURVE",
"119 -53 CURVE SMOOTH",
"128 -50 OFFCURVE",
"133 -47 OFFCURVE",
"133 -44 CURVE SMOOTH",
"133 -37 OFFCURVE",
"129 -33 OFFCURVE",
"120 -33 CURVE SMOOTH",
"118 -33 OFFCURVE",
"116 -34 OFFCURVE",
"114 -34 CURVE",
"112 -36 OFFCURVE",
"111 -36 OFFCURVE",
"110 -36 CURVE SMOOTH",
"106 -36 OFFCURVE",
"104 -29 OFFCURVE",
"104 -16 CURVE SMOOTH",
"104 61 OFFCURVE",
"162 158 OFFCURVE",
"278 277 CURVE SMOOTH",
"369 370 OFFCURVE",
"461 446 OFFCURVE",
"556 507 CURVE"
);
}
);
width = 405;
}
);
note = seven;
unicode = 0037;
},
{
glyphname = eight;
layers = (
{
hints = (
{
horizontal = 1;
place = "{-19, 24}";
type = Stem;
},
{
horizontal = 1;
place = "{526, 27}";
type = Stem;
},
{
place = "{46, 35}";
type = Stem;
},
{
place = "{183, 31}";
type = Stem;
},
{
place = "{300, 51}";
type = Stem;
},
{
place = "{412, 18}";
type = Stem;
}
);
layerId = "89156F97-8AE0-4F29-8E8C-D321EE696556";
paths = (
{
closed = 1;
nodes = (
"474 491 OFFCURVE",
"472 493 OFFCURVE",
"468 498 CURVE SMOOTH",
"460 508 OFFCURVE",
"456 513 OFFCURVE",
"455 514 CURVE SMOOTH",
"428 540 OFFCURVE",
"388 553 OFFCURVE",
"336 553 CURVE SMOOTH",
"290 553 OFFCURVE",
"254 542 OFFCURVE",
"227 521 CURVE SMOOTH",
"198 498 OFFCURVE",
"183 464 OFFCURVE",
"183 419 CURVE SMOOTH",
"183 375 OFFCURVE",
"196 334 OFFCURVE",
"222 297 CURVE",
"105 218 OFFCURVE",
"46 150 OFFCURVE",
"46 91 CURVE SMOOTH",
"46 56 OFFCURVE",
"59 28 OFFCURVE",
"85 8 CURVE SMOOTH",
"108 -10 OFFCURVE",
"138 -19 OFFCURVE",
"175 -19 CURVE SMOOTH",
"221 -19 OFFCURVE",
"261 -4 OFFCURVE",
"295 24 CURVE SMOOTH",
"332 54 OFFCURVE",
"351 91 OFFCURVE",
"351 136 CURVE SMOOTH",
"351 189 OFFCURVE",
"323 245 OFFCURVE",
"268 303 CURVE",
"285 320 OFFCURVE",
"300 332 OFFCURVE",
"311 341 CURVE SMOOTH",
"390 414 OFFCURVE",
"430 477 OFFCURVE",
"430 531 CURVE SMOOTH",
"430 564 OFFCURVE",
"414 594 OFFCURVE",
"382 620 CURVE SMOOTH",
"379 622 OFFCURVE",
"377 623 OFFCURVE",
"375 623 CURVE SMOOTH",
"370 623 OFFCURVE",
"368 619 OFFCURVE",
"369 610 CURVE",
"398 593 OFFCURVE",
"412 567 OFFCURVE",
"412 534 CURVE SMOOTH",
"412 501 OFFCURVE",
"399 466 OFFCURVE",
"374 431 CURVE SMOOTH",
"361 412 OFFCURVE",
"342 392 OFFCURVE",
"318 372 CURVE SMOOTH",
"297 354 OFFCURVE",
"275 337 OFFCURVE",
"254 320 CURVE",
"227 363 OFFCURVE",
"214 404 OFFCURVE",
"214 443 CURVE SMOOTH",
"214 498 OFFCURVE",
"251 526 OFFCURVE",
"325 526 CURVE SMOOTH",
"349 526 OFFCURVE",
"374 522 OFFCURVE",
"401 516 CURVE SMOOTH",
"432 508 OFFCURVE",
"455 498 OFFCURVE",
"470 485 CURVE",
"473 488 OFFCURVE",
"474 490 OFFCURVE",
"474 491 CURVE"
);
},
{
closed = 1;
nodes = (
"300 87 OFFCURVE",
"288 59 OFFCURVE",
"264 37 CURVE SMOOTH",
"240 16 OFFCURVE",
"211 5 OFFCURVE",
"176 5 CURVE SMOOTH",
"149 5 OFFCURVE",
"128 13 OFFCURVE",
"110 27 CURVE SMOOTH",
"91 43 OFFCURVE",
"81 63 OFFCURVE",
"81 89 CURVE SMOOTH",
"81 122 OFFCURVE",
"99 159 OFFCURVE",
"135 198 CURVE SMOOTH",
"164 230 OFFCURVE",
"197 256 OFFCURVE",
"234 277 CURVE",
"278 219 OFFCURVE",
"300 167 OFFCURVE",
"300 121 CURVE SMOOTH"
);
}
);
width = 415;
}
);
note = eight;
unicode = 0038;
},
{
glyphname = nine;
layers = (
{
hints = (
{
horizontal = 1;
place = "{156, 13}";
type = Stem;
},
{
horizontal = 1;
place = "{533, -20}";
target = down;
type = TopGhost;
},
{
place = "{29, 52}";
type = Stem;
},
{
place = "{170, 25}";
type = Stem;
},
{
place = "{556, 32}";
type = Stem;
}
);
layerId = "89156F97-8AE0-4F29-8E8C-D321EE696556";
paths = (
{
closed = 1;
nodes = (
"588 498 OFFCURVE",
"568 512 OFFCURVE",
"529 522 CURVE SMOOTH",
"502 529 OFFCURVE",
"473 533 OFFCURVE",
"442 533 CURVE SMOOTH",
"379 533 OFFCURVE",
"318 522 OFFCURVE",
"260 500 CURVE SMOOTH",
"212 482 OFFCURVE",
"163 449 OFFCURVE",
"113 401 CURVE SMOOTH",
"57 347 OFFCURVE",
"29 297 OFFCURVE",
"29 253 CURVE SMOOTH",
"29 223 OFFCURVE",
"41 199 OFFCURVE",
"66 181 CURVE SMOOTH",
"88 165 OFFCURVE",
"115 156 OFFCURVE",
"146 156 CURVE SMOOTH",
"198 156 OFFCURVE",
"268 197 OFFCURVE",
"357 278 CURVE",
"232 109 OFFCURVE",
"170 -11 OFFCURVE",
"170 -82 CURVE SMOOTH",
"170 -98 OFFCURVE",
"174 -112 OFFCURVE",
"181 -125 CURVE SMOOTH",
"190 -140 OFFCURVE",
"202 -147 OFFCURVE",
"217 -147 CURVE SMOOTH",
"220 -147 OFFCURVE",
"222 -146 OFFCURVE",
"222 -145 CURVE",
"222 -145 OFFCURVE",
"217 -140 OFFCURVE",
"207 -131 CURVE SMOOTH",
"199 -124 OFFCURVE",
"195 -111 OFFCURVE",
"195 -93 CURVE SMOOTH",
"195 -56 OFFCURVE",
"222 5 OFFCURVE",
"276 90 CURVE SMOOTH",
"307 139 OFFCURVE",
"356 209 OFFCURVE",
"425 302 CURVE SMOOTH",
"479 375 OFFCURVE",
"506 415 OFFCURVE",
"506 422 CURVE SMOOTH",
"506 432 OFFCURVE",
"500 437 OFFCURVE",
"488 437 CURVE SMOOTH",
"477 437 OFFCURVE",
"463 428 OFFCURVE",
"447 408 CURVE SMOOTH",
"435 394 OFFCURVE",
"425 378 OFFCURVE",
"413 364 CURVE SMOOTH",
"374 319 OFFCURVE",
"333 279 OFFCURVE",
"290 244 CURVE SMOOTH",
"229 194 OFFCURVE",
"180 169 OFFCURVE",
"145 169 CURVE SMOOTH",
"102 169 OFFCURVE",
"81 193 OFFCURVE",
"81 241 CURVE SMOOTH",
"81 290 OFFCURVE",
"101 339 OFFCURVE",
"140 389 CURVE SMOOTH",
"176 435 OFFCURVE",
"218 467 OFFCURVE",
"266 487 CURVE SMOOTH",
"308 504 OFFCURVE",
"354 513 OFFCURVE",
"404 513 CURVE SMOOTH",
"436 513 OFFCURVE",
"466 509 OFFCURVE",
"494 502 CURVE SMOOTH",
"535 492 OFFCURVE",
"556 477 OFFCURVE",
"556 456 CURVE SMOOTH",
"556 448 OFFCURVE",
"554 441 OFFCURVE",
"549 434 CURVE SMOOTH",
"544 427 OFFCURVE",
"542 423 OFFCURVE",
"542 422 CURVE SMOOTH",
"542 420 OFFCURVE",
"543 419 OFFCURVE",
"545 419 CURVE SMOOTH",
"551 419 OFFCURVE",
"560 427 OFFCURVE",
"571 443 CURVE SMOOTH",
"582 459 OFFCURVE",
"588 470 OFFCURVE",
"588 477 CURVE SMOOTH"
);
}
);
width = 536;
}
);
note = nine;
unicode = 0039;
},
{
glyphname = colon;
layers = (
{
hints = (
{
horizontal = 1;
place = "{-15, 21}";
target = up;
type = BottomGhost;
},
{
place = "{42, 138}";
type = Stem;
}
);
layerId = "89156F97-8AE0-4F29-8E8C-D321EE696556";
paths = (
{
closed = 1;
nodes = (
"180 226 OFFCURVE",
"178 229 OFFCURVE",
"175 229 CURVE SMOOTH",
"168 229 OFFCURVE",
"155 218 OFFCURVE",
"136 197 CURVE",
"124 192 OFFCURVE",
"118 184 OFFCURVE",
"118 172 CURVE SMOOTH",
"118 167 OFFCURVE",
"120 160 OFFCURVE",
"125 152 CURVE SMOOTH",
"130 145 OFFCURVE",
"134 141 OFFCURVE",
"139 141 CURVE SMOOTH",
"152 141 OFFCURVE",
"162 152 OFFCURVE",
"169 174 CURVE SMOOTH",
"176 199 OFFCURVE",
"180 215 OFFCURVE",
"180 220 CURVE SMOOTH"
);
},
{
closed = 1;
nodes = (
"121 71 LINE",
"121 71 LINE",
"120 72 OFFCURVE",
"120 72 OFFCURVE",
"119 72 CURVE SMOOTH",
"114 72 OFFCURVE",
"103 68 OFFCURVE",
"88 60 CURVE SMOOTH",
"73 52 OFFCURVE",
"64 46 OFFCURVE",
"60 41 CURVE",
"48 36 OFFCURVE",
"42 28 OFFCURVE",
"42 16 CURVE SMOOTH",
"42 11 OFFCURVE",
"44 4 OFFCURVE",
"49 -4 CURVE SMOOTH",
"53 -11 OFFCURVE",
"58 -15 OFFCURVE",
"63 -15 CURVE SMOOTH",
"76 -15 OFFCURVE",
"87 -4 OFFCURVE",
"93 18 CURVE SMOOTH",
"97 33 OFFCURVE",
"102 44 OFFCURVE",
"107 52 CURVE",
"107 53 OFFCURVE",
"110 56 OFFCURVE",
"115 61 CURVE SMOOTH",
"119 66 OFFCURVE",
"122 69 OFFCURVE",
"122 70 CURVE"
);
}
);
width = 152;
}
);
note = colon;
unicode = 003A;
},
{
glyphname = semicolon;
layers = (
{
hints = (
{
horizontal = 1;
place = "{-146, 375}";
type = Stem;
},
{
place = "{70, 48}";
type = Stem;
}
);
layerId = "89156F97-8AE0-4F29-8E8C-D321EE696556";
paths = (
{
closed = 1;
nodes = (
"180 226 OFFCURVE",
"178 229 OFFCURVE",
"175 229 CURVE SMOOTH",
"168 229 OFFCURVE",
"155 218 OFFCURVE",
"136 197 CURVE",
"124 192 OFFCURVE",
"118 184 OFFCURVE",
"118 172 CURVE SMOOTH",
"118 167 OFFCURVE",
"120 160 OFFCURVE",
"125 152 CURVE SMOOTH",
"130 145 OFFCURVE",
"134 141 OFFCURVE",
"139 141 CURVE SMOOTH",
"152 141 OFFCURVE",
"162 152 OFFCURVE",
"169 174 CURVE SMOOTH",
"176 199 OFFCURVE",
"180 215 OFFCURVE",
"180 220 CURVE SMOOTH"
);
},
{
closed = 1;
nodes = (
"118 23 OFFCURVE",
"117 28 OFFCURVE",
"115 33 CURVE",
"115 32 LINE",
"106 45 OFFCURVE",
"97 51 OFFCURVE",
"90 51 CURVE SMOOTH",
"85 51 OFFCURVE",
"81 47 OFFCURVE",
"76 39 CURVE SMOOTH",
"72 32 OFFCURVE",
"70 25 OFFCURVE",
"70 20 CURVE SMOOTH",
"70 17 OFFCURVE",
"71 12 OFFCURVE",
"73 5 CURVE SMOOTH",
"75 -1 OFFCURVE",
"76 -6 OFFCURVE",
"76 -9 CURVE SMOOTH",
"76 -33 OFFCURVE",
"66 -62 OFFCURVE",
"47 -96 CURVE SMOOTH",
"28 -130 OFFCURVE",
"18 -146 OFFCURVE",
"18 -145 CURVE",
"18 -146 OFFCURVE",
"18 -146 OFFCURVE",
"19 -146 CURVE SMOOTH",
"24 -146 OFFCURVE",
"36 -133 OFFCURVE",
"55 -108 CURVE SMOOTH",
"70 -89 OFFCURVE",
"81 -73 OFFCURVE",
"88 -61 CURVE SMOOTH",
"108 -28 OFFCURVE",
"118 -2 OFFCURVE",
"118 17 CURVE SMOOTH"
);
}
);
width = 152;
}
);
note = semicolon;
unicode = 003B;
},
{
glyphname = less;
layers = (
{
hints = (
{
horizontal = 1;
place = "{136, 306}";
type = Stem;
},
{
place = "{85, 144}";
type = Stem;
}
);
layerId = "89156F97-8AE0-4F29-8E8C-D321EE696556";
paths = (
{
closed = 1;
nodes = (
"229 440 OFFCURVE",
"227 442 OFFCURVE",
"222 442 CURVE SMOOTH",
"215 442 OFFCURVE",
"209 438 OFFCURVE",
"203 431 CURVE SMOOTH",
"190 415 OFFCURVE",
"167 385 OFFCURVE",
"137 342 CURVE SMOOTH",
"102 292 OFFCURVE",
"85 263 OFFCURVE",
"85 256 CURVE SMOOTH",
"85 253 OFFCURVE",
"86 251 OFFCURVE",
"88 250 CURVE",
"109 233 OFFCURVE",
"131 216 OFFCURVE",
"152 199 CURVE SMOOTH",
"175 180 OFFCURVE",
"194 160 OFFCURVE",
"209 140 CURVE",
"217 136 LINE",
"224 135 OFFCURVE",
"227 140 OFFCURVE",
"227 149 CURVE SMOOTH",
"227 156 OFFCURVE",
"195 201 OFFCURVE",
"130 283 CURVE",
"196 375 OFFCURVE",
"229 426 OFFCURVE",
"229 436 CURVE SMOOTH"
);
}
);
width = 318;
}
);
note = less;
unicode = 003C;
},
{
glyphname = equal;
layers = (
{
hints = (
{
horizontal = 1;
place = "{70, 26}";
type = Stem;
},
{
horizontal = 1;
place = "{172, 26}";
type = Stem;
}
);
layerId = "89156F97-8AE0-4F29-8E8C-D321EE696556";
paths = (
{
closed = 1;
nodes = (
"300 185 OFFCURVE",
"299 186 OFFCURVE",
"297 187 CURVE SMOOTH",
"280 194 OFFCURVE",
"236 198 OFFCURVE",
"165 198 CURVE SMOOTH",
"105 198 OFFCURVE",
"69 196 OFFCURVE",
"56 192 CURVE",
"55 190 LINE",
"56 187 OFFCURVE",
"59 182 OFFCURVE",
"64 176 CURVE SMOOTH",
"69 170 OFFCURVE",
"72 167 OFFCURVE",
"75 167 CURVE SMOOTH",
"100 167 OFFCURVE",
"136 169 OFFCURVE",
"185 173 CURVE SMOOTH",
"233 176 OFFCURVE",
"269 178 OFFCURVE",
"294 178 CURVE SMOOTH",
"298 178 OFFCURVE",
"300 180 OFFCURVE",
"300 184 CURVE SMOOTH"
);
},
{
closed = 1;
nodes = (
"300 82 OFFCURVE",
"299 83 OFFCURVE",
"297 84 CURVE SMOOTH",
"280 92 OFFCURVE",
"236 96 OFFCURVE",
"165 96 CURVE SMOOTH",
"105 96 OFFCURVE",
"69 94 OFFCURVE",
"56 89 CURVE",
"55 87 LINE",
"56 84 OFFCURVE",
"59 79 OFFCURVE",
"64 73 CURVE SMOOTH",
"69 67 OFFCURVE",
"72 64 OFFCURVE",
"75 64 CURVE SMOOTH",
"100 64 OFFCURVE",
"136 66 OFFCURVE",
"185 70 CURVE SMOOTH",
"233 74 OFFCURVE",
"269 76 OFFCURVE",
"294 76 CURVE SMOOTH",
"298 76 OFFCURVE",
"300 78 OFFCURVE",
"300 81 CURVE SMOOTH"
);
}
);
width = 348;
}
);
note = equal;
unicode = 003D;
},
{
glyphname = greater;
layers = (
{
hints = (
{
horizontal = 1;
place = "{129, 306}";
type = Stem;
},
{
place = "{85, 144}";
type = Stem;
}
);
layerId = "89156F97-8AE0-4F29-8E8C-D321EE696556";
paths = (
{
closed = 1;
nodes = (
"229 318 OFFCURVE",
"228 320 OFFCURVE",
"226 321 CURVE",
"205 338 OFFCURVE",
"183 355 OFFCURVE",
"160 374 CURVE SMOOTH",
"138 392 OFFCURVE",
"120 411 OFFCURVE",
"105 431 CURVE",
"97 435 LINE",
"90 436 OFFCURVE",
"86 431 OFFCURVE",
"86 422 CURVE SMOOTH",
"86 415 OFFCURVE",
"119 371 OFFCURVE",
"184 288 CURVE",
"118 196 OFFCURVE",
"85 145 OFFCURVE",
"85 135 CURVE SMOOTH",
"85 131 OFFCURVE",
"87 129 OFFCURVE",
"91 129 CURVE SMOOTH",
"98 129 OFFCURVE",
"104 133 OFFCURVE",
"110 140 CURVE SMOOTH",
"124 156 OFFCURVE",
"146 186 OFFCURVE",
"176 229 CURVE SMOOTH",
"211 279 OFFCURVE",
"229 308 OFFCURVE",
"229 315 CURVE SMOOTH"
);
}
);
width = 318;
}
);
note = greater;
unicode = 003E;
},
{
glyphname = question;
layers = (
{
hints = (
{
horizontal = 1;
place = "{496, -20}";
target = down;
type = TopGhost;
},
{
horizontal = 1;
place = "{715, 10}";
type = Stem;
},
{
place = "{91, 18}";
type = Stem;
},
{
place = "{493, 18}";
type = Stem;
}
);
layerId = "89156F97-8AE0-4F29-8E8C-D321EE696556";
paths = (
{
closed = 1;
nodes = (
"511 627 OFFCURVE",
"493 662 OFFCURVE",
"459 688 CURVE SMOOTH",
"427 712 OFFCURVE",
"389 725 OFFCURVE",
"344 725 CURVE SMOOTH",
"293 725 OFFCURVE",
"242 711 OFFCURVE",
"191 681 CURVE SMOOTH",
"137 650 OFFCURVE",
"101 612 OFFCURVE",
"83 567 CURVE SMOOTH",
"75 548 OFFCURVE",
"71 533 OFFCURVE",
"71 520 CURVE SMOOTH",
"71 491 OFFCURVE",
"90 476 OFFCURVE",
"128 476 CURVE SMOOTH",
"147 476 OFFCURVE",
"171 480 OFFCURVE",
"199 489 CURVE SMOOTH",
"230 498 OFFCURVE",
"251 509 OFFCURVE",
"263 520 CURVE SMOOTH",
"264 521 OFFCURVE",
"265 523 OFFCURVE",
"265 525 CURVE SMOOTH",
"265 528 OFFCURVE",
"264 530 OFFCURVE",
"263 530 CURVE",
"263 530 OFFCURVE",
"255 526 OFFCURVE",
"240 520 CURVE SMOOTH",
"201 504 OFFCURVE",
"170 496 OFFCURVE",
"147 496 CURVE SMOOTH",
"121 496 OFFCURVE",
"108 507 OFFCURVE",
"108 528 CURVE SMOOTH",
"108 538 OFFCURVE",
"111 551 OFFCURVE",
"118 568 CURVE SMOOTH",
"136 613 OFFCURVE",
"166 648 OFFCURVE",
"208 675 CURVE SMOOTH",
"249 702 OFFCURVE",
"295 715 OFFCURVE",
"344 715 CURVE SMOOTH",
"383 715 OFFCURVE",
"416 706 OFFCURVE",
"444 688 CURVE SMOOTH",
"477 667 OFFCURVE",
"493 638 OFFCURVE",
"493 601 CURVE SMOOTH",
"493 545 OFFCURVE",
"455 492 OFFCURVE",
"378 443 CURVE SMOOTH",
"343 421 OFFCURVE",
"307 399 OFFCURVE",
"272 376 CURVE SMOOTH",
"219 342 OFFCURVE",
"179 311 OFFCURVE",
"150 284 CURVE SMOOTH",
"111 247 OFFCURVE",
"91 215 OFFCURVE",
"91 188 CURVE SMOOTH",
"91 171 OFFCURVE",
"98 157 OFFCURVE",
"113 145 CURVE SMOOTH",
"114 144 OFFCURVE",
"115 144 OFFCURVE",
"115 144 CURVE",
"123 144 OFFCURVE",
"127 148 OFFCURVE",
"127 155 CURVE",
"127 155 OFFCURVE",
"124 159 OFFCURVE",
"118 166 CURVE SMOOTH",
"112 173 OFFCURVE",
"109 181 OFFCURVE",
"109 190 CURVE SMOOTH",
"109 232 OFFCURVE",
"179 291 OFFCURVE",
"320 368 CURVE SMOOTH",
"353 386 OFFCURVE",
"377 399 OFFCURVE",
"394 408 CURVE",
"472 458 OFFCURVE",
"511 516 OFFCURVE",
"511 583 CURVE SMOOTH"
);
},
{
closed = 1;
nodes = (
"121 71 LINE",
"121 71 LINE",
"120 72 OFFCURVE",
"120 72 OFFCURVE",
"119 72 CURVE SMOOTH",
"114 72 OFFCURVE",
"103 68 OFFCURVE",
"88 60 CURVE SMOOTH",
"73 52 OFFCURVE",
"64 46 OFFCURVE",
"60 41 CURVE",
"48 36 OFFCURVE",
"42 28 OFFCURVE",
"42 16 CURVE SMOOTH",
"42 11 OFFCURVE",
"44 4 OFFCURVE",
"49 -4 CURVE SMOOTH",
"53 -11 OFFCURVE",
"58 -15 OFFCURVE",
"63 -15 CURVE SMOOTH",
"76 -15 OFFCURVE",
"87 -4 OFFCURVE",
"93 18 CURVE SMOOTH",
"97 33 OFFCURVE",
"102 44 OFFCURVE",
"107 52 CURVE",
"107 53 OFFCURVE",
"110 56 OFFCURVE",
"115 61 CURVE SMOOTH",
"119 66 OFFCURVE",
"122 69 OFFCURVE",
"122 70 CURVE"
);
}
);
width = 528;
}
);
note = question;
unicode = 003F;
},
{
glyphname = at;
layers = (
{
hints = (
{
horizontal = 1;
place = "{28, 15}";
type = Stem;
},
{
horizontal = 1;
place = "{108, 20}";
type = Stem;
},
{
horizontal = 1;
place = "{138, 41}";
type = Stem;
},
{
horizontal = 1;
place = "{532, 23}";
type = Stem;
},
{
horizontal = 1;
place = "{614, 31}";
type = Stem;
},
{
place = "{52, 24}";
type = Stem;
},
{
place = "{183, 29}";
type = Stem;
},
{
place = "{391, 52}";
type = Stem;
},
{
place = "{514, 40}";
type = Stem;
},
{
place = "{697, 23}";
type = Stem;
}
);
layerId = "89156F97-8AE0-4F29-8E8C-D321EE696556";
paths = (
{
closed = 1;
nodes = (
"766 347 OFFCURVE",
"750 386 OFFCURVE",
"718 420 CURVE",
"719 430 OFFCURVE",
"720 440 OFFCURVE",
"720 449 CURVE SMOOTH",
"720 512 OFFCURVE",
"699 560 OFFCURVE",
"659 595 CURVE SMOOTH",
"621 628 OFFCURVE",
"570 645 OFFCURVE",
"507 645 CURVE SMOOTH",
"400 645 OFFCURVE",
"299 609 OFFCURVE",
"204 536 CURVE SMOOTH",
"102 458 OFFCURVE",
"52 367 OFFCURVE",
"52 264 CURVE SMOOTH",
"52 224 OFFCURVE",
"60 186 OFFCURVE",
"76 149 CURVE SMOOTH",
"94 108 OFFCURVE",
"128 77 OFFCURVE",
"179 55 CURVE SMOOTH",
"221 37 OFFCURVE",
"268 28 OFFCURVE",
"319 28 CURVE SMOOTH",
"389 28 OFFCURVE",
"462 44 OFFCURVE",
"538 75 CURVE SMOOTH",
"618 108 OFFCURVE",
"679 151 OFFCURVE",
"721 201 CURVE SMOOTH",
"751 237 OFFCURVE",
"766 270 OFFCURVE",
"766 303 CURVE SMOOTH"
);
},
{
closed = 1;
nodes = (
"718 296 OFFCURVE",
"716 283 OFFCURVE",
"712 271 CURVE SMOOTH",
"688 202 OFFCURVE",
"634 145 OFFCURVE",
"551 102 CURVE SMOOTH",
"476 63 OFFCURVE",
"398 43 OFFCURVE",
"319 43 CURVE SMOOTH",
"250 43 OFFCURVE",
"194 58 OFFCURVE",
"151 88 CURVE SMOOTH",
"101 123 OFFCURVE",
"76 173 OFFCURVE",
"76 239 CURVE SMOOTH",
"76 334 OFFCURVE",
"129 421 OFFCURVE",
"235 501 CURVE SMOOTH",
"334 576 OFFCURVE",
"433 614 OFFCURVE",
"532 614 CURVE SMOOTH",
"622 614 OFFCURVE",
"676 577 OFFCURVE",
"694 504 CURVE SMOOTH",
"696 495 OFFCURVE",
"697 485 OFFCURVE",
"697 476 CURVE SMOOTH",
"697 465 OFFCURVE",
"696 454 OFFCURVE",
"693 442 CURVE",
"671 457 OFFCURVE",
"650 464 OFFCURVE",
"630 464 CURVE SMOOTH",
"619 464 OFFCURVE",
"614 461 OFFCURVE",
"614 456 CURVE SMOOTH",
"614 455 OFFCURVE",
"615 455 OFFCURVE",
"616 454 CURVE",
"645 441 OFFCURVE",
"667 424 OFFCURVE",
"684 403 CURVE",
"676 373 OFFCURVE",
"664 341 OFFCURVE",
"647 307 CURVE SMOOTH",
"629 270 OFFCURVE",
"606 234 OFFCURVE",
"579 200 CURVE SMOOTH",
"541 152 OFFCURVE",
"509 128 OFFCURVE",
"483 128 CURVE SMOOTH",
"456 128 OFFCURVE",
"443 156 OFFCURVE",
"443 211 CURVE SMOOTH",
"443 278 OFFCURVE",
"455 342 OFFCURVE",
"480 403 CURVE",
"529 439 OFFCURVE",
"554 475 OFFCURVE",
"554 512 CURVE SMOOTH",
"554 541 OFFCURVE",
"537 555 OFFCURVE",
"503 555 CURVE SMOOTH",
"476 555 OFFCURVE",
"445 547 OFFCURVE",
"409 530 CURVE SMOOTH",
"353 504 OFFCURVE",
"302 459 OFFCURVE",
"256 395 CURVE SMOOTH",
"208 328 OFFCURVE",
"183 266 OFFCURVE",
"183 207 CURVE SMOOTH",
"183 161 OFFCURVE",
"201 138 OFFCURVE",
"236 138 CURVE SMOOTH",
"293 138 OFFCURVE",
"349 199 OFFCURVE",
"404 320 CURVE",
"395 282 OFFCURVE",
"391 250 OFFCURVE",
"391 224 CURVE SMOOTH",
"391 211 OFFCURVE",
"392 199 OFFCURVE",
"394 189 CURVE SMOOTH",
"398 168 OFFCURVE",
"408 150 OFFCURVE",
"423 133 CURVE SMOOTH",
"438 116 OFFCURVE",
"456 108 OFFCURVE",
"475 108 CURVE SMOOTH",
"518 108 OFFCURVE",
"564 143 OFFCURVE",
"614 214 CURVE SMOOTH",
"654 271 OFFCURVE",
"683 326 OFFCURVE",
"700 379 CURVE",
"712 356 OFFCURVE",
"718 333 OFFCURVE",
"718 309 CURVE SMOOTH"
);
},
{
closed = 1;
nodes = (
"514 484 OFFCURVE",
"507 466 OFFCURVE",
"494 447 CURVE",
"499 459 OFFCURVE",
"501 468 OFFCURVE",
"501 475 CURVE SMOOTH",
"501 483 OFFCURVE",
"498 487 OFFCURVE",
"492 487 CURVE SMOOTH",
"478 487 OFFCURVE",
"463 475 OFFCURVE",
"446 451 CURVE SMOOTH",
"429 428 OFFCURVE",
"420 408 OFFCURVE",
"418 393 CURVE",
"400 383 OFFCURVE",
"387 375 OFFCURVE",
"378 370 CURVE",
"366 366 OFFCURVE",
"360 362 OFFCURVE",
"360 358 CURVE SMOOTH",
"360 355 OFFCURVE",
"362 353 OFFCURVE",
"366 353 CURVE SMOOTH",
"375 353 OFFCURVE",
"386 355 OFFCURVE",
"399 360 CURVE",
"381 317 OFFCURVE",
"361 280 OFFCURVE",
"338 249 CURVE SMOOTH",
"304 202 OFFCURVE",
"272 179 OFFCURVE",
"241 179 CURVE SMOOTH",
"222 179 OFFCURVE",
"212 189 OFFCURVE",
"212 208 CURVE SMOOTH",
"212 253 OFFCURVE",
"247 319 OFFCURVE",
"317 404 CURVE SMOOTH",
"387 489 OFFCURVE",
"444 532 OFFCURVE",
"488 532 CURVE SMOOTH",
"505 532 OFFCURVE",
"514 522 OFFCURVE",
"514 503 CURVE SMOOTH"
);
}
);
width = 795;
}
);
note = at;
unicode = 0040;
},
{
glyphname = A;
layers = (
{
hints = (
{
horizontal = 1;
place = "{-193, 14}";
type = Stem;
},
{
horizontal = 1;
place = "{-128, 10}";
type = Stem;
},
{
horizontal = 1;
place = "{146, 17}";
type = Stem;
},
{
horizontal = 1;
place = "{705, -20}";
target = down;
type = TopGhost;
},
{
place = "{-200, 10}";
type = Stem;
},
{
place = "{-67, 46}";
type = Stem;
},
{
place = "{520, 18}";
type = Stem;
}
);
layerId = "89156F97-8AE0-4F29-8E8C-D321EE696556";
paths = (
{
closed = 1;
nodes = (
"712 -88 OFFCURVE",
"677 -118 OFFCURVE",
"646 -118 CURVE SMOOTH",
"622 -118 OFFCURVE",
"601 -97 OFFCURVE",
"583 -56 CURVE SMOOTH",
"553 13 OFFCURVE",
"538 140 OFFCURVE",
"538 323 CURVE SMOOTH",
"538 338 OFFCURVE",
"538 360 OFFCURVE",
"538 389 CURVE SMOOTH",
"538 418 OFFCURVE",
"538 439 OFFCURVE",
"538 454 CURVE SMOOTH",
"538 476 OFFCURVE",
"538 488 OFFCURVE",
"538 491 CURVE SMOOTH",
"537 506 OFFCURVE",
"533 513 OFFCURVE",
"527 513 CURVE SMOOTH",
"523 513 OFFCURVE",
"521 507 OFFCURVE",
"520 494 CURVE SMOOTH",
"516 436 OFFCURVE",
"512 402 OFFCURVE",
"511 393 CURVE SMOOTH",
"493 242 OFFCURVE",
"485 148 OFFCURVE",
"485 112 CURVE SMOOTH",
"485 53 OFFCURVE",
"492 7 OFFCURVE",
"507 -26 CURVE SMOOTH",
"518 -51 OFFCURVE",
"537 -75 OFFCURVE",
"563 -96 CURVE SMOOTH",
"589 -117 OFFCURVE",
"615 -128 OFFCURVE",
"640 -128 CURVE SMOOTH",
"657 -128 OFFCURVE",
"673 -123 OFFCURVE",
"689 -114 CURVE SMOOTH",
"701 -107 OFFCURVE",
"714 -93 OFFCURVE",
"728 -74 CURVE SMOOTH",
"742 -55 OFFCURVE",
"749 -40 OFFCURVE",
"750 -27 CURVE"
);
},
{
closed = 1;
nodes = (
"528 643 OFFCURVE",
"521 664 OFFCURVE",
"507 681 CURVE SMOOTH",
"493 697 OFFCURVE",
"473 705 OFFCURVE",
"447 705 CURVE SMOOTH",
"440 705 OFFCURVE",
"436 703 OFFCURVE",
"436 699 CURVE SMOOTH",
"436 696 OFFCURVE",
"439 694 OFFCURVE",
"445 693 CURVE SMOOTH",
"474 688 OFFCURVE",
"488 670 OFFCURVE",
"488 638 CURVE SMOOTH",
"488 584 OFFCURVE",
"458 502 OFFCURVE",
"399 391 CURVE SMOOTH",
"353 305 OFFCURVE",
"305 225 OFFCURVE",
"252 152 CURVE",
"234 150 OFFCURVE",
"217 148 OFFCURVE",
"201 146 CURVE",
"251 215 OFFCURVE",
"302 297 OFFCURVE",
"352 393 CURVE SMOOTH",
"415 513 OFFCURVE",
"446 602 OFFCURVE",
"446 657 CURVE SMOOTH",
"446 658 OFFCURVE",
"446 658 OFFCURVE",
"445 659 CURVE",
"441 659 OFFCURVE",
"438 657 OFFCURVE",
"437 652 CURVE SMOOTH",
"418 589 OFFCURVE",
"406 551 OFFCURVE",
"401 538 CURVE SMOOTH",
"350 404 OFFCURVE",
"275 272 OFFCURVE",
"177 142 CURVE",
"122 132 OFFCURVE",
"73 116 OFFCURVE",
"28 93 CURVE SMOOTH",
"-35 61 OFFCURVE",
"-67 25 OFFCURVE",
"-67 -16 CURVE SMOOTH",
"-67 -38 OFFCURVE",
"-57 -59 OFFCURVE",
"-36 -79 CURVE",
"-65 -100 OFFCURVE",
"-97 -117 OFFCURVE",
"-134 -129 CURVE SMOOTH",
"-141 -131 OFFCURVE",
"-144 -134 OFFCURVE",
"-144 -138 CURVE SMOOTH",
"-144 -141 OFFCURVE",
"-142 -142 OFFCURVE",
"-137 -142 CURVE SMOOTH",
"-110 -142 OFFCURVE",
"-72 -125 OFFCURVE",
"-23 -90 CURVE",
"-14 -97 OFFCURVE",
"-3 -104 OFFCURVE",
"9 -111 CURVE",
"-51 -156 OFFCURVE",
"-104 -179 OFFCURVE",
"-150 -179 CURVE SMOOTH",
"-177 -179 OFFCURVE",
"-190 -169 OFFCURVE",
"-190 -150 CURVE SMOOTH",
"-190 -144 OFFCURVE",
"-189 -137 OFFCURVE",
"-187 -130 CURVE",
"-196 -137 OFFCURVE",
"-200 -147 OFFCURVE",
"-200 -162 CURVE SMOOTH",
"-200 -183 OFFCURVE",
"-184 -193 OFFCURVE",
"-152 -193 CURVE SMOOTH",
"-102 -193 OFFCURVE",
"-42 -168 OFFCURVE",
"27 -119 CURVE",
"68 -138 OFFCURVE",
"103 -147 OFFCURVE",
"131 -147 CURVE SMOOTH",
"138 -147 OFFCURVE",
"141 -145 OFFCURVE",
"141 -142 CURVE SMOOTH",
"141 -139 OFFCURVE",
"138 -137 OFFCURVE",
"132 -136 CURVE SMOOTH",
"88 -128 OFFCURVE",
"57 -120 OFFCURVE",
"38 -111 CURVE",
"117 -52 OFFCURVE",
"198 30 OFFCURVE",
"283 136 CURVE",
"314 140 OFFCURVE",
"354 143 OFFCURVE",
"404 146 CURVE SMOOTH",
"429 148 OFFCURVE",
"449 150 OFFCURVE",
"462 151 CURVE SMOOTH",
"475 152 OFFCURVE",
"481 156 OFFCURVE",
"481 162 CURVE SMOOTH",
"481 164 OFFCURVE",
"479 165 OFFCURVE",
"474 165 CURVE",
"479 165 OFFCURVE",
"461 165 OFFCURVE",
"419 163 CURVE SMOOTH",
"363 161 OFFCURVE",
"323 158 OFFCURVE",
"299 156 CURVE",
"354 228 OFFCURVE",
"403 302 OFFCURVE",
"445 378 CURVE SMOOTH",
"500 479 OFFCURVE",
"528 558 OFFCURVE",
"528 617 CURVE SMOOTH"
);
},
{
closed = 1;
nodes = (
"159 29 OFFCURVE",
"88 -48 OFFCURVE",
"21 -102 CURVE",
"10 -95 OFFCURVE",
"0 -87 OFFCURVE",
"-7 -78 CURVE",
"52 -32 OFFCURVE",
"114 32 OFFCURVE",
"177 114 CURVE",
"195 119 OFFCURVE",
"214 124 OFFCURVE",
"234 128 CURVE"
);
},
{
closed = 1;
nodes = (
"92 34 OFFCURVE",
"37 -22 OFFCURVE",
"-16 -64 CURVE",
"-19 -56 OFFCURVE",
"-21 -47 OFFCURVE",
"-21 -38 CURVE SMOOTH",
"-21 -7 OFFCURVE",
"0 23 OFFCURVE",
"42 52 CURVE SMOOTH",
"72 73 OFFCURVE",
"108 90 OFFCURVE",
"149 105 CURVE"
);
}
);
width = 657;
}
);
note = A;
unicode = 0041;
},
{
glyphname = B;
layers = (
{
hints = (
{
horizontal = 1;
place = "{-117, 23}";
type = Stem;
},
{
horizontal = 1;
place = "{-93, 21}";
type = Stem;
},
{
horizontal = 1;
place = "{-55, 13}";
type = Stem;
},
{
horizontal = 1;
place = "{587, 16}";
type = Stem;
},
{
horizontal = 1;
place = "{613, 30}";
type = Stem;
},
{
horizontal = 1;
place = "{723, -20}";
target = down;
type = TopGhost;
},
{
place = "{1, 18}";
type = Stem;
},
{
place = "{85, 49}";
type = Stem;
},
{
place = "{817, 39}";
type = Stem;
}
);
layerId = "89156F97-8AE0-4F29-8E8C-D321EE696556";
paths = (
{
closed = 1;
nodes = (
"866 579 OFFCURVE",
"858 600 OFFCURVE",
"841 617 CURVE SMOOTH",
"824 634 OFFCURVE",
"804 643 OFFCURVE",
"779 643 CURVE SMOOTH",
"736 643 OFFCURVE",
"694 624 OFFCURVE",
"655 587 CURVE",
"604 598 OFFCURVE",
"552 606 OFFCURVE",
"500 603 CURVE SMOOTH",
"480 602 LINE",
"481 648 OFFCURVE",
"479 687 OFFCURVE",
"474 718 CURVE",
"473 721 OFFCURVE",
"472 723 OFFCURVE",
"471 723 CURVE SMOOTH",
"468 723 OFFCURVE",
"466 721 OFFCURVE",
"466 716 CURVE SMOOTH",
"466 709 OFFCURVE",
"466 700 OFFCURVE",
"467 687 CURVE SMOOTH",
"468 674 OFFCURVE",
"468 665 OFFCURVE",
"468 658 CURVE SMOOTH",
"468 640 OFFCURVE",
"467 621 OFFCURVE",
"466 602 CURVE",
"309 596 OFFCURVE",
"195 555 OFFCURVE",
"122 480 CURVE SMOOTH",
"97 455 OFFCURVE",
"85 427 OFFCURVE",
"85 398 CURVE SMOOTH",
"85 357 OFFCURVE",
"105 321 OFFCURVE",
"144 288 CURVE SMOOTH",
"180 258 OFFCURVE",
"219 240 OFFCURVE",
"260 237 CURVE",
"263 236 LINE",
"268 236 OFFCURVE",
"270 238 OFFCURVE",
"270 241 CURVE SMOOTH",
"270 243 OFFCURVE",
"268 244 OFFCURVE",
"264 245 CURVE SMOOTH",
"245 249 OFFCURVE",
"231 254 OFFCURVE",
"222 258 CURVE SMOOTH",
"163 282 OFFCURVE",
"134 321 OFFCURVE",
"134 375 CURVE SMOOTH",
"134 408 OFFCURVE",
"147 438 OFFCURVE",
"174 466 CURVE SMOOTH",
"241 536 OFFCURVE",
"338 576 OFFCURVE",
"465 585 CURVE",
"458 490 OFFCURVE",
"439 395 OFFCURVE",
"407 299 CURVE SMOOTH",
"371 190 OFFCURVE",
"326 105 OFFCURVE",
"272 43 CURVE",
"223 58 OFFCURVE",
"179 65 OFFCURVE",
"140 65 CURVE SMOOTH",
"105 65 OFFCURVE",
"75 59 OFFCURVE",
"50 46 CURVE SMOOTH",
"17 30 OFFCURVE",
"1 6 OFFCURVE",
"1 -25 CURVE SMOOTH",
"1 -50 OFFCURVE",
"14 -72 OFFCURVE",
"41 -91 CURVE SMOOTH",
"65 -108 OFFCURVE",
"90 -117 OFFCURVE",
"116 -117 CURVE SMOOTH",
"174 -117 OFFCURVE",
"220 -109 OFFCURVE",
"255 -93 CURVE SMOOTH",
"289 -78 OFFCURVE",
"324 -48 OFFCURVE",
"361 -4 CURVE",
"460 -45 OFFCURVE",
"513 -67 OFFCURVE",
"519 -69 CURVE SMOOTH",
"568 -85 OFFCURVE",
"624 -93 OFFCURVE",
"689 -93 CURVE SMOOTH",
"732 -93 OFFCURVE",
"770 -79 OFFCURVE",
"805 -51 CURVE SMOOTH",
"839 -23 OFFCURVE",
"856 12 OFFCURVE",
"856 53 CURVE SMOOTH",
"856 140 OFFCURVE",
"787 216 OFFCURVE",
"649 280 CURVE",
"701 283 OFFCURVE",
"746 295 OFFCURVE",
"785 315 CURVE SMOOTH",
"837 341 OFFCURVE",
"863 377 OFFCURVE",
"863 422 CURVE SMOOTH",
"863 459 OFFCURVE",
"845 492 OFFCURVE",
"808 521 CURVE SMOOTH",
"779 544 OFFCURVE",
"744 562 OFFCURVE",
"702 575 CURVE",
"733 600 OFFCURVE",
"762 613 OFFCURVE",
"789 613 CURVE SMOOTH",
"828 613 OFFCURVE",
"850 598 OFFCURVE",
"854 568 CURVE SMOOTH",
"857 549 OFFCURVE",
"858 540 OFFCURVE",
"861 540 CURVE SMOOTH",
"864 540 OFFCURVE",
"866 545 OFFCURVE",
"866 554 CURVE SMOOTH"
);
},
{
closed = 1;
nodes = (
"817 -41 OFFCURVE",
"772 -72 OFFCURVE",
"682 -72 CURVE SMOOTH",
"635 -72 OFFCURVE",
"582 -63 OFFCURVE",
"524 -44 CURVE SMOOTH",
"473 -27 OFFCURVE",
"423 -8 OFFCURVE",
"373 10 CURVE",
"408 51 OFFCURVE",
"444 111 OFFCURVE",
"481 192 CURVE SMOOTH",
"512 260 OFFCURVE",
"542 328 OFFCURVE",
"574 396 CURVE SMOOTH",
"610 472 OFFCURVE",
"650 527 OFFCURVE",
"689 563 CURVE",
"723 552 OFFCURVE",
"752 536 OFFCURVE",
"774 514 CURVE SMOOTH",
"800 488 OFFCURVE",
"813 459 OFFCURVE",
"813 426 CURVE SMOOTH",
"813 391 OFFCURVE",
"797 362 OFFCURVE",
"767 338 CURVE SMOOTH",
"741 318 OFFCURVE",
"710 305 OFFCURVE",
"671 298 CURVE SMOOTH",
"660 296 OFFCURVE",
"648 294 OFFCURVE",
"636 294 CURVE SMOOTH",
"627 294 OFFCURVE",
"620 294 OFFCURVE",
"616 294 CURVE",
"597 290 OFFCURVE",
"587 279 OFFCURVE",
"587 260 CURVE SMOOTH",
"587 255 OFFCURVE",
"588 251 OFFCURVE",
"590 250 CURVE SMOOTH",
"617 238 OFFCURVE",
"637 230 OFFCURVE",
"650 224 CURVE SMOOTH",
"762 171 OFFCURVE",
"817 102 OFFCURVE",
"817 20 CURVE SMOOTH"
);
},
{
closed = 1;
nodes = (
"604 534 OFFCURVE",
"563 472 OFFCURVE",
"521 386 CURVE SMOOTH",
"488 318 OFFCURVE",
"456 248 OFFCURVE",
"424 179 CURVE SMOOTH",
"389 105 OFFCURVE",
"358 53 OFFCURVE",
"331 23 CURVE",
"291 37 LINE",
"345 101 OFFCURVE",
"390 188 OFFCURVE",
"425 297 CURVE SMOOTH",
"457 396 OFFCURVE",
"474 492 OFFCURVE",
"479 586 CURVE",
"491 587 OFFCURVE",
"503 587 OFFCURVE",
"515 587 CURVE SMOOTH",
"558 587 OFFCURVE",
"601 583 OFFCURVE",
"643 575 CURVE"
);
},
{
closed = 1;
nodes = (
"304 -18 OFFCURVE",
"275 -42 OFFCURVE",
"234 -63 CURVE SMOOTH",
"194 -84 OFFCURVE",
"157 -94 OFFCURVE",
"123 -94 CURVE SMOOTH",
"98 -94 OFFCURVE",
"75 -87 OFFCURVE",
"54 -73 CURVE SMOOTH",
"31 -58 OFFCURVE",
"19 -38 OFFCURVE",
"19 -14 CURVE SMOOTH",
"19 11 OFFCURVE",
"33 30 OFFCURVE",
"61 42 CURVE SMOOTH",
"82 51 OFFCURVE",
"106 56 OFFCURVE",
"135 56 CURVE SMOOTH",
"176 56 OFFCURVE",
"219 48 OFFCURVE",
"264 33 CURVE",
"218 -17 OFFCURVE",
"172 -42 OFFCURVE",
"125 -42 CURVE SMOOTH",
"113 -42 OFFCURVE",
"107 -44 OFFCURVE",
"107 -47 CURVE SMOOTH",
"107 -52 OFFCURVE",
"114 -55 OFFCURVE",
"127 -55 CURVE SMOOTH",
"181 -55 OFFCURVE",
"233 -28 OFFCURVE",
"282 27 CURVE",
"297 21 OFFCURVE",
"310 15 OFFCURVE",
"322 9 CURVE"
);
}
);
width = 910;
}
);
note = B;
unicode = 0042;
},
{
glyphname = C;
layers = (
{
hints = (
{
horizontal = 1;
place = "{-219, 20}";
type = Stem;
},
{
horizontal = 1;
place = "{599, 26}";
type = Stem;
},
{
place = "{11, 35}";
type = Stem;
},
{
place = "{448, 14}";
type = Stem;
}
);
layerId = "89156F97-8AE0-4F29-8E8C-D321EE696556";
paths = (
{
closed = 1;
nodes = (
"751 165 OFFCURVE",
"751 166 OFFCURVE",
"750 167 CURVE",
"749 167 OFFCURVE",
"745 163 OFFCURVE",
"740 155 CURVE SMOOTH",
"699 91 OFFCURVE",
"639 40 OFFCURVE",
"560 0 CURVE SMOOTH",
"484 -38 OFFCURVE",
"407 -58 OFFCURVE",
"329 -58 CURVE SMOOTH",
"320 -58 OFFCURVE",
"311 -58 OFFCURVE",
"302 -57 CURVE",
"341 24 OFFCURVE",
"374 122 OFFCURVE",
"404 238 CURVE SMOOTH",
"431 345 OFFCURVE",
"450 447 OFFCURVE",
"461 545 CURVE",
"504 532 OFFCURVE",
"548 513 OFFCURVE",
"593 489 CURVE SMOOTH",
"614 478 OFFCURVE",
"655 455 OFFCURVE",
"716 418 CURVE SMOOTH",
"723 414 OFFCURVE",
"729 412 OFFCURVE",
"735 412 CURVE SMOOTH",
"745 412 OFFCURVE",
"749 418 OFFCURVE",
"749 429 CURVE SMOOTH",
"749 434 LINE SMOOTH",
"749 495 OFFCURVE",
"727 543 OFFCURVE",
"691 576 CURVE SMOOTH",
"656 608 OFFCURVE",
"606 625 OFFCURVE",
"543 625 CURVE SMOOTH",
"519 625 OFFCURVE",
"494 622 OFFCURVE",
"467 617 CURVE",
"468 632 OFFCURVE",
"468 646 OFFCURVE",
"468 659 CURVE SMOOTH",
"468 694 OFFCURVE",
"465 721 OFFCURVE",
"460 740 CURVE SMOOTH",
"459 743 OFFCURVE",
"458 745 OFFCURVE",
"456 745 CURVE SMOOTH",
"453 745 OFFCURVE",
"451 742 OFFCURVE",
"451 737 CURVE SMOOTH",
"451 730 OFFCURVE",
"451 720 OFFCURVE",
"452 706 CURVE SMOOTH",
"453 693 OFFCURVE",
"453 683 OFFCURVE",
"453 676 CURVE SMOOTH",
"453 657 OFFCURVE",
"453 636 OFFCURVE",
"452 614 CURVE",
"418 606 OFFCURVE",
"385 594 OFFCURVE",
"352 579 CURVE",
"325 582 OFFCURVE",
"302 584 OFFCURVE",
"285 584 CURVE SMOOTH",
"230 584 OFFCURVE",
"176 576 OFFCURVE",
"122 560 CURVE SMOOTH",
"48 538 OFFCURVE",
"11 505 OFFCURVE",
"11 464 CURVE SMOOTH",
"11 455 OFFCURVE",
"14 444 OFFCURVE",
"19 433 CURVE SMOOTH",
"23 422 OFFCURVE",
"30 416 OFFCURVE",
"38 416 CURVE SMOOTH",
"44 416 OFFCURVE",
"47 421 OFFCURVE",
"47 430 CURVE SMOOTH",
"47 432 OFFCURVE",
"47 435 OFFCURVE",
"47 438 CURVE",
"46 441 OFFCURVE",
"46 444 OFFCURVE",
"46 446 CURVE SMOOTH",
"46 475 OFFCURVE",
"66 502 OFFCURVE",
"107 526 CURVE SMOOTH",
"136 543 OFFCURVE",
"169 556 OFFCURVE",
"207 565 CURVE SMOOTH",
"236 572 OFFCURVE",
"265 575 OFFCURVE",
"292 575 CURVE SMOOTH",
"303 575 OFFCURVE",
"318 574 OFFCURVE",
"337 572 CURVE",
"257 531 OFFCURVE",
"188 469 OFFCURVE",
"129 386 CURVE SMOOTH",
"67 298 OFFCURVE",
"36 212 OFFCURVE",
"36 127 CURVE SMOOTH",
"36 56 OFFCURVE",
"58 0 OFFCURVE",
"101 -39 CURVE SMOOTH",
"142 -76 OFFCURVE",
"198 -95 OFFCURVE",
"271 -97 CURVE",
"238 -154 OFFCURVE",
"205 -189 OFFCURVE",
"172 -201 CURVE",
"163 -203 OFFCURVE",
"157 -204 OFFCURVE",
"152 -205 CURVE SMOOTH",
"147 -206 OFFCURVE",
"145 -208 OFFCURVE",
"145 -212 CURVE SMOOTH",
"145 -217 OFFCURVE",
"148 -219 OFFCURVE",
"155 -219 CURVE SMOOTH",
"195 -219 OFFCURVE",
"237 -178 OFFCURVE",
"282 -97 CURVE",
"367 -96 OFFCURVE",
"455 -74 OFFCURVE",
"545 -28 CURVE SMOOTH",
"639 20 OFFCURVE",
"706 79 OFFCURVE",
"747 149 CURVE SMOOTH",
"750 154 OFFCURVE",
"751 159 OFFCURVE",
"751 164 CURVE SMOOTH"
);
},
{
closed = 1;
nodes = (
"716 474 OFFCURVE",
"713 470 OFFCURVE",
"708 470 CURVE SMOOTH",
"705 470 OFFCURVE",
"701 472 OFFCURVE",
"695 475 CURVE SMOOTH",
"620 516 OFFCURVE",
"542 544 OFFCURVE",
"462 561 CURVE",
"463 574 OFFCURVE",
"464 586 OFFCURVE",
"465 597 CURVE",
"478 598 OFFCURVE",
"490 599 OFFCURVE",
"503 599 CURVE SMOOTH",
"544 599 OFFCURVE",
"582 592 OFFCURVE",
"619 577 CURVE SMOOTH",
"662 560 OFFCURVE",
"692 536 OFFCURVE",
"709 505 CURVE SMOOTH",
"714 496 OFFCURVE",
"716 488 OFFCURVE",
"716 481 CURVE SMOOTH"
);
},
{
closed = 1;
nodes = (
"449 585 OFFCURVE",
"449 575 OFFCURVE",
"448 564 CURVE",
"426 568 OFFCURVE",
"401 572 OFFCURVE",
"374 576 CURVE",
"397 585 OFFCURVE",
"423 592 OFFCURVE",
"450 596 CURVE"
);
},
{
closed = 1;
nodes = (
"437 448 OFFCURVE",
"419 345 OFFCURVE",
"393 240 CURVE SMOOTH",
"364 122 OFFCURVE",
"331 23 OFFCURVE",
"292 -56 CURVE",
"229 -50 OFFCURVE",
"181 -28 OFFCURVE",
"146 9 CURVE SMOOTH",
"111 46 OFFCURVE",
"94 95 OFFCURVE",
"94 158 CURVE SMOOTH",
"94 241 OFFCURVE",
"119 322 OFFCURVE",
"169 400 CURVE SMOOTH",
"219 478 OFFCURVE",
"282 534 OFFCURVE",
"357 569 CURVE",
"388 564 OFFCURVE",
"418 558 OFFCURVE",
"447 549 CURVE"
);
}
);
width = 717;
}
);
note = C;
unicode = 0043;
},
{
glyphname = D;
layers = (
{
hints = (
{
horizontal = 1;
place = "{-94, 24}";
type = Stem;
},
{
horizontal = 1;
place = "{-55, 13}";
type = Stem;
},
{
horizontal = 1;
place = "{82, 10}";
type = Stem;
},
{
horizontal = 1;
place = "{656, 28}";
type = Stem;
},
{
horizontal = 1;
place = "{723, -20}";
target = down;
type = TopGhost;
},
{
place = "{2, 17}";
type = Stem;
},
{
place = "{86, 36}";
type = Stem;
},
{
place = "{910, 60}";
type = Stem;
}
);
layerId = "89156F97-8AE0-4F29-8E8C-D321EE696556";
paths = (
{
closed = 1;
nodes = (
"970 367 OFFCURVE",
"939 433 OFFCURVE",
"877 488 CURVE SMOOTH",
"822 537 OFFCURVE",
"754 569 OFFCURVE",
"674 582 CURVE",
"711 631 OFFCURVE",
"751 656 OFFCURVE",
"795 656 CURVE SMOOTH",
"812 656 OFFCURVE",
"829 651 OFFCURVE",
"846 642 CURVE SMOOTH",
"865 632 OFFCURVE",
"877 619 OFFCURVE",
"881 604 CURVE SMOOTH",
"883 595 OFFCURVE",
"886 591 OFFCURVE",
"889 591 CURVE SMOOTH",
"891 591 OFFCURVE",
"892 592 OFFCURVE",
"892 595 CURVE SMOOTH",
"892 602 OFFCURVE",
"891 610 OFFCURVE",
"887 620 CURVE SMOOTH",
"880 640 OFFCURVE",
"867 656 OFFCURVE",
"848 667 CURVE SMOOTH",
"829 678 OFFCURVE",
"809 684 OFFCURVE",
"787 684 CURVE SMOOTH",
"734 684 OFFCURVE",
"684 652 OFFCURVE",
"635 587 CURVE",
"586 598 OFFCURVE",
"534 603 OFFCURVE",
"480 602 CURVE",
"481 649 OFFCURVE",
"479 687 OFFCURVE",
"474 718 CURVE",
"473 721 OFFCURVE",
"472 723 OFFCURVE",
"471 723 CURVE SMOOTH",
"468 723 OFFCURVE",
"466 721 OFFCURVE",
"466 716 CURVE SMOOTH",
"466 709 OFFCURVE",
"466 700 OFFCURVE",
"467 687 CURVE SMOOTH",
"468 674 OFFCURVE",
"468 665 OFFCURVE",
"468 658 CURVE SMOOTH",
"468 639 OFFCURVE",
"467 621 OFFCURVE",
"466 602 CURVE",
"312 597 OFFCURVE",
"198 556 OFFCURVE",
"123 477 CURVE SMOOTH",
"98 451 OFFCURVE",
"86 423 OFFCURVE",
"86 393 CURVE SMOOTH",
"86 353 OFFCURVE",
"104 317 OFFCURVE",
"141 285 CURVE SMOOTH",
"175 256 OFFCURVE",
"212 240 OFFCURVE",
"253 237 CURVE",
"255 236 LINE",
"260 236 OFFCURVE",
"262 238 OFFCURVE",
"262 241 CURVE SMOOTH",
"262 243 OFFCURVE",
"260 244 OFFCURVE",
"257 245 CURVE SMOOTH",
"235 250 OFFCURVE",
"218 255 OFFCURVE",
"207 260 CURVE SMOOTH",
"150 286 OFFCURVE",
"122 326 OFFCURVE",
"122 379 CURVE SMOOTH",
"122 410 OFFCURVE",
"135 439 OFFCURVE",
"160 466 CURVE SMOOTH",
"228 539 OFFCURVE",
"330 578 OFFCURVE",
"465 585 CURVE",
"458 492 OFFCURVE",
"439 398 OFFCURVE",
"408 303 CURVE SMOOTH",
"373 196 OFFCURVE",
"330 111 OFFCURVE",
"277 48 CURVE",
"207 77 OFFCURVE",
"152 92 OFFCURVE",
"113 92 CURVE SMOOTH",
"84 92 OFFCURVE",
"60 86 OFFCURVE",
"40 75 CURVE SMOOTH",
"15 61 OFFCURVE",
"2 42 OFFCURVE",
"2 16 CURVE SMOOTH",
"2 -11 OFFCURVE",
"16 -35 OFFCURVE",
"43 -57 CURVE SMOOTH",
"68 -77 OFFCURVE",
"94 -89 OFFCURVE",
"121 -92 CURVE SMOOTH",
"133 -93 OFFCURVE",
"146 -94 OFFCURVE",
"160 -94 CURVE SMOOTH",
"247 -94 OFFCURVE",
"314 -64 OFFCURVE",
"361 -4 CURVE",
"446 -39 OFFCURVE",
"527 -57 OFFCURVE",
"602 -57 CURVE SMOOTH",
"676 -57 OFFCURVE",
"743 -39 OFFCURVE",
"803 -4 CURVE SMOOTH",
"862 31 OFFCURVE",
"907 81 OFFCURVE",
"938 146 CURVE SMOOTH",
"959 192 OFFCURVE",
"970 240 OFFCURVE",
"970 290 CURVE SMOOTH"
);
},
{
closed = 1;
nodes = (
"910 187 OFFCURVE",
"880 111 OFFCURVE",
"820 50 CURVE SMOOTH",
"760 -10 OFFCURVE",
"684 -40 OFFCURVE",
"592 -40 CURVE SMOOTH",
"524 -40 OFFCURVE",
"451 -24 OFFCURVE",
"372 9 CURVE",
"403 45 OFFCURVE",
"437 98 OFFCURVE",
"472 169 CURVE SMOOTH",
"524 274 OFFCURVE",
"559 355 OFFCURVE",
"583 409 CURVE SMOOTH",
"616 483 OFFCURVE",
"644 536 OFFCURVE",
"665 568 CURVE",
"734 556 OFFCURVE",
"792 522 OFFCURVE",
"839 466 CURVE SMOOTH",
"886 411 OFFCURVE",
"910 348 OFFCURVE",
"910 279 CURVE SMOOTH"
);
},
{
closed = 1;
nodes = (
"594 542 OFFCURVE",
"556 478 OFFCURVE",
"511 380 CURVE SMOOTH",
"478 308 OFFCURVE",
"447 236 OFFCURVE",
"413 164 CURVE SMOOTH",
"382 98 OFFCURVE",
"353 52 OFFCURVE",
"329 27 CURVE",
"294 41 LINE",
"347 105 OFFCURVE",
"391 191 OFFCURVE",
"425 299 CURVE SMOOTH",
"456 397 OFFCURVE",
"474 493 OFFCURVE",
"479 586 CURVE",
"486 586 OFFCURVE",
"494 586 OFFCURVE",
"501 586 CURVE SMOOTH",
"544 586 OFFCURVE",
"585 582 OFFCURVE",
"625 575 CURVE"
);
},
{
closed = 1;
nodes = (
"305 -12 OFFCURVE",
"278 -32 OFFCURVE",
"241 -48 CURVE SMOOTH",
"207 -63 OFFCURVE",
"174 -70 OFFCURVE",
"141 -70 CURVE SMOOTH",
"113 -70 OFFCURVE",
"86 -62 OFFCURVE",
"61 -45 CURVE SMOOTH",
"33 -26 OFFCURVE",
"19 -3 OFFCURVE",
"19 23 CURVE SMOOTH",
"19 44 OFFCURVE",
"29 59 OFFCURVE",
"49 69 CURVE SMOOTH",
"65 77 OFFCURVE",
"84 82 OFFCURVE",
"106 82 CURVE SMOOTH",
"149 82 OFFCURVE",
"204 67 OFFCURVE",
"269 38 CURVE",
"222 -15 OFFCURVE",
"174 -42 OFFCURVE",
"125 -42 CURVE SMOOTH",
"113 -42 OFFCURVE",
"107 -44 OFFCURVE",
"107 -47 CURVE SMOOTH",
"107 -52 OFFCURVE",
"114 -55 OFFCURVE",
"127 -55 CURVE SMOOTH",
"182 -55 OFFCURVE",
"235 -26 OFFCURVE",
"285 31 CURVE",
"297 25 OFFCURVE",
"309 19 OFFCURVE",
"321 13 CURVE"
);
}
);
width = 983;
}
);
note = D;
unicode = 0044;
},
{
glyphname = E;
layers = (
{
hints = (
{
horizontal = 1;
place = "{-119, 21}";
type = Stem;
},
{
horizontal = 1;
place = "{-55, 13}";
type = Stem;
},
{
horizontal = 1;
place = "{50, 15}";
type = Stem;
},
{
horizontal = 1;
place = "{273, 26}";
type = Stem;
},
{
horizontal = 1;
place = "{493, 34}";
type = Stem;
},
{
horizontal = 1;
place = "{593, 23}";
type = Stem;
},
{
horizontal = 1;
place = "{682, -20}";
target = down;
type = TopGhost;
},
{
horizontal = 1;
place = "{723, -20}";
target = down;
type = TopGhost;
},
{
place = "{8, 25}";
type = Stem;
},
{
place = "{119, 39}";
type = Stem;
},
{
place = "{962, 16}";
type = Stem;
},
{
place = "{1075, 14}";
type = Stem;
}
);
layerId = "89156F97-8AE0-4F29-8E8C-D321EE696556";
paths = (
{
closed = 1;
nodes = (
"1089 572 OFFCURVE",
"1087 581 OFFCURVE",
"1083 593 CURVE SMOOTH",
"1080 604 OFFCURVE",
"1075 610 OFFCURVE",
"1070 610 CURVE SMOOTH",
"1068 610 OFFCURVE",
"1067 609 OFFCURVE",
"1067 607 CURVE SMOOTH",
"1067 606 OFFCURVE",
"1068 603 OFFCURVE",
"1071 598 CURVE SMOOTH",
"1074 594 OFFCURVE",
"1075 589 OFFCURVE",
"1075 583 CURVE SMOOTH",
"1075 562 OFFCURVE",
"1060 547 OFFCURVE",
"1031 537 CURVE SMOOTH",
"1011 530 OFFCURVE",
"987 527 OFFCURVE",
"960 527 CURVE SMOOTH",
"913 527 OFFCURVE",
"827 539 OFFCURVE",
"701 564 CURVE",
"746 629 OFFCURVE",
"791 662 OFFCURVE",
"836 662 CURVE SMOOTH",
"852 662 OFFCURVE",
"866 659 OFFCURVE",
"878 652 CURVE SMOOTH",
"892 644 OFFCURVE",
"898 631 OFFCURVE",
"898 616 CURVE SMOOTH",
"898 609 OFFCURVE",
"899 606 OFFCURVE",
"902 606 CURVE SMOOTH",
"905 606 OFFCURVE",
"907 610 OFFCURVE",
"907 618 CURVE SMOOTH",
"907 661 OFFCURVE",
"881 682 OFFCURVE",
"830 682 CURVE SMOOTH",
"772 682 OFFCURVE",
"714 645 OFFCURVE",
"657 572 CURVE",
"582 587 OFFCURVE",
"523 597 OFFCURVE",
"480 603 CURVE",
"481 648 OFFCURVE",
"479 687 OFFCURVE",
"474 718 CURVE",
"473 721 OFFCURVE",
"472 723 OFFCURVE",
"471 723 CURVE SMOOTH",
"468 723 OFFCURVE",
"466 721 OFFCURVE",
"466 716 CURVE SMOOTH",
"466 709 OFFCURVE",
"466 700 OFFCURVE",
"467 687 CURVE SMOOTH",
"468 674 OFFCURVE",
"468 665 OFFCURVE",
"468 658 CURVE SMOOTH",
"468 641 OFFCURVE",
"467 623 OFFCURVE",
"466 605 CURVE",
"413 612 OFFCURVE",
"368 616 OFFCURVE",
"329 616 CURVE SMOOTH",
"308 616 OFFCURVE",
"290 615 OFFCURVE",
"273 613 CURVE SMOOTH",
"230 608 OFFCURVE",
"195 596 OFFCURVE",
"168 576 CURVE SMOOTH",
"135 552 OFFCURVE",
"119 521 OFFCURVE",
"119 481 CURVE SMOOTH",
"119 411 OFFCURVE",
"163 351 OFFCURVE",
"252 300 CURVE SMOOTH",
"254 299 OFFCURVE",
"256 298 OFFCURVE",
"258 298 CURVE SMOOTH",
"261 298 OFFCURVE",
"262 299 OFFCURVE",
"262 301 CURVE SMOOTH",
"262 303 OFFCURVE",
"260 305 OFFCURVE",
"257 306 CURVE",
"191 353 OFFCURVE",
"158 405 OFFCURVE",
"158 462 CURVE SMOOTH",
"158 524 OFFCURVE",
"191 565 OFFCURVE",
"256 583 CURVE SMOOTH",
"281 590 OFFCURVE",
"311 593 OFFCURVE",
"348 593 CURVE SMOOTH",
"381 593 OFFCURVE",
"420 590 OFFCURVE",
"465 584 CURVE",
"458 489 OFFCURVE",
"438 394 OFFCURVE",
"406 299 CURVE SMOOTH",
"370 190 OFFCURVE",
"326 105 OFFCURVE",
"272 43 CURVE",
"223 58 OFFCURVE",
"184 65 OFFCURVE",
"154 65 CURVE SMOOTH",
"117 65 OFFCURVE",
"85 59 OFFCURVE",
"59 46 CURVE SMOOTH",
"25 29 OFFCURVE",
"8 4 OFFCURVE",
"8 -29 CURVE SMOOTH",
"8 -56 OFFCURVE",
"24 -78 OFFCURVE",
"56 -96 CURVE SMOOTH",
"83 -111 OFFCURVE",
"112 -119 OFFCURVE",
"141 -119 CURVE SMOOTH",
"227 -119 OFFCURVE",
"305 -81 OFFCURVE",
"376 -4 CURVE",
"449 -32 OFFCURVE",
"522 -60 OFFCURVE",
"595 -88 CURVE SMOOTH",
"690 -124 OFFCURVE",
"762 -142 OFFCURVE",
"813 -142 CURVE SMOOTH",
"858 -142 OFFCURVE",
"896 -129 OFFCURVE",
"927 -104 CURVE SMOOTH",
"961 -77 OFFCURVE",
"978 -41 OFFCURVE",
"978 3 CURVE SMOOTH",
"978 53 OFFCURVE",
"956 96 OFFCURVE",
"913 132 CURVE SMOOTH",
"907 137 OFFCURVE",
"903 139 OFFCURVE",
"901 139 CURVE SMOOTH",
"900 139 OFFCURVE",
"900 139 OFFCURVE",
"900 138 CURVE",
"900 138 OFFCURVE",
"910 121 OFFCURVE",
"931 87 CURVE SMOOTH",
"952 53 OFFCURVE",
"962 24 OFFCURVE",
"962 0 CURVE SMOOTH",
"962 -32 OFFCURVE",
"944 -56 OFFCURVE",
"908 -72 CURVE SMOOTH",
"881 -84 OFFCURVE",
"849 -89 OFFCURVE",
"812 -89 CURVE SMOOTH",
"754 -89 OFFCURVE",
"683 -77 OFFCURVE",
"598 -53 CURVE SMOOTH",
"528 -33 OFFCURVE",
"458 -12 OFFCURVE",
"388 9 CURVE",
"427 55 OFFCURVE",
"468 117 OFFCURVE",
"510 194 CURVE",
"517 177 OFFCURVE",
"524 168 OFFCURVE",
"532 168 CURVE",
"532 170 LINE",
"528 178 OFFCURVE",
"526 185 OFFCURVE",
"526 190 CURVE SMOOTH",
"526 223 OFFCURVE",
"564 246 OFFCURVE",
"641 260 CURVE SMOOTH",
"688 269 OFFCURVE",
"739 273 OFFCURVE",
"794 273 CURVE SMOOTH",
"803 273 OFFCURVE",
"816 272 OFFCURVE",
"833 270 CURVE SMOOTH",
"850 268 OFFCURVE",
"862 267 OFFCURVE",
"870 267 CURVE SMOOTH",
"873 267 OFFCURVE",
"875 268 OFFCURVE",
"875 271 CURVE SMOOTH",
"875 272 OFFCURVE",
"873 274 OFFCURVE",
"869 275 CURVE SMOOTH",
"823 291 OFFCURVE",
"761 299 OFFCURVE",
"682 299 CURVE SMOOTH",
"624 299 OFFCURVE",
"582 294 OFFCURVE",
"556 285 CURVE",
"625 428 OFFCURVE",
"669 513 OFFCURVE",
"686 541 CURVE",
"829 509 OFFCURVE",
"925 493 OFFCURVE",
"973 493 CURVE SMOOTH",
"1050 493 OFFCURVE",
"1089 517 OFFCURVE",
"1089 565 CURVE SMOOTH"
);
},
{
closed = 1;
nodes = (
"610 508 OFFCURVE",
"576 454 OFFCURVE",
"543 390 CURVE SMOOTH",
"514 334 OFFCURVE",
"487 277 OFFCURVE",
"459 221 CURVE SMOOTH",
"409 122 OFFCURVE",
"368 56 OFFCURVE",
"336 23 CURVE",
"291 37 LINE",
"344 100 OFFCURVE",
"389 186 OFFCURVE",
"424 295 CURVE SMOOTH",
"455 392 OFFCURVE",
"474 488 OFFCURVE",
"479 582 CURVE",
"522 575 OFFCURVE",
"576 565 OFFCURVE",
"641 551 CURVE"
);
},
{
closed = 1;
nodes = (
"310 -16 OFFCURVE",
"280 -41 OFFCURVE",
"241 -63 CURVE SMOOTH",
"200 -87 OFFCURVE",
"163 -98 OFFCURVE",
"131 -98 CURVE SMOOTH",
"107 -98 OFFCURVE",
"85 -92 OFFCURVE",
"66 -80 CURVE SMOOTH",
"44 -67 OFFCURVE",
"33 -48 OFFCURVE",
"33 -25 CURVE SMOOTH",
"33 2 OFFCURVE",
"48 22 OFFCURVE",
"77 35 CURVE SMOOTH",
"100 45 OFFCURVE",
"126 50 OFFCURVE",
"156 50 CURVE SMOOTH",
"187 50 OFFCURVE",
"222 44 OFFCURVE",
"262 32 CURVE",
"217 -17 OFFCURVE",
"172 -42 OFFCURVE",
"125 -42 CURVE SMOOTH",
"113 -42 OFFCURVE",
"107 -44 OFFCURVE",
"107 -47 CURVE SMOOTH",
"107 -52 OFFCURVE",
"114 -55 OFFCURVE",
"127 -55 CURVE SMOOTH",
"180 -55 OFFCURVE",
"232 -28 OFFCURVE",
"281 26 CURVE",
"304 19 OFFCURVE",
"320 14 OFFCURVE",
"329 11 CURVE"
);
}
);
width = 980;
}
);
note = E;
unicode = 0045;
},
{
glyphname = F;
layers = (
{
hints = (
{
horizontal = 1;
place = "{-108, 19}";
type = Stem;
},
{
horizontal = 1;
place = "{-55, 13}";
type = Stem;
},
{
horizontal = 1;
place = "{263, 22}";
type = Stem;
},
{
horizontal = 1;
place = "{456, 30}";
type = Stem;
},
{
horizontal = 1;
place = "{566, -20}";
target = down;
type = TopGhost;
},
{
horizontal = 1;
place = "{655, 18}";
type = Stem;
},
{
horizontal = 1;
place = "{723, -20}";
target = down;
type = TopGhost;
},
{
place = "{41, 34}";
type = Stem;
},
{
place = "{468, 12}";
type = Stem;
},
{
place = "{893, 12}";
type = Stem;
}
);
layerId = "89156F97-8AE0-4F29-8E8C-D321EE696556";
paths = (
{
closed = 1;
nodes = (
"905 526 OFFCURVE",
"904 534 OFFCURVE",
"901 543 CURVE SMOOTH",
"897 555 OFFCURVE",
"893 561 OFFCURVE",
"888 561 CURVE SMOOTH",
"887 561 OFFCURVE",
"886 560 OFFCURVE",
"886 558 CURVE SMOOTH",
"886 557 OFFCURVE",
"887 554 OFFCURVE",
"890 550 CURVE SMOOTH",
"892 547 OFFCURVE",
"893 542 OFFCURVE",
"893 537 CURVE SMOOTH",
"893 503 OFFCURVE",
"859 486 OFFCURVE",
"790 486 CURVE SMOOTH",
"754 486 OFFCURVE",
"700 493 OFFCURVE",
"627 506 CURVE",
"683 605 OFFCURVE",
"736 655 OFFCURVE",
"787 655 CURVE SMOOTH",
"824 655 OFFCURVE",
"842 641 OFFCURVE",
"842 614 CURVE SMOOTH",
"842 608 OFFCURVE",
"843 605 OFFCURVE",
"846 605 CURVE SMOOTH",
"849 605 OFFCURVE",
"850 609 OFFCURVE",
"850 616 CURVE SMOOTH",
"850 654 OFFCURVE",
"827 673 OFFCURVE",
"782 673 CURVE SMOOTH",
"707 673 OFFCURVE",
"639 621 OFFCURVE",
"576 516 CURVE",
"511 529 OFFCURVE",
"478 535 OFFCURVE",
"475 535 CURVE",
"478 568 OFFCURVE",
"480 599 OFFCURVE",
"480 628 CURVE SMOOTH",
"480 665 OFFCURVE",
"478 695 OFFCURVE",
"474 718 CURVE SMOOTH",
"473 721 OFFCURVE",
"472 723 OFFCURVE",
"471 723 CURVE SMOOTH",
"468 723 OFFCURVE",
"466 721 OFFCURVE",
"466 716 CURVE SMOOTH",
"466 709 OFFCURVE",
"466 700 OFFCURVE",
"467 687 CURVE SMOOTH",
"468 674 OFFCURVE",
"468 665 OFFCURVE",
"468 658 CURVE SMOOTH",
"468 619 OFFCURVE",
"465 579 OFFCURVE",
"460 538 CURVE",
"361 557 OFFCURVE",
"283 566 OFFCURVE",
"228 566 CURVE SMOOTH",
"178 566 OFFCURVE",
"137 558 OFFCURVE",
"105 543 CURVE SMOOTH",
"62 522 OFFCURVE",
"41 490 OFFCURVE",
"41 445 CURVE SMOOTH",
"41 383 OFFCURVE",
"80 329 OFFCURVE",
"159 284 CURVE SMOOTH",
"161 283 OFFCURVE",
"163 282 OFFCURVE",
"164 282 CURVE SMOOTH",
"167 282 OFFCURVE",
"168 283 OFFCURVE",
"168 285 CURVE SMOOTH",
"168 286 OFFCURVE",
"167 288 OFFCURVE",
"164 290 CURVE SMOOTH",
"105 331 OFFCURVE",
"75 378 OFFCURVE",
"75 429 CURVE SMOOTH",
"75 507 OFFCURVE",
"131 546 OFFCURVE",
"244 546 CURVE SMOOTH",
"296 546 OFFCURVE",
"367 537 OFFCURVE",
"458 518 CURVE",
"448 447 OFFCURVE",
"432 377 OFFCURVE",
"410 309 CURVE SMOOTH",
"383 225 OFFCURVE",
"348 152 OFFCURVE",
"308 91 CURVE SMOOTH",
"250 2 OFFCURVE",
"189 -42 OFFCURVE",
"125 -42 CURVE SMOOTH",
"113 -42 OFFCURVE",
"107 -44 OFFCURVE",
"107 -47 CURVE SMOOTH",
"107 -52 OFFCURVE",
"114 -55 OFFCURVE",
"127 -55 CURVE SMOOTH",
"197 -55 OFFCURVE",
"262 -10 OFFCURVE",
"323 80 CURVE SMOOTH",
"366 143 OFFCURVE",
"400 220 OFFCURVE",
"428 309 CURVE SMOOTH",
"449 377 OFFCURVE",
"464 446 OFFCURVE",
"473 515 CURVE",
"564 495 LINE",
"541 454 OFFCURVE",
"513 398 OFFCURVE",
"481 325 CURVE SMOOTH",
"443 240 OFFCURVE",
"416 183 OFFCURVE",
"401 153 CURVE SMOOTH",
"365 82 OFFCURVE",
"330 29 OFFCURVE",
"297 -7 CURVE SMOOTH",
"247 -62 OFFCURVE",
"192 -89 OFFCURVE",
"133 -89 CURVE SMOOTH",
"111 -89 OFFCURVE",
"92 -84 OFFCURVE",
"75 -74 CURVE SMOOTH",
"56 -62 OFFCURVE",
"46 -45 OFFCURVE",
"46 -24 CURVE SMOOTH",
"46 1 OFFCURVE",
"59 20 OFFCURVE",
"84 33 CURVE SMOOTH",
"104 44 OFFCURVE",
"127 49 OFFCURVE",
"154 49 CURVE SMOOTH",
"160 49 OFFCURVE",
"163 50 OFFCURVE",
"163 53 CURVE SMOOTH",
"163 55 OFFCURVE",
"160 56 OFFCURVE",
"154 56 CURVE SMOOTH",
"122 56 OFFCURVE",
"94 50 OFFCURVE",
"69 37 CURVE SMOOTH",
"38 21 OFFCURVE",
"22 -1 OFFCURVE",
"22 -30 CURVE SMOOTH",
"22 -57 OFFCURVE",
"36 -78 OFFCURVE",
"65 -92 CURVE SMOOTH",
"87 -103 OFFCURVE",
"113 -108 OFFCURVE",
"142 -108 CURVE SMOOTH",
"214 -108 OFFCURVE",
"282 -71 OFFCURVE",
"347 2 CURVE SMOOTH",
"388 48 OFFCURVE",
"431 116 OFFCURVE",
"478 207 CURVE",
"479 200 OFFCURVE",
"482 193 OFFCURVE",
"487 184 CURVE SMOOTH",
"491 175 OFFCURVE",
"496 171 OFFCURVE",
"500 171 CURVE",
"500 171 LINE",
"500 173 OFFCURVE",
"499 176 OFFCURVE",
"497 181 CURVE SMOOTH",
"496 185 OFFCURVE",
"495 188 OFFCURVE",
"495 191 CURVE SMOOTH",
"495 219 OFFCURVE",
"528 240 OFFCURVE",
"595 252 CURVE SMOOTH",
"636 260 OFFCURVE",
"681 263 OFFCURVE",
"728 263 CURVE SMOOTH",
"736 263 OFFCURVE",
"747 262 OFFCURVE",
"762 260 CURVE SMOOTH",
"776 259 OFFCURVE",
"787 258 OFFCURVE",
"794 258 CURVE SMOOTH",
"797 258 OFFCURVE",
"798 259 OFFCURVE",
"798 261 CURVE SMOOTH",
"798 263 OFFCURVE",
"796 264 OFFCURVE",
"793 265 CURVE SMOOTH",
"752 278 OFFCURVE",
"698 285 OFFCURVE",
"631 285 CURVE SMOOTH",
"568 285 OFFCURVE",
"527 279 OFFCURVE",
"508 268 CURVE",
"574 403 OFFCURVE",
"609 475 OFFCURVE",
"614 484 CURVE",
"700 465 OFFCURVE",
"763 456 OFFCURVE",
"802 456 CURVE SMOOTH",
"871 456 OFFCURVE",
"905 477 OFFCURVE",
"905 520 CURVE SMOOTH"
);
}
);
width = 760;
}
);
note = F;
unicode = 0046;
},
{
glyphname = G;
layers = (
{
hints = (
{
horizontal = 1;
place = "{-321, 23}";
type = Stem;
},
{
horizontal = 1;
place = "{-38, 49}";
type = Stem;
},
{
horizontal = 1;
place = "{599, 26}";
type = Stem;
},
{
place = "{11, 35}";
type = Stem;
},
{
place = "{552, 14}";
type = Stem;
},
{
place = "{716, 33}";
type = Stem;
}
);
layerId = "89156F97-8AE0-4F29-8E8C-D321EE696556";
paths = (
{
closed = 1;
nodes = (
"749 434 LINE SMOOTH",
"749 551 OFFCURVE",
"683 615 OFFCURVE",
"568 624 CURVE",
"567 665 OFFCURVE",
"563 686 OFFCURVE",
"557 686 CURVE SMOOTH",
"554 686 OFFCURVE",
"552 683 OFFCURVE",
"552 678 CURVE SMOOTH",
"552 672 OFFCURVE",
"552 663 OFFCURVE",
"553 651 CURVE SMOOTH",
"554 640 OFFCURVE",
"554 631 OFFCURVE",
"554 625 CURVE",
"490 628 OFFCURVE",
"423 612 OFFCURVE",
"352 579 CURVE",
"325 582 OFFCURVE",
"302 584 OFFCURVE",
"285 584 CURVE SMOOTH",
"230 584 OFFCURVE",
"176 576 OFFCURVE",
"122 560 CURVE SMOOTH",
"48 538 OFFCURVE",
"11 505 OFFCURVE",
"11 464 CURVE SMOOTH",
"11 455 OFFCURVE",
"14 445 OFFCURVE",
"18 435 CURVE SMOOTH",
"24 422 OFFCURVE",
"30 416 OFFCURVE",
"38 416 CURVE SMOOTH",
"44 416 OFFCURVE",
"47 421 OFFCURVE",
"47 430 CURVE SMOOTH",
"47 432 OFFCURVE",
"47 435 OFFCURVE",
"47 438 CURVE",
"46 441 OFFCURVE",
"46 444 OFFCURVE",
"46 446 CURVE SMOOTH",
"46 475 OFFCURVE",
"66 502 OFFCURVE",
"107 526 CURVE SMOOTH",
"136 543 OFFCURVE",
"169 556 OFFCURVE",
"207 565 CURVE SMOOTH",
"236 572 OFFCURVE",
"265 575 OFFCURVE",
"292 575 CURVE SMOOTH",
"303 575 OFFCURVE",
"318 574 OFFCURVE",
"337 572 CURVE",
"256 531 OFFCURVE",
"185 467 OFFCURVE",
"126 382 CURVE SMOOTH",
"64 292 OFFCURVE",
"33 203 OFFCURVE",
"33 116 CURVE SMOOTH",
"33 73 OFFCURVE",
"42 39 OFFCURVE",
"60 11 CURVE SMOOTH",
"81 -21 OFFCURVE",
"111 -38 OFFCURVE",
"151 -38 CURVE SMOOTH",
"206 -38 OFFCURVE",
"270 -9 OFFCURVE",
"345 50 CURVE SMOOTH",
"405 97 OFFCURVE",
"457 149 OFFCURVE",
"500 207 CURVE",
"479 116 OFFCURVE",
"453 33 OFFCURVE",
"425 -40 CURVE SMOOTH",
"382 -151 OFFCURVE",
"338 -221 OFFCURVE",
"291 -250 CURVE SMOOTH",
"282 -256 OFFCURVE",
"269 -261 OFFCURVE",
"254 -264 CURVE SMOOTH",
"249 -265 OFFCURVE",
"246 -268 OFFCURVE",
"246 -271 CURVE SMOOTH",
"246 -276 OFFCURVE",
"249 -278 OFFCURVE",
"256 -278 CURVE SMOOTH",
"271 -278 OFFCURVE",
"288 -271 OFFCURVE",
"306 -257 CURVE SMOOTH",
"352 -221 OFFCURVE",
"395 -145 OFFCURVE",
"439 -30 CURVE SMOOTH",
"469 48 OFFCURVE",
"495 134 OFFCURVE",
"517 229 CURVE",
"566 297 OFFCURVE",
"590 338 OFFCURVE",
"590 351 CURVE SMOOTH",
"590 352 OFFCURVE",
"589 353 OFFCURVE",
"588 354 CURVE",
"587 354 OFFCURVE",
"584 350 OFFCURVE",
"579 342 CURVE SMOOTH",
"559 311 OFFCURVE",
"541 285 OFFCURVE",
"525 264 CURVE",
"544 351 OFFCURVE",
"557 431 OFFCURVE",
"564 504 CURVE",
"632 467 OFFCURVE",
"683 438 OFFCURVE",
"716 418 CURVE SMOOTH",
"723 414 OFFCURVE",
"729 412 OFFCURVE",
"735 412 CURVE SMOOTH",
"745 412 OFFCURVE",
"749 418 OFFCURVE",
"749 429 CURVE SMOOTH"
);
},
{
closed = 1;
nodes = (
"678 400 OFFCURVE",
"668 404 OFFCURVE",
"655 404 CURVE SMOOTH",
"626 404 OFFCURVE",
"597 353 OFFCURVE",
"568 252 CURVE SMOOTH",
"510 51 OFFCURVE",
"481 -50 OFFCURVE",
"480 -51 CURVE",
"437 -170 OFFCURVE",
"386 -245 OFFCURVE",
"328 -277 CURVE SMOOTH",
"302 -291 OFFCURVE",
"274 -298 OFFCURVE",
"245 -298 CURVE SMOOTH",
"184 -298 OFFCURVE",
"139 -265 OFFCURVE",
"111 -200 CURVE SMOOTH",
"109 -196 OFFCURVE",
"107 -194 OFFCURVE",
"106 -194 CURVE SMOOTH",
"104 -194 OFFCURVE",
"103 -195 OFFCURVE",
"103 -198 CURVE SMOOTH",
"103 -229 OFFCURVE",
"123 -257 OFFCURVE",
"164 -284 CURVE SMOOTH",
"201 -309 OFFCURVE",
"236 -321 OFFCURVE",
"269 -321 CURVE SMOOTH",
"298 -321 OFFCURVE",
"326 -315 OFFCURVE",
"350 -302 CURVE SMOOTH",
"430 -259 OFFCURVE",
"497 -170 OFFCURVE",
"550 -35 CURVE SMOOTH",
"574 25 OFFCURVE",
"607 136 OFFCURVE",
"647 298 CURVE SMOOTH",
"662 359 OFFCURVE",
"674 390 OFFCURVE",
"684 393 CURVE",
"685 393 OFFCURVE",
"686 393 OFFCURVE",
"686 393 CURVE"
);
},
{
closed = 1;
nodes = (
"716 474 OFFCURVE",
"713 470 OFFCURVE",
"708 470 CURVE SMOOTH",
"705 470 OFFCURVE",
"701 472 OFFCURVE",
"695 475 CURVE SMOOTH",
"645 502 OFFCURVE",
"602 521 OFFCURVE",
"566 533 CURVE",
"567 555 OFFCURVE",
"568 575 OFFCURVE",
"569 593 CURVE",
"636 579 OFFCURVE",
"683 550 OFFCURVE",
"709 505 CURVE SMOOTH",
"714 497 OFFCURVE",
"716 489 OFFCURVE",
"716 481 CURVE SMOOTH"
);
},
{
closed = 1;
nodes = (
"554 577 OFFCURVE",
"553 558 OFFCURVE",
"552 538 CURVE",
"503 553 OFFCURVE",
"444 566 OFFCURVE",
"374 576 CURVE",
"413 591 OFFCURVE",
"456 599 OFFCURVE",
"503 599 CURVE SMOOTH",
"521 599 OFFCURVE",
"538 598 OFFCURVE",
"554 596 CURVE"
);
},
{
closed = 1;
nodes = (
"543 426 OFFCURVE",
"529 337 OFFCURVE",
"508 243 CURVE",
"463 187 OFFCURVE",
"413 139 OFFCURVE",
"361 97 CURVE SMOOTH",
"290 40 OFFCURVE",
"230 11 OFFCURVE",
"181 11 CURVE SMOOTH",
"144 11 OFFCURVE",
"117 26 OFFCURVE",
"99 56 CURVE SMOOTH",
"84 81 OFFCURVE",
"76 112 OFFCURVE",
"76 151 CURVE SMOOTH",
"76 235 OFFCURVE",
"104 317 OFFCURVE",
"160 398 CURVE SMOOTH",
"214 477 OFFCURVE",
"280 534 OFFCURVE",
"357 569 CURVE",
"422 560 OFFCURVE",
"486 540 OFFCURVE",
"550 511 CURVE"
);
}
);
width = 717;
}
);
note = G;
unicode = 0047;
},
{
glyphname = H;
layers = (
{
hints = (
{
horizontal = 1;
place = "{-231, 14}";
type = Stem;
},
{
horizontal = 1;
place = "{-181, 15}";
type = Stem;
},
{
horizontal = 1;
place = "{206, 17}";
type = Stem;
},
{
place = "{20, 39}";
type = Stem;
},
{
place = "{403, 55}";
type = Stem;
},
{
place = "{580, 67}";
type = Stem;
}
);
layerId = "89156F97-8AE0-4F29-8E8C-D321EE696556";
paths = (
{
closed = 1;
nodes = (
"896 -50 OFFCURVE",
"895 -50 OFFCURVE",
"894 -49 CURVE",
"894 -49 OFFCURVE",
"883 -59 OFFCURVE",
"862 -79 CURVE SMOOTH",
"837 -103 OFFCURVE",
"816 -122 OFFCURVE",
"796 -136 CURVE SMOOTH",
"767 -156 OFFCURVE",
"742 -166 OFFCURVE",
"722 -166 CURVE SMOOTH",
"672 -166 OFFCURVE",
"647 -125 OFFCURVE",
"647 -43 CURVE SMOOTH",
"647 18 OFFCURVE",
"662 100 OFFCURVE",
"692 205 CURVE SMOOTH",
"710 266 OFFCURVE",
"737 350 OFFCURVE",
"774 456 CURVE SMOOTH",
"802 537 OFFCURVE",
"819 588 OFFCURVE",
"824 608 CURVE SMOOTH",
"825 613 OFFCURVE",
"826 617 OFFCURVE",
"826 621 CURVE SMOOTH",
"826 630 OFFCURVE",
"824 635 OFFCURVE",
"819 635 CURVE SMOOTH",
"814 635 OFFCURVE",
"809 627 OFFCURVE",
"803 611 CURVE SMOOTH",
"784 563 OFFCURVE",
"770 526 OFFCURVE",
"760 502 CURVE SMOOTH",
"683 316 OFFCURVE",
"641 215 OFFCURVE",
"634 196 CURVE SMOOTH",
"598 95 OFFCURVE",
"580 14 OFFCURVE",
"580 -45 CURVE SMOOTH",
"580 -136 OFFCURVE",
"620 -181 OFFCURVE",
"699 -181 CURVE SMOOTH",
"734 -181 OFFCURVE",
"771 -168 OFFCURVE",
"809 -142 CURVE SMOOTH",
"843 -119 OFFCURVE",
"871 -91 OFFCURVE",
"893 -58 CURVE SMOOTH",
"895 -55 OFFCURVE",
"896 -53 OFFCURVE",
"896 -51 CURVE SMOOTH"
);
},
{
closed = 1;
nodes = (
"627 225 OFFCURVE",
"625 226 OFFCURVE",
"621 226 CURVE SMOOTH",
"612 226 OFFCURVE",
"600 226 OFFCURVE",
"585 225 CURVE SMOOTH",
"566 224 OFFCURVE",
"554 223 OFFCURVE",
"548 223 CURVE SMOOTH",
"467 221 OFFCURVE",
"408 218 OFFCURVE",
"372 215 CURVE",
"429 327 OFFCURVE",
"458 417 OFFCURVE",
"458 486 CURVE SMOOTH",
"458 568 OFFCURVE",
"422 617 OFFCURVE",
"351 632 CURVE",
"350 663 OFFCURVE",
"348 678 OFFCURVE",
"345 678 CURVE SMOOTH",
"341 678 OFFCURVE",
"339 675 OFFCURVE",
"339 670 CURVE SMOOTH",
"339 667 OFFCURVE",
"339 661 OFFCURVE",
"339 653 CURVE SMOOTH",
"339 645 OFFCURVE",
"339 639 OFFCURVE",
"339 634 CURVE",
"329 635 OFFCURVE",
"318 636 OFFCURVE",
"307 636 CURVE SMOOTH",
"274 636 OFFCURVE",
"240 631 OFFCURVE",
"205 619 CURVE SMOOTH",
"160 604 OFFCURVE",
"121 582 OFFCURVE",
"86 553 CURVE SMOOTH",
"42 517 OFFCURVE",
"20 479 OFFCURVE",
"20 439 CURVE SMOOTH",
"20 410 OFFCURVE",
"34 382 OFFCURVE",
"61 356 CURVE SMOOTH",
"83 335 OFFCURVE",
"110 318 OFFCURVE",
"141 305 CURVE",
"142 305 OFFCURVE",
"144 305 OFFCURVE",
"145 305 CURVE SMOOTH",
"150 305 OFFCURVE",
"153 308 OFFCURVE",
"153 313 CURVE SMOOTH",
"153 316 OFFCURVE",
"152 318 OFFCURVE",
"149 319 CURVE",
"89 350 OFFCURVE",
"59 387 OFFCURVE",
"59 429 CURVE SMOOTH",
"59 477 OFFCURVE",
"88 523 OFFCURVE",
"145 566 CURVE SMOOTH",
"199 607 OFFCURVE",
"251 627 OFFCURVE",
"301 627 CURVE SMOOTH",
"315 627 OFFCURVE",
"328 625 OFFCURVE",
"339 621 CURVE",
"334 488 OFFCURVE",
"297 344 OFFCURVE",
"226 191 CURVE",
"182 179 OFFCURVE",
"143 162 OFFCURVE",
"109 141 CURVE SMOOTH",
"62 112 OFFCURVE",
"38 80 OFFCURVE",
"38 45 CURVE SMOOTH",
"38 16 OFFCURVE",
"55 -11 OFFCURVE",
"89 -36 CURVE",
"40 -97 OFFCURVE",
"-6 -135 OFFCURVE",
"-50 -148 CURVE SMOOTH",
"-62 -151 OFFCURVE",
"-71 -153 OFFCURVE",
"-77 -153 CURVE",
"-82 -155 OFFCURVE",
"-85 -157 OFFCURVE",
"-85 -160 CURVE SMOOTH",
"-85 -165 OFFCURVE",
"-82 -167 OFFCURVE",
"-76 -167 CURVE SMOOTH",
"-25 -167 OFFCURVE",
"33 -125 OFFCURVE",
"99 -42 CURVE",
"110 -49 OFFCURVE",
"123 -56 OFFCURVE",
"136 -61 CURVE",
"49 -165 OFFCURVE",
"-30 -217 OFFCURVE",
"-102 -217 CURVE SMOOTH",
"-131 -217 OFFCURVE",
"-146 -204 OFFCURVE",
"-146 -178 CURVE SMOOTH",
"-146 -175 OFFCURVE",
"-146 -171 OFFCURVE",
"-146 -167 CURVE",
"-152 -172 OFFCURVE",
"-155 -182 OFFCURVE",
"-155 -195 CURVE SMOOTH",
"-155 -219 OFFCURVE",
"-137 -231 OFFCURVE",
"-102 -231 CURVE SMOOTH",
"-21 -231 OFFCURVE",
"69 -178 OFFCURVE",
"169 -73 CURVE",
"198 -82 OFFCURVE",
"219 -86 OFFCURVE",
"232 -86 CURVE SMOOTH",
"239 -86 OFFCURVE",
"242 -84 OFFCURVE",
"242 -81 CURVE SMOOTH",
"242 -78 OFFCURVE",
"239 -77 OFFCURVE",
"234 -76 CURVE SMOOTH",
"205 -70 OFFCURVE",
"186 -66 OFFCURVE",
"178 -64 CURVE",
"247 11 OFFCURVE",
"308 96 OFFCURVE",
"360 191 CURVE",
"401 198 OFFCURVE",
"455 203 OFFCURVE",
"521 206 CURVE SMOOTH",
"556 208 OFFCURVE",
"584 209 OFFCURVE",
"605 210 CURVE",
"620 213 OFFCURVE",
"627 217 OFFCURVE",
"627 223 CURVE SMOOTH"
);
},
{
closed = 1;
nodes = (
"403 436 OFFCURVE",
"371 335 OFFCURVE",
"308 207 CURVE",
"283 204 OFFCURVE",
"261 199 OFFCURVE",
"240 194 CURVE",
"313 353 OFFCURVE",
"350 494 OFFCURVE",
"351 616 CURVE",
"386 599 OFFCURVE",
"403 564 OFFCURVE",
"403 509 CURVE SMOOTH"
);
},
{
closed = 1;
nodes = (
"246 90 OFFCURVE",
"197 14 OFFCURVE",
"144 -51 CURVE",
"130 -45 OFFCURVE",
"118 -38 OFFCURVE",
"109 -29 CURVE",
"148 22 OFFCURVE",
"185 83 OFFCURVE",
"220 154 CURVE",
"243 163 OFFCURVE",
"267 170 OFFCURVE",
"292 177 CURVE"
);
},
{
closed = 1;
nodes = (
"172 82 OFFCURVE",
"138 26 OFFCURVE",
"101 -22 CURVE",
"87 -7 OFFCURVE",
"80 9 OFFCURVE",
"80 26 CURVE SMOOTH",
"80 70 OFFCURVE",
"122 110 OFFCURVE",
"205 147 CURVE"
);
}
);
width = 742;
}
);
note = H;
unicode = 0048;
},
{
glyphname = I;
layers = (
{
hints = (
{
horizontal = 1;
place = "{-149, 13}";
type = Stem;
},
{
horizontal = 1;
place = "{184, 31}";
type = Stem;
},
{
place = "{37, 22}";
type = Stem;
},
{
place = "{335, 16}";
type = Stem;
},
{
place = "{357, 30}";
type = Stem;
},
{
place = "{565, 11}";
type = Stem;
}
);
layerId = "89156F97-8AE0-4F29-8E8C-D321EE696556";
paths = (
{
closed = 1;
nodes = (
"700 601 OFFCURVE",
"694 606 OFFCURVE",
"682 606 CURVE SMOOTH",
"657 606 OFFCURVE",
"618 592 OFFCURVE",
"567 563 CURVE",
"573 605 OFFCURVE",
"576 644 OFFCURVE",
"576 679 CURVE SMOOTH",
"576 716 OFFCURVE",
"574 736 OFFCURVE",
"571 738 CURVE",
"567 737 OFFCURVE",
"565 734 OFFCURVE",
"565 730 CURVE SMOOTH",
"565 669 OFFCURVE",
"560 610 OFFCURVE",
"551 553 CURVE",
"506 526 OFFCURVE",
"466 497 OFFCURVE",
"430 463 CURVE SMOOTH",
"381 417 OFFCURVE",
"357 376 OFFCURVE",
"357 341 CURVE SMOOTH",
"357 328 OFFCURVE",
"362 317 OFFCURVE",
"371 306 CURVE SMOOTH",
"380 296 OFFCURVE",
"390 291 OFFCURVE",
"403 291 CURVE SMOOTH",
"406 291 OFFCURVE",
"408 292 OFFCURVE",
"408 293 CURVE SMOOTH",
"408 294 OFFCURVE",
"406 296 OFFCURVE",
"403 298 CURVE SMOOTH",
"392 305 OFFCURVE",
"387 314 OFFCURVE",
"387 327 CURVE SMOOTH",
"387 345 OFFCURVE",
"396 370 OFFCURVE",
"414 402 CURVE SMOOTH",
"430 431 OFFCURVE",
"446 453 OFFCURVE",
"462 469 CURVE SMOOTH",
"483 490 OFFCURVE",
"511 511 OFFCURVE",
"547 533 CURVE",
"536 468 OFFCURVE",
"519 402 OFFCURVE",
"497 337 CURVE SMOOTH",
"468 250 OFFCURVE",
"433 172 OFFCURVE",
"392 102 CURVE SMOOTH",
"336 8 OFFCURVE",
"279 -53 OFFCURVE",
"220 -80 CURVE",
"199 -86 OFFCURVE",
"183 -90 OFFCURVE",
"173 -92 CURVE SMOOTH",
"167 -93 OFFCURVE",
"164 -96 OFFCURVE",
"164 -99 CURVE SMOOTH",
"164 -104 OFFCURVE",
"167 -106 OFFCURVE",
"173 -106 CURVE SMOOTH",
"198 -106 OFFCURVE",
"228 -95 OFFCURVE",
"261 -73 CURVE SMOOTH",
"337 -23 OFFCURVE",
"404 70 OFFCURVE",
"464 206 CURVE SMOOTH",
"513 317 OFFCURVE",
"547 430 OFFCURVE",
"565 543 CURVE",
"614 571 OFFCURVE",
"643 585 OFFCURVE",
"652 585 CURVE SMOOTH",
"653 585 OFFCURVE",
"653 585 OFFCURVE",
"653 584 CURVE SMOOTH",
"653 577 OFFCURVE",
"646 552 OFFCURVE",
"632 510 CURVE SMOOTH",
"570 317 OFFCURVE",
"496 156 OFFCURVE",
"409 28 CURVE SMOOTH",
"335 -81 OFFCURVE",
"261 -136 OFFCURVE",
"188 -136 CURVE SMOOTH",
"149 -136 OFFCURVE",
"117 -122 OFFCURVE",
"93 -93 CURVE SMOOTH",
"70 -66 OFFCURVE",
"59 -33 OFFCURVE",
"59 7 CURVE SMOOTH",
"59 54 OFFCURVE",
"72 104 OFFCURVE",
"98 157 CURVE SMOOTH",
"102 166 OFFCURVE",
"104 172 OFFCURVE",
"104 177 CURVE SMOOTH",
"104 180 OFFCURVE",
"104 182 OFFCURVE",
"103 183 CURVE",
"110 182 OFFCURVE",
"119 182 OFFCURVE",
"128 182 CURVE SMOOTH",
"139 182 OFFCURVE",
"155 182 OFFCURVE",
"177 184 CURVE SMOOTH",
"198 184 OFFCURVE",
"214 185 OFFCURVE",
"225 185 CURVE SMOOTH",
"298 185 OFFCURVE",
"335 173 OFFCURVE",
"335 149 CURVE SMOOTH",
"335 147 OFFCURVE",
"331 142 OFFCURVE",
"324 133 CURVE SMOOTH",
"317 125 OFFCURVE",
"313 120 OFFCURVE",
"313 117 CURVE SMOOTH",
"313 116 OFFCURVE",
"314 115 OFFCURVE",
"317 115 CURVE",
"340 128 OFFCURVE",
"351 143 OFFCURVE",
"351 162 CURVE SMOOTH",
"351 187 OFFCURVE",
"337 203 OFFCURVE",
"309 211 CURVE SMOOTH",
"294 215 OFFCURVE",
"270 217 OFFCURVE",
"237 217 CURVE SMOOTH",
"220 217 OFFCURVE",
"196 216 OFFCURVE",
"163 214 CURVE SMOOTH",
"131 212 OFFCURVE",
"107 211 OFFCURVE",
"90 211 CURVE SMOOTH",
"88 211 OFFCURVE",
"84 211 OFFCURVE",
"79 212 CURVE SMOOTH",
"74 213 OFFCURVE",
"71 213 OFFCURVE",
"68 213 CURVE SMOOTH",
"61 213 OFFCURVE",
"52 210 OFFCURVE",
"42 204 CURVE SMOOTH",
"30 198 OFFCURVE",
"24 192 OFFCURVE",
"24 185 CURVE SMOOTH",
"24 180 OFFCURVE",
"31 177 OFFCURVE",
"44 174 CURVE SMOOTH",
"57 172 OFFCURVE",
"64 169 OFFCURVE",
"64 166 CURVE SMOOTH",
"64 165 OFFCURVE",
"63 162 OFFCURVE",
"61 159 CURVE SMOOTH",
"45 128 OFFCURVE",
"37 87 OFFCURVE",
"37 34 CURVE SMOOTH",
"37 -19 OFFCURVE",
"48 -61 OFFCURVE",
"71 -94 CURVE SMOOTH",
"96 -131 OFFCURVE",
"134 -149 OFFCURVE",
"185 -149 CURVE SMOOTH",
"270 -149 OFFCURVE",
"353 -104 OFFCURVE",
"431 -12 CURVE SMOOTH",
"537 111 OFFCURVE",
"618 272 OFFCURVE",
"676 470 CURVE SMOOTH",
"692 527 OFFCURVE",
"700 567 OFFCURVE",
"700 590 CURVE SMOOTH"
);
}
);
width = 664;
}
);
note = I;
unicode = 0049;
},
{
glyphname = J;
layers = (
{
hints = (
{
horizontal = 1;
place = "{-242, 41}";
type = Stem;
},
{
horizontal = 1;
place = "{81, 10}";
type = Stem;
},
{
horizontal = 1;
place = "{685, 12}";
type = Stem;
},
{
place = "{12, 38}";
type = Stem;
},
{
place = "{415, 12}";
type = Stem;
}
);
layerId = "89156F97-8AE0-4F29-8E8C-D321EE696556";
paths = (
{
closed = 1;
nodes = (
"743 661 OFFCURVE",
"733 675 OFFCURVE",
"714 685 CURVE SMOOTH",
"698 693 OFFCURVE",
"680 697 OFFCURVE",
"661 697 CURVE SMOOTH",
"620 697 OFFCURVE",
"588 689 OFFCURVE",
"566 671 CURVE SMOOTH",
"548 656 OFFCURVE",
"531 627 OFFCURVE",
"514 586 CURVE",
"483 579 OFFCURVE",
"453 572 OFFCURVE",
"425 565 CURVE",
"426 584 OFFCURVE",
"427 602 OFFCURVE",
"427 619 CURVE SMOOTH",
"427 656 OFFCURVE",
"425 676 OFFCURVE",
"421 677 CURVE",
"417 676 OFFCURVE",
"415 674 OFFCURVE",
"415 670 CURVE SMOOTH",
"415 628 OFFCURVE",
"413 592 OFFCURVE",
"410 561 CURVE",
"145 489 OFFCURVE",
"12 376 OFFCURVE",
"12 223 CURVE SMOOTH",
"12 177 OFFCURVE",
"31 141 OFFCURVE",
"68 115 CURVE SMOOTH",
"101 92 OFFCURVE",
"142 81 OFFCURVE",
"190 81 CURVE SMOOTH",
"223 81 OFFCURVE",
"239 85 OFFCURVE",
"239 92 CURVE SMOOTH",
"239 93 OFFCURVE",
"238 94 OFFCURVE",
"235 94 CURVE SMOOTH",
"231 94 OFFCURVE",
"225 93 OFFCURVE",
"217 93 CURVE",
"210 91 OFFCURVE",
"204 91 OFFCURVE",
"201 91 CURVE SMOOTH",
"157 91 OFFCURVE",
"122 102 OFFCURVE",
"95 124 CURVE SMOOTH",
"65 148 OFFCURVE",
"50 180 OFFCURVE",
"50 223 CURVE SMOOTH",
"50 366 OFFCURVE",
"169 473 OFFCURVE",
"408 544 CURVE",
"400 475 OFFCURVE",
"386 405 OFFCURVE",
"365 332 CURVE SMOOTH",
"337 237 OFFCURVE",
"301 149 OFFCURVE",
"258 69 CURVE SMOOTH",
"200 -39 OFFCURVE",
"139 -108 OFFCURVE",
"74 -138 CURVE SMOOTH",
"63 -143 OFFCURVE",
"46 -148 OFFCURVE",
"23 -152 CURVE SMOOTH",
"18 -153 OFFCURVE",
"15 -156 OFFCURVE",
"15 -159 CURVE SMOOTH",
"15 -164 OFFCURVE",
"18 -166 OFFCURVE",
"24 -166 CURVE SMOOTH",
"51 -166 OFFCURVE",
"83 -153 OFFCURVE",
"119 -128 CURVE SMOOTH",
"199 -72 OFFCURVE",
"269 30 OFFCURVE",
"329 179 CURVE SMOOTH",
"381 307 OFFCURVE",
"412 430 OFFCURVE",
"423 548 CURVE",
"450 555 OFFCURVE",
"478 562 OFFCURVE",
"507 569 CURVE",
"472 450 OFFCURVE",
"446 360 OFFCURVE",
"428 300 CURVE SMOOTH",
"391 174 OFFCURVE",
"356 84 OFFCURVE",
"325 29 CURVE SMOOTH",
"276 -57 OFFCURVE",
"208 -124 OFFCURVE",
"121 -169 CURVE SMOOTH",
"80 -190 OFFCURVE",
"39 -201 OFFCURVE",
"-4 -201 CURVE SMOOTH",
"-75 -201 OFFCURVE",
"-125 -173 OFFCURVE",
"-153 -118 CURVE",
"-160 -101 OFFCURVE",
"-165 -89 OFFCURVE",
"-167 -80 CURVE SMOOTH",
"-169 -75 OFFCURVE",
"-170 -72 OFFCURVE",
"-172 -72 CURVE SMOOTH",
"-175 -72 OFFCURVE",
"-176 -74 OFFCURVE",
"-176 -79 CURVE SMOOTH",
"-176 -121 OFFCURVE",
"-154 -159 OFFCURVE",
"-112 -193 CURVE SMOOTH",
"-72 -225 OFFCURVE",
"-30 -242 OFFCURVE",
"13 -242 CURVE SMOOTH",
"49 -242 OFFCURVE",
"84 -234 OFFCURVE",
"117 -216 CURVE SMOOTH",
"206 -169 OFFCURVE",
"282 -98 OFFCURVE",
"345 -4 CURVE SMOOTH",
"394 69 OFFCURVE",
"441 163 OFFCURVE",
"480 281 CURVE SMOOTH",
"513 380 OFFCURVE",
"543 481 OFFCURVE",
"575 582 CURVE",
"628 591 OFFCURVE",
"668 598 OFFCURVE",
"695 603 CURVE SMOOTH",
"727 610 OFFCURVE",
"743 624 OFFCURVE",
"743 644 CURVE SMOOTH"
);
},
{
closed = 1;
nodes = (
"735 637 OFFCURVE",
"726 628 OFFCURVE",
"708 621 CURVE",
"654 609 OFFCURVE",
"613 601 OFFCURVE",
"584 598 CURVE",
"615 656 OFFCURVE",
"646 685 OFFCURVE",
"678 685 CURVE SMOOTH",
"716 685 OFFCURVE",
"735 673 OFFCURVE",
"735 650 CURVE SMOOTH"
);
}
);
width = 503;
}
);
note = J;
unicode = 004A;
},
{
glyphname = K;
layers = (
{
hints = (
{
horizontal = 1;
place = "{-208, 33}";
type = Stem;
},
{
horizontal = 1;
place = "{-151, 12}";
type = Stem;
},
{
horizontal = 1;
place = "{233, 19}";
type = Stem;
},
{
horizontal = 1;
place = "{596, 19}";
type = Stem;
},
{
place = "{1, 37}";
type = Stem;
},
{
place = "{263, 33}";
type = Stem;
},
{
place = "{1043, 17}";
type = Stem;
}
);
layerId = "89156F97-8AE0-4F29-8E8C-D321EE696556";
paths = (
{
closed = 1;
nodes = (
"1247 481 OFFCURVE",
"1230 527 OFFCURVE",
"1196 564 CURVE SMOOTH",
"1162 601 OFFCURVE",
"1119 620 OFFCURVE",
"1066 620 CURVE SMOOTH",
"967 620 OFFCURVE",
"875 572 OFFCURVE",
"789 476 CURVE SMOOTH",
"735 415 OFFCURVE",
"677 325 OFFCURVE",
"614 204 CURVE",
"605 217 OFFCURVE",
"596 228 OFFCURVE",
"587 238 CURVE",
"611 289 OFFCURVE",
"634 348 OFFCURVE",
"657 413 CURVE SMOOTH",
"686 497 OFFCURVE",
"701 557 OFFCURVE",
"701 594 CURVE SMOOTH",
"701 601 OFFCURVE",
"700 606 OFFCURVE",
"698 607 CURVE SMOOTH",
"690 612 OFFCURVE",
"670 615 OFFCURVE",
"639 615 CURVE SMOOTH",
"551 615 OFFCURVE",
"464 599 OFFCURVE",
"378 568 CURVE SMOOTH",
"301 540 OFFCURVE",
"263 510 OFFCURVE",
"263 479 CURVE SMOOTH",
"263 468 OFFCURVE",
"270 455 OFFCURVE",
"283 438 CURVE SMOOTH",
"295 422 OFFCURVE",
"306 414 OFFCURVE",
"314 414 CURVE SMOOTH",
"316 414 OFFCURVE",
"317 415 OFFCURVE",
"317 416 CURVE",
"317 416 OFFCURVE",
"313 421 OFFCURVE",
"306 431 CURVE SMOOTH",
"299 441 OFFCURVE",
"296 452 OFFCURVE",
"296 463 CURVE SMOOTH",
"296 506 OFFCURVE",
"341 542 OFFCURVE",
"432 568 CURVE SMOOTH",
"499 588 OFFCURVE",
"563 597 OFFCURVE",
"622 597 CURVE SMOOTH",
"630 597 OFFCURVE",
"638 597 OFFCURVE",
"646 596 CURVE",
"623 485 OFFCURVE",
"591 381 OFFCURVE",
"550 284 CURVE",
"513 326 OFFCURVE",
"486 347 OFFCURVE",
"469 347 CURVE SMOOTH",
"463 347 OFFCURVE",
"459 345 OFFCURVE",
"456 342 CURVE",
"459 339 OFFCURVE",
"461 337 OFFCURVE",
"464 335 CURVE SMOOTH",
"495 317 OFFCURVE",
"521 294 OFFCURVE",
"543 269 CURVE",
"506 184 OFFCURVE",
"464 107 OFFCURVE",
"417 39 CURVE SMOOTH",
"352 -56 OFFCURVE",
"290 -112 OFFCURVE",
"232 -129 CURVE SMOOTH",
"209 -136 OFFCURVE",
"187 -139 OFFCURVE",
"168 -139 CURVE SMOOTH",
"125 -139 OFFCURVE",
"92 -123 OFFCURVE",
"69 -92 CURVE SMOOTH",
"48 -64 OFFCURVE",
"38 -28 OFFCURVE",
"38 16 CURVE SMOOTH",
"38 67 OFFCURVE",
"52 115 OFFCURVE",
"79 158 CURVE SMOOTH",
"110 208 OFFCURVE",
"150 233 OFFCURVE",
"199 233 CURVE SMOOTH",
"220 233 OFFCURVE",
"235 227 OFFCURVE",
"242 215 CURVE SMOOTH",
"246 209 OFFCURVE",
"249 202 OFFCURVE",
"252 195 CURVE",
"254 196 OFFCURVE",
"255 198 OFFCURVE",
"255 202 CURVE SMOOTH",
"255 217 OFFCURVE",
"248 229 OFFCURVE",
"233 238 CURVE SMOOTH",
"219 247 OFFCURVE",
"204 252 OFFCURVE",
"188 252 CURVE SMOOTH",
"132 252 OFFCURVE",
"87 228 OFFCURVE",
"51 182 CURVE SMOOTH",
"18 139 OFFCURVE",
"1 89 OFFCURVE",
"1 32 CURVE SMOOTH",
"1 -22 OFFCURVE",
"16 -66 OFFCURVE",
"47 -100 CURVE SMOOTH",
"78 -134 OFFCURVE",
"119 -151 OFFCURVE",
"172 -151 CURVE SMOOTH",
"323 -151 OFFCURVE",
"459 -27 OFFCURVE",
"579 220 CURVE",
"586 208 OFFCURVE",
"594 195 OFFCURVE",
"601 180 CURVE",
"570 120 OFFCURVE",
"549 81 OFFCURVE",
"539 64 CURVE SMOOTH",
"508 13 OFFCURVE",
"481 -20 OFFCURVE",
"457 -34 CURVE SMOOTH",
"448 -39 OFFCURVE",
"436 -43 OFFCURVE",
"421 -45 CURVE SMOOTH",
"418 -45 OFFCURVE",
"416 -47 OFFCURVE",
"416 -50 CURVE SMOOTH",
"416 -57 OFFCURVE",
"421 -61 OFFCURVE",
"432 -61 CURVE SMOOTH",
"462 -61 OFFCURVE",
"506 -11 OFFCURVE",
"562 89 CURVE SMOOTH",
"607 170 LINE",
"635 115 OFFCURVE",
"661 58 OFFCURVE",
"690 3 CURVE SMOOTH",
"721 -55 OFFCURVE",
"762 -103 OFFCURVE",
"808 -142 CURVE SMOOTH",
"859 -186 OFFCURVE",
"908 -208 OFFCURVE",
"954 -208 CURVE SMOOTH",
"986 -208 OFFCURVE",
"1012 -197 OFFCURVE",
"1031 -176 CURVE SMOOTH",
"1050 -155 OFFCURVE",
"1060 -128 OFFCURVE",
"1060 -95 CURVE SMOOTH",
"1060 -50 OFFCURVE",
"1044 -9 OFFCURVE",
"1011 30 CURVE SMOOTH",
"1007 35 OFFCURVE",
"1003 37 OFFCURVE",
"1000 37 CURVE SMOOTH",
"998 37 OFFCURVE",
"997 36 OFFCURVE",
"997 34 CURVE SMOOTH",
"997 33 OFFCURVE",
"998 31 OFFCURVE",
"1000 28 CURVE SMOOTH",
"1029 -12 OFFCURVE",
"1043 -54 OFFCURVE",
"1043 -99 CURVE SMOOTH",
"1043 -150 OFFCURVE",
"1024 -175 OFFCURVE",
"986 -175 CURVE SMOOTH",
"962 -175 OFFCURVE",
"932 -162 OFFCURVE",
"896 -138 CURVE SMOOTH",
"862 -115 OFFCURVE",
"813 -64 OFFCURVE",
"752 17 CURVE SMOOTH",
"707 76 OFFCURVE",
"664 136 OFFCURVE",
"621 195 CURVE",
"684 307 OFFCURVE",
"742 391 OFFCURVE",
"794 448 CURVE SMOOTH",
"877 538 OFFCURVE",
"964 583 OFFCURVE",
"1054 583 CURVE SMOOTH",
"1104 583 OFFCURVE",
"1147 570 OFFCURVE",
"1182 542 CURVE SMOOTH",
"1220 512 OFFCURVE",
"1239 473 OFFCURVE",
"1239 424 CURVE SMOOTH",
"1239 412 OFFCURVE",
"1240 406 OFFCURVE",
"1242 406 CURVE SMOOTH",
"1245 406 OFFCURVE",
"1247 413 OFFCURVE",
"1247 428 CURVE SMOOTH"
);
}
);
width = 830;
}
);
note = K;
unicode = 004B;
},
{
glyphname = L;
layers = (
{
hints = (
{
horizontal = 1;
place = "{-200, 52}";
type = Stem;
},
{
horizontal = 1;
place = "{-142, 27}";
type = Stem;
},
{
horizontal = 1;
place = "{-82, 154}";
type = Stem;
},
{
horizontal = 1;
place = "{613, 30}";
type = Stem;
},
{
place = "{-54, 21}";
type = Stem;
},
{
place = "{101, 33}";
type = Stem;
},
{
place = "{270, 18}";
type = Stem;
},
{
place = "{892, 11}";
type = Stem;
},
{
place = "{1000, 12}";
type = Stem;
}
);
layerId = "89156F97-8AE0-4F29-8E8C-D321EE696556";
paths = (
{
closed = 1;
nodes = (
"1012 -67 OFFCURVE",
"1007 -51 OFFCURVE",
"996 -32 CURVE SMOOTH",
"986 -13 OFFCURVE",
"975 -1 OFFCURVE",
"964 5 CURVE",
"988 -32 OFFCURVE",
"1000 -63 OFFCURVE",
"1000 -88 CURVE SMOOTH",
"1000 -128 OFFCURVE",
"966 -148 OFFCURVE",
"897 -148 CURVE SMOOTH",
"828 -148 OFFCURVE",
"736 -128 OFFCURVE",
"622 -85 CURVE SMOOTH",
"532 -51 OFFCURVE",
"442 -15 OFFCURVE",
"352 20 CURVE",
"377 54 OFFCURVE",
"400 89 OFFCURVE",
"423 125 CURVE SMOOTH",
"441 154 OFFCURVE",
"450 168 OFFCURVE",
"450 168 CURVE",
"468 177 OFFCURVE",
"482 184 OFFCURVE",
"492 187 CURVE",
"516 198 OFFCURVE",
"538 210 OFFCURVE",
"560 221 CURVE SMOOTH",
"788 338 OFFCURVE",
"903 449 OFFCURVE",
"903 554 CURVE SMOOTH",
"903 579 OFFCURVE",
"896 601 OFFCURVE",
"881 618 CURVE SMOOTH",
"866 635 OFFCURVE",
"847 643 OFFCURVE",
"822 643 CURVE SMOOTH",
"702 643 OFFCURVE",
"592 531 OFFCURVE",
"494 306 CURVE SMOOTH",
"484 284 OFFCURVE",
"476 261 OFFCURVE",
"467 239 CURVE SMOOTH",
"453 204 OFFCURVE",
"443 183 OFFCURVE",
"437 176 CURVE",
"414 172 OFFCURVE",
"391 170 OFFCURVE",
"368 169 CURVE",
"383 198 OFFCURVE",
"400 233 OFFCURVE",
"420 275 CURVE SMOOTH",
"477 397 OFFCURVE",
"515 473 OFFCURVE",
"535 504 CURVE SMOOTH",
"595 598 OFFCURVE",
"658 645 OFFCURVE",
"725 645 CURVE SMOOTH",
"733 645 OFFCURVE",
"737 646 OFFCURVE",
"737 648 CURVE SMOOTH",
"737 651 OFFCURVE",
"733 652 OFFCURVE",
"725 652 CURVE SMOOTH",
"656 652 OFFCURVE",
"591 606 OFFCURVE",
"529 515 CURVE SMOOTH",
"505 479 OFFCURVE",
"465 403 OFFCURVE",
"411 286 CURVE SMOOTH",
"388 237 OFFCURVE",
"369 198 OFFCURVE",
"354 169 CURVE",
"297 171 OFFCURVE",
"248 185 OFFCURVE",
"207 212 CURVE SMOOTH",
"158 243 OFFCURVE",
"134 286 OFFCURVE",
"134 339 CURVE SMOOTH",
"134 388 OFFCURVE",
"156 420 OFFCURVE",
"200 436 CURVE",
"201 437 OFFCURVE",
"201 438 OFFCURVE",
"201 439 CURVE SMOOTH",
"201 441 OFFCURVE",
"200 442 OFFCURVE",
"198 442 CURVE SMOOTH",
"196 442 OFFCURVE",
"193 441 OFFCURVE",
"190 439 CURVE SMOOTH",
"131 407 OFFCURVE",
"101 363 OFFCURVE",
"101 308 CURVE SMOOTH",
"101 204 OFFCURVE",
"175 152 OFFCURVE",
"322 152 CURVE SMOOTH",
"330 152 OFFCURVE",
"338 152 OFFCURVE",
"345 153 CURVE",
"322 108 OFFCURVE",
"299 71 OFFCURVE",
"277 41 CURVE",
"209 62 OFFCURVE",
"155 72 OFFCURVE",
"114 72 CURVE SMOOTH",
"72 72 OFFCURVE",
"35 63 OFFCURVE",
"4 47 CURVE SMOOTH",
"-35 27 OFFCURVE",
"-54 -2 OFFCURVE",
"-54 -40 CURVE SMOOTH",
"-54 -68 OFFCURVE",
"-39 -92 OFFCURVE",
"-9 -113 CURVE SMOOTH",
"18 -132 OFFCURVE",
"47 -142 OFFCURVE",
"76 -142 CURVE SMOOTH",
"130 -142 OFFCURVE",
"179 -127 OFFCURVE",
"224 -99 CURVE SMOOTH",
"257 -78 OFFCURVE",
"296 -43 OFFCURVE",
"339 6 CURVE",
"368 -6 OFFCURVE",
"419 -33 OFFCURVE",
"494 -74 CURVE SMOOTH",
"568 -115 OFFCURVE",
"625 -143 OFFCURVE",
"665 -160 CURVE SMOOTH",
"729 -187 OFFCURVE",
"783 -200 OFFCURVE",
"826 -200 CURVE SMOOTH",
"867 -200 OFFCURVE",
"906 -190 OFFCURVE",
"944 -170 CURVE SMOOTH",
"989 -146 OFFCURVE",
"1012 -117 OFFCURVE",
"1012 -80 CURVE SMOOTH"
);
},
{
closed = 1;
nodes = (
"892 513 OFFCURVE",
"833 439 OFFCURVE",
"716 344 CURVE SMOOTH",
"611 259 OFFCURVE",
"525 206 OFFCURVE",
"459 183 CURVE",
"494 238 OFFCURVE",
"519 282 OFFCURVE",
"537 313 CURVE SMOOTH",
"654 514 OFFCURVE",
"753 613 OFFCURVE",
"829 613 CURVE SMOOTH",
"845 613 OFFCURVE",
"860 609 OFFCURVE",
"873 602 CURVE SMOOTH",
"886 595 OFFCURVE",
"892 583 OFFCURVE",
"892 568 CURVE SMOOTH"
);
},
{
closed = 1;
nodes = (
"379 82 OFFCURVE",
"348 36 OFFCURVE",
"336 23 CURVE",
"325 26 OFFCURVE",
"309 31 OFFCURVE",
"288 38 CURVE",
"311 69 OFFCURVE",
"335 107 OFFCURVE",
"360 154 CURVE",
"382 155 OFFCURVE",
"405 158 OFFCURVE",
"429 161 CURVE"
);
},
{
closed = 1;
nodes = (
"306 -20 OFFCURVE",
"270 -48 OFFCURVE",
"218 -75 CURVE SMOOTH",
"166 -102 OFFCURVE",
"122 -115 OFFCURVE",
"86 -115 CURVE SMOOTH",
"57 -115 OFFCURVE",
"31 -107 OFFCURVE",
"8 -92 CURVE SMOOTH",
"-19 -74 OFFCURVE",
"-33 -52 OFFCURVE",
"-33 -25 CURVE SMOOTH",
"-33 5 OFFCURVE",
"-15 28 OFFCURVE",
"21 45 CURVE SMOOTH",
"49 58 OFFCURVE",
"80 64 OFFCURVE",
"115 64 CURVE SMOOTH",
"154 64 OFFCURVE",
"205 54 OFFCURVE",
"270 33 CURVE",
"215 -39 OFFCURVE",
"154 -75 OFFCURVE",
"89 -75 CURVE SMOOTH",
"80 -75 OFFCURVE",
"75 -76 OFFCURVE",
"75 -78 CURVE SMOOTH",
"75 -81 OFFCURVE",
"80 -82 OFFCURVE",
"90 -82 CURVE SMOOTH",
"159 -82 OFFCURVE",
"223 -45 OFFCURVE",
"281 29 CURVE",
"302 22 OFFCURVE",
"317 16 OFFCURVE",
"327 9 CURVE"
);
}
);
width = 584;
}
);
note = L;
unicode = 004C;
},
